<svg xmlns="http://www.w3.org/2000/svg" xmlns:xlink="http://www.w3.org/1999/xlink" viewBox="0 0 357.91 356.6"><defs><style>.cls-1{fill:url(#linear-gradient);}.cls-2{fill:#3f3089;}.cls-3{fill:url(#linear-gradient-2);}.cls-4{fill:url(#linear-gradient-3);}.cls-5{fill:#3f3388;}.cls-6{fill:url(#linear-gradient-4);}.cls-7{fill:url(#linear-gradient-5);}.cls-8{fill:#f9f297;}.cls-9{fill:url(#linear-gradient-6);}.cls-10{fill:url(#linear-gradient-7);}.cls-11{fill:#1e7893;}.cls-12{fill:#1f70a6;}.cls-13{fill:#43baa8;}</style><linearGradient id="linear-gradient" x1="25.43" y1="306.89" x2="167.93" y2="224.62" gradientTransform="translate(-13.21 -4.35)" gradientUnits="userSpaceOnUse"><stop offset="0" stop-color="#38184e"/><stop offset="1" stop-color="#3a184d"/></linearGradient><linearGradient id="linear-gradient-2" x1="-18.32" y1="207.34" x2="34.61" y2="299.01" gradientUnits="userSpaceOnUse"><stop offset="0" stop-color="#df4276"/><stop offset="1" stop-color="#a1358e"/></linearGradient><linearGradient id="linear-gradient-3" x1="54.85" y1="164.82" x2="91.61" y2="228.49" xlink:href="#linear-gradient-2"/><linearGradient id="linear-gradient-4" x1="58.71" y1="284.72" x2="95.52" y2="348.47" xlink:href="#linear-gradient-2"/><linearGradient id="linear-gradient-5" x1="146.57" y1="130.94" x2="228" y2="271.98" gradientUnits="userSpaceOnUse"><stop offset="0" stop-color="#fad187"/><stop offset="1" stop-color="#ef5f76"/></linearGradient><linearGradient id="linear-gradient-6" x1="85.5" y1="147.39" x2="175.07" y2="302.54" gradientUnits="userSpaceOnUse"><stop offset="0" stop-color="#ef6c73"/><stop offset="1" stop-color="#ef436e"/></linearGradient><linearGradient id="linear-gradient-7" x1="175.07" y1="152.09" x2="223.93" y2="236.72" xlink:href="#linear-gradient-6"/></defs><title>Asset 4</title><g id="Layer_2" data-name="Layer 2"><g id="Layer_2-2" data-name="Layer 2"><g id="_4" data-name="4"><polygon class="cls-1" points="48.86 187.35 16.29 206.16 16.29 309.59 81.43 271.98 81.43 356.6 114 337.8 114 149.75 81.43 168.55 81.43 234.37 48.86 253.17 48.86 187.35"/><polygon class="cls-2" points="48.86 187.35 32.57 177.95 0 196.76 16.29 206.16 48.86 187.35"/><polygon class="cls-3" points="0 300.19 0 196.76 16.29 206.16 16.29 309.59 0 300.19"/><polygon class="cls-4" points="65.14 224.97 64.82 159.06 81.43 168.55 81.43 234.37 65.14 224.97"/><polygon class="cls-5" points="48.86 234.37 65.14 224.97 81.43 234.37 48.86 253.17 48.86 234.37"/><polygon class="cls-6" points="64.82 347.38 81.43 356.6 81.43 271.98 64.82 281.19 64.82 347.38"/><polygon class="cls-2" points="97.71 140.34 64.82 159.06 81.43 168.55 114 149.75 97.71 140.34"/></g><path class="cls-7" d="M138.43,135.64V323.69l97.71-56.41v-188Zm65.14,112.83L171,267.28V154.45l32.57-18.81Z"/><polygon class="cls-8" points="219.85 69.82 236.14 79.23 138.43 135.64 122.14 126.24 219.85 69.82"/><polygon class="cls-9" points="122.14 314.29 138.43 323.69 138.43 135.64 122.14 126.24 122.14 314.29"/><polygon class="cls-10" points="187.28 239.07 187.28 145.04 203.57 135.64 203.57 248.47 187.28 239.07"/><polygon class="cls-8" points="171 248.47 187.28 239.07 203.57 248.47 171 267.28 171 248.47"/><g id="_4-2" data-name="4"><polygon class="cls-11" points="292.77 47.01 260.2 65.82 260.2 169.25 325.34 131.63 325.34 216.26 357.91 197.45 357.91 9.4 325.34 28.21 325.34 94.03 292.77 112.83 292.77 47.01"/><polygon class="cls-12" points="292.77 47.01 276.49 37.61 243.91 56.41 260.2 65.82 292.77 47.01"/><polygon class="cls-13" points="243.91 159.84 243.91 56.41 260.2 65.82 260.2 169.25 243.91 159.84"/><polygon class="cls-13" points="309.06 84.62 308.73 18.72 325.34 28.21 325.34 94.03 309.06 84.62"/><polygon class="cls-12" points="292.77 94.03 309.06 84.62 325.34 94.03 292.77 112.83 292.77 94.03"/><polygon class="cls-13" points="308.73 207.04 325.34 216.26 325.34 131.63 308.73 140.85 308.73 207.04"/><polygon class="cls-12" points="341.63 0 308.73 18.72 325.34 28.21 357.91 9.4 341.63 0"/></g></g></g></svg>