<svg xmlns="http://www.w3.org/2000/svg" viewBox="0 0 42.67 33.01"><defs><style>.cls-1{opacity:0.91;}.cls-2{fill:#14cafe;}.cls-3{fill:#26c99c;}.cls-4{fill:#c35ffe;}.cls-5{fill:none;stroke:#231f20;stroke-miterlimit:10;stroke-width:0.75px;}</style></defs><title>Asset 1</title><g id="Layer_2" data-name="Layer 2"><g id="Layer_4" data-name="Layer 4"><g class="cls-1"><path class="cls-2" d="M39.67,8.22l-6.93-7A1.89,1.89,0,0,0,31.42.69H24.18a1.89,1.89,0,0,0-1.32.58l-.33.36a1.86,1.86,0,0,0,0,2.64L24.29,6a1.88,1.88,0,0,1,0,2.64L4.94,28a1.86,1.86,0,0,0,0,2.64L6.7,32.41a1.88,1.88,0,0,0,2.64,0L28.68,13.06a1.86,1.86,0,0,1,2.64,0l1.76,1.76a1.85,1.85,0,0,0,2.63,0l4-4A1.88,1.88,0,0,0,39.67,8.22Z"/><path class="cls-3" d="M17.69,4.26a1.86,1.86,0,0,0,0-2.64l-.33-.35A1.91,1.91,0,0,0,16,.69H8.79a1.87,1.87,0,0,0-1.31.58l-6.93,7a1.86,1.86,0,0,0,0,2.64l4,4a1.85,1.85,0,0,0,2.63,0L8.9,13.06a1.86,1.86,0,0,1,2.64,0l.65.66a1.86,1.86,0,0,0,2.64,0L16.59,12a1.88,1.88,0,0,0,0-2.65l-.66-.65a1.88,1.88,0,0,1,0-2.65Z"/><path class="cls-4" d="M28,20.76a1.85,1.85,0,0,0-2.63,0l-1.76,1.76a1.85,1.85,0,0,0,0,2.63l7.24,7.26a1.9,1.9,0,0,0,2.65,0l1.76-1.76a1.88,1.88,0,0,0,0-2.64Z"/></g><path class="cls-5" d="M41.75,7.9,34.81,1A1.9,1.9,0,0,0,33.5.38H26.25A1.94,1.94,0,0,0,24.93,1l-.33.37A1.86,1.86,0,0,0,24.6,4l1.76,1.75a1.86,1.86,0,0,1,0,2.64L7,27.7a1.87,1.87,0,0,0,0,2.63l1.76,1.76a1.88,1.88,0,0,0,2.65,0L30.75,12.75a1.86,1.86,0,0,1,2.64,0l1.76,1.75a1.86,1.86,0,0,0,2.64,0l4-3.95A1.9,1.9,0,0,0,41.75,7.9Z"/><path class="cls-5" d="M19.76,4a1.88,1.88,0,0,0,0-2.65L19.43,1A1.92,1.92,0,0,0,18.11.38H10.87A1.92,1.92,0,0,0,9.55,1l-6.93,7a1.85,1.85,0,0,0,0,2.63l4,3.95a1.86,1.86,0,0,0,2.64,0L11,12.75a1.86,1.86,0,0,1,2.64,0l.66.65a1.84,1.84,0,0,0,2.63,0l1.76-1.75a1.86,1.86,0,0,0,0-2.64L18,8.35a1.86,1.86,0,0,1,0-2.64Z"/><path class="cls-5" d="M30.1,20.44a1.86,1.86,0,0,0-2.64,0L25.7,22.2a1.86,1.86,0,0,0,0,2.64L33,32.09a1.86,1.86,0,0,0,2.64,0l1.76-1.76a1.85,1.85,0,0,0,0-2.63Z"/></g></g></svg>