<?xml version="1.0" encoding="utf-8"?>
<!-- Generator: Adobe Illustrator 23.0.0, SVG Export Plug-In . SVG Version: 6.00 Build 0)  -->
<svg version="1.1" id="Layer_1" xmlns="http://www.w3.org/2000/svg" xmlns:xlink="http://www.w3.org/1999/xlink" x="0px" y="0px"
	 viewBox="0 0 193.5 155.2" style="enable-background:new 0 0 193.5 155.2;" xml:space="preserve">
<style type="text/css">
	.st0{fill:#777CB7;}
</style>
<title>hammers</title>
<g>
	<g id="Layer_1-2">
		<path class="st0" d="M134.8,96.5c-3.5-3.5-9.2-3.5-12.7,0l-8.5,8.5c-3.5,3.5-3.5,9.2,0,12.7l34.9,34.9c3.5,3.5,9.2,3.5,12.7,0
			l8.5-8.5c3.5-3.5,3.5-9.2,0-12.7L134.8,96.5z"/>
		<path class="st0" d="M34.3,68l8.5-8.5c3.5-3.5,9.2-3.5,12.7,0l3.2,3.2c3.5,3.5,9.1,3.5,12.6,0.1c0,0,0,0,0.1-0.1l8.5-8.4
			c3.5-3.5,3.5-9.2,0-12.7l-3.2-3.2c-3.5-3.5-3.5-9.2,0-12.7l8.5-8.5c3.5-3.5,3.5-9.2,0-12.7l0,0l-1.6-1.7c-1.7-1.7-4-2.7-6.4-2.8
			H42.3c-2.4,0.1-4.7,1.1-6.3,2.8L2.6,36.3c-3.5,3.5-3.5,9.2,0,12.7l0,0l19,19C25.1,71.5,30.8,71.5,34.3,68L34.3,68z"/>
		<path class="st0" d="M157.5,2.8c-1.7-1.7-3.9-2.7-6.3-2.8h-34.8c-2.4,0.1-4.7,1.1-6.3,2.8l-1.6,1.8c-3.5,3.5-3.5,9.2,0,12.7
			l8.5,8.5c3.5,3.5,3.5,9.2,0,12.7l-93.1,93.1c-3.5,3.5-3.5,9.2,0,12.7l8.5,8.5c3.5,3.5,9.2,3.5,12.7,0l93-93.1
			c3.5-3.5,9.2-3.5,12.7,0l8.5,8.5c3.5,3.5,9.2,3.5,12.7,0l19-19c3.5-3.5,3.5-9.2,0-12.7l0,0L157.5,2.8z"/>
	</g>
</g>
</svg>
