<svg xmlns="http://www.w3.org/2000/svg" viewBox="49 6800 31.117 31.117">
  <defs>
    <style>
      .cls-1 {
        fill: #f3027e;
      }
    </style>
  </defs>
  <g id="facebook-logo" transform="translate(49 6800)">
    <path id="Facebook__x28_alt_x29_" class="cls-1" d="M31.117,5.186A5.375,5.375,0,0,0,25.93,0H5.186A5.375,5.375,0,0,0,0,5.186V25.93a5.375,5.375,0,0,0,5.186,5.186H15.558V19.361h-3.8V14.175h3.8V12.155c0-3.485,2.617-6.623,5.834-6.623h4.192v5.186H21.393c-.459,0-.994.557-.994,1.391v2.066h5.186v5.186H20.4V31.117H25.93a5.375,5.375,0,0,0,5.186-5.186Z" transform="translate(0 0)"/>
  </g>
</svg>
