<svg xmlns="http://www.w3.org/2000/svg" viewBox="0 0 90.47 90.48"><defs><style>.cls-1{fill:#dbe1e8;}.cls-2{fill:#f3027e;}.cls-3{fill:#04effb;}</style></defs><title>faq</title><g id="Layer_2" data-name="Layer 2"><g id="Layer_1-2" data-name="Layer 1"><g id="Layer_2-2" data-name="Layer 2"><g id="Layer_1-2-2" data-name="Layer 1-2"><path class="cls-1" d="M50.1,47.64a1.15,1.15,0,0,0-1.63,0l-1.09,1.09a1.15,1.15,0,0,0,0,1.63l4.47,4.47a1.15,1.15,0,0,0,1.63,0l1.09-1.09a1.15,1.15,0,0,0,0-1.63Z"/><path class="cls-1" d="M37.24,44l1.09-1.09a1.15,1.15,0,0,1,1.63,0l.41.41a1.15,1.15,0,0,0,1.61,0h0l1.09-1.08a1.15,1.15,0,0,0,0-1.63l-.41-.41a1.15,1.15,0,0,1,0-1.63l1.09-1.09a1.15,1.15,0,0,0,0-1.63h0l-.2-.22a1.23,1.23,0,0,0-.82-.36H38.26a1.18,1.18,0,0,0-.81.36l-4.28,4.29a1.15,1.15,0,0,0,0,1.63h0L35.61,44a1.15,1.15,0,0,0,1.63,0Z"/><path class="cls-1" d="M53,35.65a1.2,1.2,0,0,0-.81-.36H47.75a1.18,1.18,0,0,0-.81.36l-.2.23a1.15,1.15,0,0,0,0,1.63l1.09,1.09a1.15,1.15,0,0,1,0,1.63L35.91,52.13a1.15,1.15,0,0,0,0,1.63L37,54.85a1.15,1.15,0,0,0,1.63,0l11.9-11.92a1.15,1.15,0,0,1,1.63,0L53.24,44a1.15,1.15,0,0,0,1.63,0l2.43-2.43a1.15,1.15,0,0,0,0-1.63h0Z"/></g></g><path class="cls-2" d="M45.24,79.12A33.89,33.89,0,1,1,79.12,45.24,33.92,33.92,0,0,1,45.24,79.12Zm0-65.77A31.89,31.89,0,1,0,77.12,45.24,31.92,31.92,0,0,0,45.24,13.35Z"/><path class="cls-3" d="M45.24,90.48A45.24,45.24,0,1,1,90.47,45.24,45.29,45.29,0,0,1,45.24,90.48ZM45.24,2A43.24,43.24,0,1,0,88.47,45.24,43.29,43.29,0,0,0,45.24,2Z"/></g></g></svg>