<?xml version="1.0" encoding="UTF-8" standalone="no"?><!DOCTYPE svg PUBLIC "-//W3C//DTD SVG 1.1//EN" "http://www.w3.org/Graphics/SVG/1.1/DTD/svg11.dtd"><svg width="100%" height="100%" viewBox="0 0 389 126" version="1.1" xmlns="http://www.w3.org/2000/svg" xmlns:xlink="http://www.w3.org/1999/xlink" xml:space="preserve" xmlns:serif="http://www.serif.com/" style="fill-rule:evenodd;clip-rule:evenodd;stroke-linecap:round;stroke-miterlimit:23;"><g><g><path d="M371.42,61.529c0,-9.84 -7.989,-17.83 -17.829,-17.83l-318.495,0c-9.841,0 -17.83,7.99 -17.83,17.83c0,9.84 7.989,17.83 17.83,17.83l318.495,0c9.84,0 17.829,-7.99 17.829,-17.83Z" style="fill:#fff;"/><clipPath id="_clip1"><path d="M371.42,61.529c0,-9.84 -7.989,-17.83 -17.829,-17.83l-318.495,0c-9.841,0 -17.83,7.99 -17.83,17.83c0,9.84 7.989,17.83 17.83,17.83l318.495,0c9.84,0 17.829,-7.99 17.829,-17.83Z"/></clipPath><g clip-path="url(#_clip1)"><g id="Title"><text x="184.809px" y="71.819px" style="font-family:'Futura-Bold', 'Futura', sans-serif;font-weight:700;font-size:28px;fill:#26c99c;">R<tspan x="204.353px 222.469px " y="71.819px 71.819px ">es</tspan>our<tspan x="288.241px 301.961px " y="71.819px 71.819px ">ce</tspan>s</text></g></g><path d="M371.42,61.529c0,-9.84 -7.989,-17.83 -17.829,-17.83l-318.495,0c-9.841,0 -17.83,7.99 -17.83,17.83c0,9.84 7.989,17.83 17.83,17.83l318.495,0c9.84,0 17.829,-7.99 17.829,-17.83Z" style="fill:none;stroke:#000;stroke-width:1.5px;"/><path d="M54.53,28.044c-3.157,0.286 -5.99,2.053 -7.638,4.761c-1.647,2.707 -1.914,6.036 -0.718,8.971c5.962,14.632 15.546,38.152 19.712,48.376c1.275,3.129 4.044,5.402 7.36,6.044c11.908,2.306 40.779,7.895 54.926,10.634c4.696,0.909 9.378,-1.634 11.172,-6.068c6.069,-15.009 19.657,-48.609 27.623,-68.304c1.307,-3.232 0.836,-6.911 -1.241,-9.71c-2.078,-2.799 -5.464,-4.314 -8.935,-3.999c-26.37,2.397 -77.854,7.076 -102.261,9.295Z" style="fill:#fff;stroke:#000;stroke-width:1.5px;"/></g><g id="Logo"><path d="M137.006,49.573l-6.621,6.61c-1.216,1.217 -3.191,1.217 -4.407,0l-2.942,-2.941c-1.216,-1.216 -3.191,-1.216 -4.407,0l-32.336,32.347c-1.227,1.216 -3.202,1.216 -4.418,0l-2.941,-2.942c-1.216,-1.216 -1.216,-3.191 0,-4.407l32.346,-32.347c1.217,-1.216 1.217,-3.191 0,-4.407l-2.941,-2.941c-1.216,-1.217 -1.216,-3.191 0,-4.408l0.551,-0.613c0.592,-0.582 1.382,-0.967 2.214,-0.967l12.109,0c0.832,0 1.621,0.385 2.204,0.967l11.589,11.621c1.216,1.206 1.216,3.212 0,4.428m-7.349,33.074l-2.941,2.942c-1.216,1.216 -3.191,1.216 -4.418,0l-12.119,-12.13c-1.216,-1.217 -1.216,-3.191 0,-4.408l2.941,-2.941c1.216,-1.216 3.191,-1.216 4.407,0l12.13,12.13c1.216,1.216 1.216,3.191 0,4.407m-58.072,-37.481l11.59,-11.642c0.582,-0.582 1.372,-0.967 2.203,-0.967l12.109,0c0.832,0 1.622,0.385 2.214,0.967l0.551,0.582c1.216,1.227 1.216,3.212 0,4.428l-2.941,2.942c-1.216,1.216 -1.216,3.201 0,4.417l1.101,1.102c1.217,1.216 1.217,3.191 0,4.418l-2.941,2.931c-1.216,1.226 -3.191,1.226 -4.407,0l-1.102,-1.102c-1.216,-1.216 -3.191,-1.216 -4.407,0l-2.942,2.941c-1.216,1.217 -3.191,1.217 -4.407,0l-6.621,-6.61c-1.216,-1.216 -1.216,-3.191 0,-4.407" style="fill:#26c99c;fill-rule:nonzero;"/><path d="M138.602,49.573l-6.621,6.61c-1.216,1.217 -3.191,1.217 -4.407,0l-2.942,-2.941c-1.216,-1.216 -3.191,-1.216 -4.407,0l-32.336,32.347c-1.227,1.216 -3.202,1.216 -4.418,0l-2.941,-2.942c-1.216,-1.216 -1.216,-3.191 0,-4.407l32.346,-32.347c1.217,-1.216 1.217,-3.191 0,-4.407l-2.941,-2.941c-1.216,-1.217 -1.216,-3.191 0,-4.408l0.551,-0.613c0.592,-0.582 1.382,-0.967 2.214,-0.967l12.109,0c0.832,0 1.621,0.385 2.204,0.967l11.589,11.621c1.216,1.206 1.216,3.212 0,4.428m-7.349,33.074l-2.941,2.942c-1.216,1.216 -3.191,1.216 -4.418,0l-12.119,-12.13c-1.216,-1.217 -1.216,-3.191 0,-4.408l2.941,-2.941c1.216,-1.216 3.191,-1.216 4.407,0l12.13,12.13c1.216,1.216 1.216,3.191 0,4.407m-58.072,-37.481l11.59,-11.642c0.582,-0.582 1.372,-0.967 2.203,-0.967l12.109,0c0.832,0 1.622,0.385 2.214,0.967l0.551,0.582c1.216,1.227 1.216,3.212 0,4.428l-2.941,2.942c-1.216,1.216 -1.216,3.201 0,4.417l1.101,1.102c1.217,1.216 1.217,3.191 0,4.418l-2.941,2.931c-1.216,1.226 -3.191,1.226 -4.407,0l-1.102,-1.102c-1.216,-1.216 -3.191,-1.216 -4.407,0l-2.942,2.941c-1.216,1.217 -3.191,1.217 -4.407,0l-6.621,-6.61c-1.216,-1.216 -1.216,-3.191 0,-4.407" style="fill:none;stroke:#000;stroke-width:1px;stroke-linecap:butt;stroke-linejoin:round;stroke-miterlimit:1.41421;"/></g></g></svg>