<?xml version="1.0" encoding="UTF-8" standalone="no"?><!DOCTYPE svg PUBLIC "-//W3C//DTD SVG 1.1//EN" "http://www.w3.org/Graphics/SVG/1.1/DTD/svg11.dtd"><svg width="100%" height="100%" viewBox="0 0 543 166" version="1.1" xmlns="http://www.w3.org/2000/svg" xmlns:xlink="http://www.w3.org/1999/xlink" xml:space="preserve" xmlns:serif="http://www.serif.com/" style="fill-rule:evenodd;clip-rule:evenodd;stroke-linecap:round;stroke-miterlimit:23;"><g><g><path d="M525.42,80.776c0,-14.119 -11.463,-25.582 -25.582,-25.582l-456.989,0c-14.12,0 -25.583,11.463 -25.583,25.582c0,14.12 11.463,25.583 25.583,25.583l456.989,0c14.119,0 25.582,-11.463 25.582,-25.583Z" style="fill:#fff;"/><clipPath id="_clip1"><path d="M525.42,80.776c0,-14.119 -11.463,-25.582 -25.582,-25.582l-456.989,0c-14.12,0 -25.583,11.463 -25.583,25.582c0,14.12 11.463,25.583 25.583,25.583l456.989,0c14.119,0 25.582,-11.463 25.582,-25.583Z"/></clipPath><g clip-path="url(#_clip1)"><g id="Title"><text x="253.805px" y="95.374px" style="font-family:'Futura-Bold', 'Futura', sans-serif;font-weight:700;font-size:36px;fill:#14cafe;">BoilerM<tspan x="402.197px 427.433px 451.445px " y="95.374px 95.374px 95.374px ">ake</tspan></text></g></g><path d="M525.42,80.776c0,-14.119 -11.463,-25.582 -25.582,-25.582l-456.989,0c-14.12,0 -25.583,11.463 -25.583,25.582c0,14.12 11.463,25.583 25.583,25.583l456.989,0c14.119,0 25.582,-11.463 25.582,-25.583Z" style="fill:none;stroke:#000;stroke-width:1.5px;"/><path d="M64.884,33.262c-3.157,0.287 -5.99,2.053 -7.638,4.761c-1.648,2.707 -1.914,6.036 -0.718,8.971c8.578,21.052 25.536,62.668 31.389,77.032c1.275,3.129 4.043,5.402 7.36,6.044c16.227,3.142 65.194,12.622 84.637,16.387c4.696,0.909 9.378,-1.635 11.171,-6.069c8.491,-20.995 32.313,-79.9 43.649,-107.93c1.307,-3.232 0.836,-6.911 -1.241,-9.71c-2.078,-2.799 -5.464,-4.314 -8.935,-3.999c-36.815,3.346 -125.752,11.43 -159.674,14.513Z" style="fill:#fff;stroke:#000;stroke-width:1.5px;"/></g><g id="Logo"><path d="M189.074,63.621l-9.501,9.485c-1.745,1.745 -4.578,1.745 -6.323,0l-4.221,-4.221c-1.745,-1.744 -4.578,-1.744 -6.323,0l-46.398,46.413c-1.76,1.745 -4.593,1.745 -6.338,0l-4.221,-4.221c-1.745,-1.745 -1.745,-4.579 0,-6.323l46.412,-46.413c1.745,-1.745 1.745,-4.578 0,-6.323l-4.22,-4.221c-1.745,-1.745 -1.745,-4.578 0,-6.323l0.79,-0.88c0.85,-0.836 1.984,-1.387 3.177,-1.387l17.375,0c1.193,0 2.326,0.551 3.161,1.387l16.63,16.673c1.744,1.731 1.744,4.609 0,6.354m-10.545,47.456l-4.22,4.221c-1.745,1.745 -4.579,1.745 -6.339,0l-17.389,-17.405c-1.745,-1.745 -1.745,-4.578 0,-6.323l4.22,-4.221c1.745,-1.745 4.579,-1.745 6.324,0l17.404,17.405c1.745,1.744 1.745,4.578 0,6.323m-83.324,-53.78l16.629,-16.703c0.835,-0.836 1.969,-1.387 3.162,-1.387l17.375,0c1.193,0 2.326,0.551 3.176,1.387l0.791,0.835c1.745,1.76 1.745,4.608 0,6.353l-4.221,4.221c-1.745,1.745 -1.745,4.593 0,6.338l1.581,1.581c1.745,1.745 1.745,4.579 0,6.339l-4.221,4.205c-1.745,1.76 -4.578,1.76 -6.323,0l-1.581,-1.581c-1.745,-1.744 -4.579,-1.744 -6.324,0l-4.22,4.221c-1.745,1.745 -4.579,1.745 -6.324,0l-9.5,-9.485c-1.745,-1.745 -1.745,-4.579 0,-6.324" style="fill:#14cafe;fill-rule:nonzero;"/><path d="M191.364,63.621l-9.501,9.485c-1.745,1.745 -4.578,1.745 -6.323,0l-4.221,-4.221c-1.745,-1.744 -4.578,-1.744 -6.323,0l-46.398,46.413c-1.76,1.745 -4.593,1.745 -6.338,0l-4.221,-4.221c-1.745,-1.745 -1.745,-4.579 0,-6.323l46.412,-46.413c1.745,-1.745 1.745,-4.578 0,-6.323l-4.22,-4.221c-1.745,-1.745 -1.745,-4.578 0,-6.323l0.79,-0.88c0.85,-0.836 1.984,-1.387 3.177,-1.387l17.375,0c1.193,0 2.326,0.551 3.161,1.387l16.63,16.673c1.744,1.731 1.744,4.609 0,6.354m-10.545,47.456l-4.22,4.221c-1.745,1.745 -4.579,1.745 -6.339,0l-17.389,-17.405c-1.745,-1.745 -1.745,-4.578 0,-6.323l4.22,-4.221c1.745,-1.745 4.579,-1.745 6.324,0l17.404,17.405c1.745,1.744 1.745,4.578 0,6.323m-83.324,-53.78l16.629,-16.703c0.835,-0.836 1.969,-1.387 3.162,-1.387l17.375,0c1.193,0 2.326,0.551 3.176,1.387l0.791,0.835c1.745,1.76 1.745,4.608 0,6.353l-4.221,4.221c-1.745,1.745 -1.745,4.593 0,6.338l1.581,1.581c1.745,1.745 1.745,4.579 0,6.339l-4.221,4.205c-1.745,1.76 -4.578,1.76 -6.323,0l-1.581,-1.581c-1.745,-1.744 -4.579,-1.744 -6.324,0l-4.22,4.221c-1.745,1.745 -4.579,1.745 -6.324,0l-9.5,-9.485c-1.745,-1.745 -1.745,-4.579 0,-6.324" style="fill:none;stroke:#000;stroke-width:1px;stroke-linecap:butt;stroke-linejoin:round;stroke-miterlimit:1.41421;"/></g></g></svg>