<svg xmlns="http://www.w3.org/2000/svg" viewBox="0 0 630.04 139.22"><defs><style>.cls-1{fill:#fdfefe;}.cls-2{fill:#fff;}</style></defs><title>Asset 5</title><g id="Layer_2" data-name="Layer 2"><g id="Layer_1-2" data-name="Layer 1"><path class="cls-1" d="M630,47.47a36,36,0,0,0-.93-8.15C624.85,20.89,606.43,7,584.35,7a48.73,48.73,0,0,0-32.06,11.64,41.26,41.26,0,0,0-39.2,1.85,39.48,39.48,0,0,0-27-10.26A39.06,39.06,0,0,0,457.3,22.41a46.3,46.3,0,0,0-20.45-4.68c-15.19,0-28.5,7.11-35.92,17.79-3.57-9.16-13.39-15.75-25-15.75a28.32,28.32,0,0,0-17.51,5.89C350.88,10.55,333.79,0,313.9,0,295.23,0,279,9.3,270.83,22.94a30.8,30.8,0,0,0-16.73-4.82c-10,0-18.71,4.53-23.79,11.38a40.57,40.57,0,0,0-56.61.25c-3.79-10-14.42-17.14-26.95-17.14-11.78,0-21.88,6.33-26.2,15.36a41.2,41.2,0,0,0-51.51-2A46,46,0,0,0,36.13,12.61c-15,0-28.3,6.74-36.13,17"/><polygon class="cls-2" points="0 29.61 630.04 37.92 630.04 139.22 0 139.22 0 29.61"/></g></g></svg>