<svg xmlns="http://www.w3.org/2000/svg" viewBox="0 0 1222.66 106.7"><defs><style>.cls-1{fill:#c3c3c3;}.cls-2{fill:#f3f3f4;}.cls-3{fill:#fdfefe;}</style></defs><title>Asset 7</title><g id="Layer_2" data-name="Layer 2"><g id="Layer_1-2" data-name="Layer 1"><path class="cls-1" d="M611.33,11.89a56.85,56.85,0,0,0-21,3.74A56.1,56.1,0,0,0,575,24.49c-3.8-6.95-19-10.74-25.23-1a40.42,40.42,0,0,0-60.93-4.81,32.88,32.88,0,0,0-34.7,1.85,32.87,32.87,0,0,0-49.38,1.9,37.31,37.31,0,0,0-49.89,13.11,23.36,23.36,0,0,0-37.59-9.86,43.15,43.15,0,0,0-77.57-2.72,25.17,25.17,0,0,0-35.87,6.56,33,33,0,0,0-50.1.25,25.18,25.18,0,0,0-47-1.78,33.26,33.26,0,0,0-45.59-2A38.56,38.56,0,0,0,0,29.61V99.34l611.33,7.36Z"/><path class="cls-2" d="M611.33,34c-.68,0-1.36,0-2.05,0a47.61,47.61,0,0,0-31.59,11.64,40.12,40.12,0,0,0-38.62,1.85,39.39,39.39,0,0,0-55,1.9,45,45,0,0,0-20.15-4.68c-15,0-28.08,7.11-35.39,17.79C425,53.33,415.36,46.74,404,46.74a27.63,27.63,0,0,0-17.25,5.89C379.24,37.52,362.4,27,342.8,27c-18.39,0-34.37,9.3-42.43,22.94a30.09,30.09,0,0,0-16.5-4.82,28.9,28.9,0,0,0-23.43,11.38,39.56,39.56,0,0,0-55.78.25c-3.74-10-14.21-17.14-26.56-17.14-11.6,0-21.56,6.33-25.81,15.36a40.14,40.14,0,0,0-50.76-2A45,45,0,0,0,69.1,39.58c-14.82,0-27.88,6.74-35.6,17C26.1,52.79,6.55,54.8,0,59.45V99.34l611.33,7.08Z"/><path class="cls-3" d="M611.33,66.52c-.72,0-1.45,0-2.18,0a52.11,52.11,0,0,0-33.42,11.63A44.13,44.13,0,0,0,557.05,74,43.34,43.34,0,0,0,534.87,80a42.12,42.12,0,0,0-28.1-10.26c-12.14,0-23,4.74-30.07,12.16a49.75,49.75,0,0,0-21.31-4.69C439.55,77.18,425.68,84.3,418,95c-3.73-9.16-14-15.74-26-15.74a30.34,30.34,0,0,0-18.25,5.88C365.78,70,348,59.45,327.23,59.45c-19.47,0-36.37,9.3-44.9,23a33.17,33.17,0,0,0-17.45-4.83c-10.37,0-19.5,4.53-24.79,11.39C233,82,222.44,77.57,210.7,77.57s-22.49,4.52-29.63,11.63c-3.95-10-15-17.14-28.09-17.14-12.28,0-22.81,6.34-27.31,15.37A42.76,42.76,0,0,0,97.53,77.32,43.38,43.38,0,0,0,72,85.37c-8.33-8.15-20.61-13.31-34.31-13.31C22,72.06,8.16,89.08,0,99.34l611.33,7.06Z"/><path class="cls-1" d="M611.33,11.89a56.78,56.78,0,0,1,21,3.74,56.16,56.16,0,0,1,15.3,8.86c3.8-6.95,19-10.74,25.22-1a40.43,40.43,0,0,1,60.94-4.81,32.86,32.86,0,0,1,34.69,1.85,32.88,32.88,0,0,1,49.39,1.9,37.31,37.31,0,0,1,49.89,13.11,23.36,23.36,0,0,1,37.59-9.86,43.14,43.14,0,0,1,77.56-2.72,25.17,25.17,0,0,1,35.87,6.56,33,33,0,0,1,50.11.25A25.17,25.17,0,0,1,1116,28a33.28,33.28,0,0,1,45.6-2,38.55,38.55,0,0,1,61.1,3.69V99.34L611.33,106.7Z"/><path class="cls-2" d="M611.33,34c.68,0,1.37,0,2,0A47.59,47.59,0,0,1,645,45.63a40.14,40.14,0,0,1,38.63,1.85,39.38,39.38,0,0,1,55,1.9,45.07,45.07,0,0,1,20.15-4.68c15,0,28.09,7.11,35.39,17.79,3.52-9.16,13.2-15.75,24.59-15.75A27.68,27.68,0,0,1,836,52.63C843.42,37.52,860.27,27,879.86,27c18.4,0,34.37,9.3,42.44,22.94a30.06,30.06,0,0,1,16.49-4.82,28.92,28.92,0,0,1,23.44,11.38,39.56,39.56,0,0,1,55.78.25c3.73-10,14.21-17.14,26.55-17.14,11.61,0,21.56,6.33,25.82,15.36a40.12,40.12,0,0,1,50.75-2,45,45,0,0,1,32.43-13.31c14.82,0,27.89,6.74,35.6,17,7.41-3.79,27-1.78,33.5,2.87V99.34l-611.33,7.08Z"/><path class="cls-3" d="M611.33,66.52c.73,0,1.45,0,2.19,0a52.06,52.06,0,0,1,33.41,11.63A44.18,44.18,0,0,1,665.62,74,43.37,43.37,0,0,1,687.8,80a42.1,42.1,0,0,1,28.09-10.26c12.14,0,23,4.74,30.07,12.16a49.79,49.79,0,0,1,21.32-4.69c15.83,0,29.71,7.12,37.44,17.79,3.72-9.16,14-15.74,26-15.74A30.35,30.35,0,0,1,849,85.11c7.9-15.11,25.72-25.66,46.45-25.66,19.46,0,36.36,9.3,44.89,23a33.2,33.2,0,0,1,17.45-4.83c10.38,0,19.5,4.53,24.8,11.39,7.14-7,17.65-11.39,29.38-11.39s22.49,4.52,29.63,11.63c4-10,15-17.14,28.1-17.14,12.27,0,22.8,6.34,27.31,15.37a42.72,42.72,0,0,1,28.13-10.11,43.41,43.41,0,0,1,25.57,8.05c8.32-8.15,20.6-13.31,34.3-13.31,15.68,0,29.5,17,37.66,27.28L611.33,106.4Z"/></g></g></svg>