<svg xmlns="http://www.w3.org/2000/svg" xmlns:xlink="http://www.w3.org/1999/xlink" viewBox="0 0 507.38 710.06"><defs><style>.cls-1,.cls-10,.cls-11,.cls-15,.cls-22,.cls-24,.cls-25,.cls-28,.cls-36,.cls-49,.cls-50{fill:none;}.cls-2{fill:#f7e000;}.cls-14,.cls-19,.cls-23,.cls-3,.cls-33,.cls-34,.cls-37,.cls-43,.cls-47,.cls-48,.cls-9{fill:#fff;}.cls-4{fill:#8cd7f3;}.cls-5{clip-path:url(#clip-path);}.cls-6{fill:#35c6f4;}.cls-7{clip-path:url(#clip-path-2);}.cls-8{fill:#19a5cc;}.cls-11,.cls-12,.cls-13,.cls-19,.cls-9{stroke:#273a79;}.cls-10,.cls-11,.cls-12,.cls-13,.cls-14,.cls-15,.cls-17,.cls-19,.cls-22,.cls-23,.cls-24,.cls-25,.cls-28,.cls-33,.cls-34,.cls-36,.cls-37,.cls-43,.cls-46,.cls-47,.cls-48,.cls-49,.cls-50,.cls-51,.cls-52,.cls-9{stroke-miterlimit:10;}.cls-10{stroke:#f1f2f2;}.cls-12{fill:#ec5e93;}.cls-13,.cls-52{fill:#9076b5;}.cls-14,.cls-15,.cls-47{stroke:#fff;}.cls-14,.cls-15,.cls-24,.cls-34,.cls-43{stroke-width:2px;}.cls-16{fill:#19ac84;}.cls-17,.cls-21{fill:#43bc97;}.cls-17,.cls-22,.cls-23,.cls-24,.cls-25{stroke:#19ac84;}.cls-17,.cls-19{stroke-width:0.5px;}.cls-18{clip-path:url(#clip-path-3);}.cls-20{clip-path:url(#clip-path-4);}.cls-22,.cls-23,.cls-28,.cls-33,.cls-36,.cls-37,.cls-46{stroke-width:3px;}.cls-26{clip-path:url(#clip-path-5);}.cls-27{fill:#9a6aad;}.cls-28,.cls-33,.cls-34{stroke:#8a58a4;}.cls-29{clip-path:url(#clip-path-6);}.cls-30{clip-path:url(#clip-path-7);}.cls-31{clip-path:url(#clip-path-8);}.cls-32{fill:#8a58a4;}.cls-35{clip-path:url(#clip-path-9);}.cls-36,.cls-37,.cls-43,.cls-46,.cls-48,.cls-50,.cls-51,.cls-52{stroke:#000;}.cls-38{clip-path:url(#clip-path-10);}.cls-39{fill:#feed4f;}.cls-40{clip-path:url(#clip-path-11);}.cls-41{clip-path:url(#clip-path-12);}.cls-42{clip-path:url(#clip-path-13);}.cls-44{clip-path:url(#clip-path-14);}.cls-45{clip-path:url(#clip-path-15);}.cls-49{stroke:#c3c3c3;}.cls-51{fill:#f26322;}</style><clipPath id="clip-path"><path class="cls-1" d="M38,741.69,521.5,715.3V386C272.12,312.25,242.33,570.76,22.75,525"/></clipPath><clipPath id="clip-path-2"><path class="cls-1" d="M75.53,821.69,559,795.3V466C264.06,342.69,245,741.69,60.25,605"/></clipPath><clipPath id="clip-path-3"><path class="cls-1" d="M387.1,146.88h17.52a28.24,28.24,0,0,1,28.24,28.24v16.19a0,0,0,0,1,0,0H358.74a0,0,0,0,1,0,0V175.24a28.36,28.36,0,0,1,28.36-28.36Z"/></clipPath><clipPath id="clip-path-4"><path class="cls-3" d="M403.59,661.07H389.11V254.51a80.76,80.76,0,0,0-30.37-63.19h74.13a81,81,0,0,0-29.27,62.33Z"/></clipPath><clipPath id="clip-path-5"><path class="cls-1" d="M141.89,708.56H109.53V272.33s-14.34-7.42-14.33-19.61c14.33-.06,26.25-.06,50.24,0,0,11.5-16.46,19.61-16.46,19.61L127.5,508C127,585.32,142.06,589,141.89,708.56Z"/></clipPath><clipPath id="clip-path-6"><path class="cls-1" d="M178.27,708.56h32.37V219.83S225,212.41,225,200.22c-14.32-.06-26.24-.06-50.24,0,0,11.5,16.46,19.61,16.46,19.61s0,12.5,1.48,248.2C193.15,545.32,178.27,559.48,178.27,708.56Z"/></clipPath><clipPath id="clip-path-7"><rect class="cls-1" x="128.58" y="342.57" width="63.01" height="18"/></clipPath><clipPath id="clip-path-8"><rect class="cls-1" x="127.58" y="438.73" width="63.01" height="18"/></clipPath><clipPath id="clip-path-9"><path class="cls-3" d="M258.51,197.64a69.26,69.26,0,0,0-21.69-38.7h72.37l-3.5,3.61a58.52,58.52,0,0,0-16.52,40.73V391.13c0,20.63,13.2,24.06,13.2,45.58V635.49H259.69V514.22Z"/></clipPath><clipPath id="clip-path-10"><polygon class="cls-2" points="351.62 315.74 294.46 315.74 286.64 306.55 359.44 306.55 351.62 315.74"/></clipPath><clipPath id="clip-path-11"><polygon class="cls-2" points="351.62 279.42 294.46 279.42 286.64 288.61 359.44 288.61 351.62 279.42"/></clipPath><clipPath id="clip-path-12"><polygon class="cls-2" points="351.47 376.48 294.32 376.48 286.5 367.29 359.29 367.29 351.47 376.48"/></clipPath><clipPath id="clip-path-13"><polygon class="cls-2" points="351.47 340.15 294.32 340.15 286.5 349.34 359.29 349.34 351.47 340.15"/></clipPath><clipPath id="clip-path-14"><polygon class="cls-2" points="352.47 252.99 295.32 252.99 287.5 243.8 360.29 243.8 352.47 252.99"/></clipPath><clipPath id="clip-path-15"><polygon class="cls-2" points="352.47 216.66 295.32 216.66 287.5 225.86 360.29 225.86 352.47 216.66"/></clipPath></defs><title>Asset 1</title><g id="Layer_2" data-name="Layer 2"><g id="Layer_1-2" data-name="Layer 1"><path class="cls-4" d="M92.92,632.87a25.17,25.17,0,0,1,47,1.77,33,33,0,0,1,50.11-.24,25.15,25.15,0,0,1,35.87-6.56,43.14,43.14,0,0,1,77.56,2.71,23.37,23.37,0,0,1,37.59,9.86A37.29,37.29,0,0,1,391,627.31a32.88,32.88,0,0,1,49.39-1.9l.12-.08a214.66,214.66,0,0,0-28.93-278.28,27.28,27.28,0,0,1-1.32-38.23,85.92,85.92,0,0,0-44.77-141.46,24.06,24.06,0,0,0-2.62-.37,33.09,33.09,0,0,1-30-33.79c0-1.54,0-3.09-.07-4.65a67.77,67.77,0,1,0-80,70l.12,0a16.93,16.93,0,0,1,13.18,22.56,85.45,85.45,0,0,0-5.42,30.07,87,87,0,0,0,1.39,15.5,19.1,19.1,0,0,1-17.16,22.5l-.2,0c-109,9.77-194.57,101-195.27,212.45a214.08,214.08,0,0,0,43.3,131A2.39,2.39,0,0,1,92.92,632.87Z"/><g class="cls-5"><path class="cls-6" d="M92.92,632.87a25.17,25.17,0,0,1,47,1.77,33,33,0,0,1,50.11-.24,25.15,25.15,0,0,1,35.87-6.56,43.14,43.14,0,0,1,77.56,2.71,23.37,23.37,0,0,1,37.59,9.86A37.29,37.29,0,0,1,391,627.31a32.88,32.88,0,0,1,49.39-1.9l.12-.08a214.66,214.66,0,0,0-28.93-278.28,27.28,27.28,0,0,1-1.32-38.23,85.92,85.92,0,0,0-44.77-141.46,24.06,24.06,0,0,0-2.62-.37,33.09,33.09,0,0,1-30-33.79c0-1.54,0-3.09-.07-4.65a67.77,67.77,0,1,0-80,70l.12,0a16.93,16.93,0,0,1,13.18,22.56,85.45,85.45,0,0,0-5.42,30.07,87,87,0,0,0,1.39,15.5,19.1,19.1,0,0,1-17.16,22.5l-.2,0c-109,9.77-194.57,101-195.27,212.45a214.08,214.08,0,0,0,43.3,131A2.39,2.39,0,0,1,92.92,632.87Z"/></g><g class="cls-7"><path class="cls-8" d="M92.92,632.87a25.17,25.17,0,0,1,47,1.77,33,33,0,0,1,50.11-.24,25.15,25.15,0,0,1,35.87-6.56,43.14,43.14,0,0,1,77.56,2.71,23.37,23.37,0,0,1,37.59,9.86A37.29,37.29,0,0,1,391,627.31a32.88,32.88,0,0,1,49.39-1.9l.12-.08a214.66,214.66,0,0,0-28.93-278.28,27.28,27.28,0,0,1-1.32-38.23,85.92,85.92,0,0,0-44.77-141.46,24.06,24.06,0,0,0-2.62-.37,33.09,33.09,0,0,1-30-33.79c0-1.54,0-3.09-.07-4.65a67.77,67.77,0,1,0-80,70l.12,0a16.93,16.93,0,0,1,13.18,22.56,85.45,85.45,0,0,0-5.42,30.07,87,87,0,0,0,1.39,15.5,19.1,19.1,0,0,1-17.16,22.5l-.2,0c-109,9.77-194.57,101-195.27,212.45a214.08,214.08,0,0,0,43.3,131A2.39,2.39,0,0,1,92.92,632.87Z"/></g><path class="cls-9" d="M202.39,494h-6.75c-10.2,17-39,17-39,17h-7C184.09,525.46,202.39,494,202.39,494Z"/><path class="cls-10" d="M192.31,498.33s-26.69-10.12-33.94-5.5c-3.89,2.47-3.28,11.55-3.28,18.13C179.93,513.47,192.31,498.33,192.31,498.33Z"/><polyline class="cls-9" points="163.01 513.99 158.97 516.79 162.26 520.58 156.98 516.73 160.65 513"/><ellipse class="cls-11" cx="162.9" cy="521.1" rx="1.19" ry="0.4" transform="translate(-285.3 209.33) rotate(-37.82)"/><ellipse class="cls-11" cx="161.54" cy="520.01" rx="1.55" ry="0.52" transform="translate(-284.91 208.26) rotate(-37.82)"/><ellipse class="cls-11" cx="160.3" cy="518.54" rx="1.86" ry="0.62" transform="translate(-284.27 207.2) rotate(-37.82)"/><path class="cls-12" d="M154.67,511h2s24-.42,36.06-13l-.38.41S180,514.78,154.67,511Z"/><rect class="cls-13" x="197.94" y="497.1" width="4.01" height="1.24" transform="translate(399.89 995.44) rotate(180)"/><rect class="cls-13" x="195.94" y="500.29" width="4.01" height="1.25" transform="translate(395.89 1001.83) rotate(180)"/><path class="cls-14" d="M165.51,495.83s-4,.22-4.34,1.94C163,496.94,165.51,495.83,165.51,495.83Z"/><line class="cls-15" x1="209.25" y1="503.36" x2="293.21" y2="503.36"/><line class="cls-15" x1="184.25" y1="516.86" x2="268.21" y2="516.86"/><line class="cls-15" x1="196.75" y1="509.36" x2="280.71" y2="509.36"/><circle class="cls-3" cx="42.94" cy="475.1" r="42.94"/><circle class="cls-3" cx="459.15" cy="356.51" r="48.23"/><circle class="cls-3" cx="49.39" cy="418.48" r="33.29"/><g id="Observatory"><path class="cls-16" d="M390.13,122.56v25.73a1.25,1.25,0,0,0,2.5,0V122.56a1.25,1.25,0,0,0-2.5,0Z"/><circle class="cls-17" cx="391.38" cy="122.56" r="3.19"/><path class="cls-16" d="M399,112.81v35.48a1.25,1.25,0,0,0,2.5,0V112.81a1.25,1.25,0,0,0-2.5,0Z"/><circle class="cls-17" cx="400.23" cy="112.73" r="3.19"/><g class="cls-18"><ellipse class="cls-19" cx="401.08" cy="172.03" rx="78.72" ry="60.39"/><circle class="cls-16" cx="433.61" cy="191.74" r="31.87"/><path class="cls-16" d="M455.86,187c-.28,16.13-10.2,30.9-25.6,36.37a38.63,38.63,0,1,1-5.15-74.2c17.93,3.71,30.44,19.74,30.75,37.83a1.25,1.25,0,0,0,2.5,0,41.13,41.13,0,1,0-33.92,40.48c19.63-3.44,33.58-20.8,33.92-40.48A1.25,1.25,0,0,0,455.86,187Z"/><path class="cls-16" d="M445.74,187.31c-.27,16.14-10.2,30.91-25.59,36.37a38.63,38.63,0,1,1-5.16-74.2c17.94,3.71,30.44,19.74,30.75,37.83a1.25,1.25,0,0,0,2.5,0,41.12,41.12,0,1,0-33.92,40.48c19.64-3.44,33.59-20.8,33.92-40.48A1.25,1.25,0,0,0,445.74,187.31Z"/></g><path class="cls-3" d="M403.59,661.07H389.11V254.51a80.76,80.76,0,0,0-30.37-63.19h74.13a81,81,0,0,0-29.27,62.33Z"/><g class="cls-20"><rect class="cls-21" x="349.81" y="172.16" width="107.2" height="38.32" transform="translate(71.5 -107.32) rotate(16.61)"/></g><path class="cls-16" d="M359,191.32c0-6.15-.29-12.3,1.22-18.32,2.55-10.16,9-19.36,18.84-23.51,1.46-.61.82-3-.66-2.41-9.29,3.92-15.87,11.66-19.3,21.07-2.76,7.56-2.6,15.26-2.6,23.17a1.25,1.25,0,0,0,2.5,0Z"/><path class="cls-16" d="M378.19,170.69c-.15,2.83-4.41,2.85-4.41,0s4.26-2.83,4.41,0c.09,1.6,2.59,1.61,2.5,0a4.71,4.71,0,1,0-4.89,4.7,4.79,4.79,0,0,0,4.89-4.7C380.78,169.08,378.28,169.09,378.19,170.69Z"/><path class="cls-22" d="M388.55,245.5a81,81,0,0,0-29.82-53.71h74.13a81,81,0,0,0-29.27,62.34V661.07H389.11V520.55"/><line class="cls-23" x1="389.11" y1="333.85" x2="389.11" y2="273.65"/><line class="cls-23" x1="389.11" y1="421.97" x2="389.11" y2="373.18"/><circle class="cls-24" cx="396.33" cy="321.55" r="3.84"/><circle class="cls-24" cx="396.33" cy="343.43" r="3.84"/><line class="cls-24" x1="396.33" y1="332.97" x2="396.33" y2="354.86"/><circle class="cls-24" cx="396.33" cy="364.6" r="3.84"/><line class="cls-25" x1="392.74" y1="406.1" x2="392.74" y2="590.48"/><line class="cls-25" x1="396.58" y1="422.83" x2="396.58" y2="582.64"/><line class="cls-25" x1="400.17" y1="431.17" x2="400.17" y2="592.23"/></g><g id="Tower_1" data-name="Tower 1"><g id="Left_Tower" data-name="Left Tower"><path class="cls-3" d="M141.89,708.56H109.53V272.33s-14.34-7.42-14.33-19.61c14.33-.06,26.25-.06,50.24,0,0,11.5-16.46,19.61-16.46,19.61L127.5,508C127,585.32,142.06,589,141.89,708.56Z"/><g class="cls-26"><path class="cls-27" d="M134.39,708.56H102V272.33s-14.34-7.42-14.33-19.61c14.33-.06,26.25-.06,50.24,0-.05,11.49-16.46,16.61-16.46,16.61s0,3-1.48,238.7C119.51,585.32,134.56,589,134.39,708.56Z"/></g><path class="cls-28" d="M109.53,309.4V272.33s-14.34-7.42-14.33-19.61c14.33-.06,26.25-.06,50.24,0,0,11.5-16.46,19.61-16.46,19.61s0,1.91-.4,70.24"/><line class="cls-28" x1="109.53" y1="419.82" x2="109.53" y2="360.57"/><path class="cls-28" d="M127.82,456.73c-.11,15.13-.21,33.93-.32,51.3-.49,77.29,14.56,81,14.39,200.53H109.53V532.92"/><path class="cls-28" d="M128.58,360.57c-.12,20.16-.41,47.39-.65,78.16"/></g><g id="Right_Tower" data-name="Right Tower"><path class="cls-3" d="M178.27,708.56h32.37V219.83S225,212.41,225,200.22c-14.32-.06-26.24-.06-50.24,0,0,11.5,16.46,19.61,16.46,19.61s0,12.5,1.48,248.2C193.15,545.32,178.27,559.48,178.27,708.56Z"/><g class="cls-29"><path class="cls-27" d="M170.77,708.56h32.37V217.33s14.33-4.92,14.32-17.11c-14.32-.06-26.24-.06-50.24,0,0,11.5,16.46,19.61,16.46,19.61s0,12.5,1.48,248.2C185.65,545.32,170.77,559.48,170.77,708.56Z"/></g><path class="cls-28" d="M192.64,478c-.78,68.88-14.37,88.14-14.37,230.6h32.37V219.83S225,212.41,225,200.22c-14.32-.06-26.24-.06-50.24,0,0,11.5,16.46,19.61,16.46,19.61s0,.79,0,5.72"/><path class="cls-28" d="M192.17,388.93c.12,20.12.26,42.62.42,67.79"/><path class="cls-28" d="M191.76,321.55c.07,11.64.15,24.59.23,39"/><path class="cls-28" d="M191.3,244.55c0,8.22.11,19.15.2,33.65"/></g><rect class="cls-27" x="120.93" y="346.71" width="22.62" height="9.8"/><g id="Top_Walk" data-name="Top Walk"><rect class="cls-3" x="128.58" y="342.57" width="63.01" height="18"/><g class="cls-30"><rect class="cls-27" x="121.08" y="342.57" width="63.01" height="18"/></g><polyline class="cls-28" points="156 360.57 149.78 360.57 143.55 360.57 136.62 360.57 126.08 360.57"/><polyline class="cls-28" points="178.88 342.57 191.59 342.57 191.59 360.57 179.95 360.57"/><line class="cls-28" x1="145.44" y1="342.57" x2="165.43" y2="342.57"/><line class="cls-28" x1="126.08" y1="342.57" x2="134.56" y2="342.57"/></g><g id="Bottom_Rect" data-name="Bottom Rect"><rect class="cls-3" x="128.58" y="438.73" width="63.01" height="18"/><g class="cls-31"><rect class="cls-27" x="121.08" y="438.73" width="63.01" height="18"/></g><line class="cls-28" x1="155.9" y1="456.73" x2="125.07" y2="456.73"/><line class="cls-28" x1="172.53" y1="456.73" x2="165.93" y2="456.73"/><polyline class="cls-28" points="169.65 438.73 191.34 438.73 191.34 456.73 181.15 456.73"/><line class="cls-28" x1="125.18" y1="438.73" x2="141.04" y2="438.73"/></g><g id="Wind_Turbine" data-name="Wind Turbine"><path class="cls-32" d="M108.3,232.91v19.77a1.25,1.25,0,0,0,2.5,0V232.91a1.25,1.25,0,0,0-2.5,0Z"/><circle class="cls-32" cx="109.55" cy="229.77" r="2.62"/><path class="cls-32" d="M110.92,229.77a1.37,1.37,0,0,1-2.74,0,1.37,1.37,0,0,1,2.74,0c.08,1.6,2.58,1.61,2.5,0a3.87,3.87,0,0,0-7.74,0,3.87,3.87,0,0,0,7.74,0C113.5,228.17,111,228.17,110.92,229.77Z"/><path class="cls-32" d="M108.9,226.84c-4.05-3-3.77-14.84-3.77-14.84S111,222.24,108.9,226.84Z"/><path class="cls-32" d="M109.79,226c-3.51-3-3.49-9.71-3.41-14l-2.33.64c2.1,3.68,5.29,9.59,3.65,13.87-.58,1.5,1.83,2.15,2.41.66,1.91-5-1.47-11.52-3.9-15.8a1.26,1.26,0,0,0-2.33.63c-.1,4.9.09,12.3,4.14,15.72C109.24,228.76,111,227,109.79,226Z"/><path class="cls-32" d="M112.62,230.84c4.65-2,14.73,4.15,14.73,4.15S115.55,235,112.62,230.84Z"/><path class="cls-32" d="M113,232c4.31-1.54,10.15,1.84,13.77,4l.63-2.33c-4.23,0-11-.21-13.85-3.79-1-1.25-2.76.53-1.76,1.77,3.31,4.13,10.73,4.49,15.61,4.52a1.26,1.26,0,0,0,.64-2.33c-4.21-2.54-10.7-6.07-15.7-4.28C110.78,230.17,111.43,232.59,113,232Z"/><path class="cls-32" d="M107.55,232.13c-5,.48-11,10.68-11,10.68S106.94,237.15,107.55,232.13Z"/><path class="cls-32" d="M107.22,230.92c-5.2.73-9.28,7.1-11.71,11.26a1.26,1.26,0,0,0,1.71,1.71c4.23-2.33,10.67-6.24,11.53-11.43.27-1.57-2.14-2.25-2.41-.66-.49,3-3.44,5.23-5.71,6.91a41.88,41.88,0,0,1-4.67,3l1.71,1.71c2.12-3.64,5.68-9.48,10.21-10.12C109.47,233.11,108.79,230.7,107.22,230.92Z"/></g><g id="Wind_Turbine-2" data-name="Wind Turbine"><path class="cls-32" d="M127.69,222.29v30.39a1.25,1.25,0,0,0,2.5,0V222.29a1.25,1.25,0,0,0-2.5,0Z"/><circle class="cls-32" cx="128.94" cy="219.15" r="2.62"/><path class="cls-32" d="M130.31,219.15a1.37,1.37,0,0,1-2.73,0,1.37,1.37,0,0,1,2.73,0c.09,1.6,2.59,1.61,2.5,0a3.87,3.87,0,1,0-4,3.86,3.93,3.93,0,0,0,4-3.86C132.9,217.54,130.4,217.54,130.31,219.15Z"/><path class="cls-32" d="M131.06,216.46c-.2-5.05,9.11-12.3,9.11-12.3S136,215.18,131.06,216.46Z"/><path class="cls-32" d="M132.31,216.46c.05-4.52,5.46-8.85,8.74-11.42L139,203.82c-1.45,3.77-4,10.12-8.23,11.44-1.53.48-.87,2.89.67,2.41,5.2-1.65,8.16-8.49,10-13.18.51-1.31-1.23-1.89-2.09-1.22-3.87,3-9.41,7.86-9.47,13.19A1.25,1.25,0,0,0,132.31,216.46Z"/><path class="cls-32" d="M130.32,221.87c4.48,2.35,6.1,14,6.1,14S129,226.75,130.32,221.87Z"/><path class="cls-32" d="M129.69,223c3.86,2.3,4.94,9.16,5.53,13.29l2.09-1.22c-2.54-3.15-6.7-8.54-5.79-12.82.34-1.57-2.07-2.24-2.41-.66-1.15,5.37,3.24,11.3,6.43,15.25.89,1.1,2.24-.15,2.09-1.22-.7-4.87-2.1-12-6.68-14.78A1.25,1.25,0,0,0,129.69,223Z"/><path class="cls-32" d="M126.11,218.76c-3.56-3.6-15.21-1.73-15.21-1.73S121.84,221.47,126.11,218.76Z"/><path class="cls-32" d="M127,217.87c-4.08-3.67-11.4-2.83-16.42-2.05-1.37.22-1,2,0,2.41,4.61,1.85,11.46,4.2,16.17,1.61,1.41-.78.15-2.94-1.26-2.16-4,2.18-10.36-.3-14.25-1.86v2.41c4-.63,10.74-1.52,14,1.41C126.42,220.71,128.19,219,127,217.87Z"/></g><g id="Wind_Turbine-3" data-name="Wind Turbine"><path class="cls-32" d="M189.76,180.41v19.77a1.25,1.25,0,0,0,2.5,0V180.41a1.25,1.25,0,0,0-2.5,0Z"/><circle class="cls-32" cx="191.01" cy="177.27" r="2.62"/><path class="cls-32" d="M192.38,177.27a1.37,1.37,0,0,1-2.73,0,1.37,1.37,0,0,1,2.73,0c.09,1.6,2.59,1.61,2.5,0a3.87,3.87,0,1,0-4,3.86,3.93,3.93,0,0,0,4-3.86C195,175.67,192.47,175.67,192.38,177.27Z"/><path class="cls-32" d="M188.77,175.36c-4.88-1.33-9-12.4-9-12.4S189,170.31,188.77,175.36Z"/><path class="cls-32" d="M189.11,174.16c-4.17-1.37-6.7-7.74-8.11-11.53l-2.09,1.22c3.25,2.6,8.61,7,8.61,11.51a1.25,1.25,0,0,0,2.5,0c0-5.33-5.5-10.21-9.34-13.28-.86-.69-2.58-.09-2.09,1.22,1.76,4.71,4.66,11.57,9.85,13.27C190,177.07,190.63,174.65,189.11,174.16Z"/><path class="cls-32" d="M193.7,177.71c3.6-3.57,15.23-1.58,15.23-1.58S198,180.46,193.7,177.71Z"/><path class="cls-32" d="M194.59,178.59c3.3-2.9,10-1.92,14-1.26v-2.41c-3.91,1.53-10.33,3.93-14.27,1.71a1.25,1.25,0,0,0-1.26,2.16c4.68,2.64,11.56.35,16.19-1.46,1-.39,1.36-2.18,0-2.41-5-.83-12.3-1.73-16.44,1.9C191.61,177.89,193.38,179.65,194.59,178.59Z"/><path class="cls-32" d="M189.47,180.78c-4.51,2.3-6.25,14-6.25,14S190.76,185.67,189.47,180.78Z"/><path class="cls-32" d="M188.83,179.7c-4.6,2.68-6.07,9.86-6.82,14.72-.16,1.08,1.2,2.3,2.09,1.22,3.23-3.93,7.67-9.81,6.57-15.2-.32-1.57-2.73-.9-2.41.67.87,4.29-3.35,9.64-5.92,12.76l2.09,1.22c.63-4.13,1.77-11,5.67-13.23A1.25,1.25,0,0,0,188.83,179.7Z"/></g><g id="Wind_Turbine-4" data-name="Wind Turbine"><path class="cls-32" d="M209.16,169.79v30.39a1.25,1.25,0,0,0,2.5,0V169.79a1.25,1.25,0,0,0-2.5,0Z"/><circle class="cls-32" cx="210.41" cy="166.65" r="2.62"/><path class="cls-32" d="M211.77,166.65a1.37,1.37,0,0,1-2.73,0,1.37,1.37,0,0,1,2.73,0c.09,1.6,2.59,1.61,2.5,0a3.87,3.87,0,1,0-4,3.86,3.93,3.93,0,0,0,4-3.86C214.36,165,211.86,165,211.77,166.65Z"/><path class="cls-32" d="M211.78,163.58c-1.88-4.7,4.49-14.64,4.49-14.64S216,160.74,211.78,163.58Z"/><path class="cls-32" d="M213,163.24c-1.44-4.33,2.1-10.1,4.37-13.67l-2.33-.63c-.12,4-.42,10.93-3.87,13.56-1.27,1,0,3.13,1.26,2.16,4.38-3.34,5-10.61,5.11-15.72a1.26,1.26,0,0,0-2.33-.63c-2.64,4.15-6.3,10.55-4.62,15.6C211.08,165.43,213.49,164.78,213,163.24Z"/><path class="cls-32" d="M212.87,168.92c5,.73,10.43,11.21,10.43,11.21S213.23,174,212.87,168.92Z"/><path class="cls-32" d="M212.54,170.13c4.47.86,7.74,6.91,9.68,10.63l1.71-1.71a38.66,38.66,0,0,1-4.44-3.19c-2.05-1.69-5-4.11-5.37-6.94-.19-1.57-2.69-1.59-2.5,0,.64,5.45,6.73,9.63,11,12.29,1.11.69,2.26-.64,1.71-1.71-2.24-4.3-6-10.79-11.18-11.78C211.63,167.42,211,169.83,212.54,170.13Z"/><path class="cls-32" d="M207.87,167.39c-4.55-2.21-14.92,3.42-14.92,3.42S204.74,171.36,207.87,167.39Z"/><path class="cls-32" d="M208.2,166.18c-4.92-2-11.55,1.22-15.88,3.55a1.26,1.26,0,0,0,.63,2.33c4.9.21,12.28.19,15.8-3.79,1.06-1.2-.7-3-1.77-1.77-3,3.43-9.8,3.25-14,3.06l.63,2.33c3.73-2,9.72-5,14-3.3C209,169.21,209.67,166.79,208.2,166.18Z"/></g><rect class="cls-27" x="115.93" y="442.96" width="22.62" height="9.8"/><path class="cls-33" d="M131.58,349h51.75a2.66,2.66,0,0,1,2.66,2.66v0a2.66,2.66,0,0,1-2.66,2.66H131.58a0,0,0,0,1,0,0V349a0,0,0,0,1,0,0Z"/><path class="cls-33" d="M132.08,445h51.75a2.66,2.66,0,0,1,2.66,2.66v0a2.66,2.66,0,0,1-2.66,2.66H132.08a0,0,0,0,1,0,0V445a0,0,0,0,1,0,0Z"/><path class="cls-34" d="M55.45,335.85H173.9a1.94,1.94,0,0,1,1.94,1.94v0a1.94,1.94,0,0,1-1.94,1.94H55.45a0,0,0,0,1,0,0v-3.89a0,0,0,0,1,0,0Z" transform="translate(-222.14 453.44) rotate(-90)"/><rect class="cls-34" x="108.45" y="408.87" width="14.4" height="3.89" transform="translate(-295.17 526.47) rotate(-90)"/><circle class="cls-34" cx="116.48" cy="566.54" r="3.44"/><circle class="cls-34" cx="116.48" cy="577.47" r="3.44"/><circle class="cls-34" cx="116.48" cy="555.39" r="3.44"/><path class="cls-34" d="M137.7,282.35H256.15a1.94,1.94,0,0,1,1.94,1.94v0a1.94,1.94,0,0,1-1.94,1.94H137.7a0,0,0,0,1,0,0v-3.89A0,0,0,0,1,137.7,282.35Z" transform="translate(-86.39 482.19) rotate(-90)"/><rect class="cls-34" x="190.7" y="355.37" width="14.4" height="3.89" transform="translate(-159.42 555.22) rotate(-90)"/><path class="cls-34" d="M159.44,406.34h75.24a1.94,1.94,0,0,1,1.94,1.94v0a1.94,1.94,0,0,1-1.94,1.94H159.44a0,0,0,0,1,0,0v-3.89A0,0,0,0,1,159.44,406.34Z" transform="translate(606.32 210.25) rotate(90)"/><circle class="cls-34" cx="197.23" cy="538.79" r="3.44"/><circle class="cls-34" cx="197.23" cy="549.72" r="3.44"/><circle class="cls-34" cx="197.23" cy="527.64" r="3.44"/></g><g id="Middle_Pink_Tower" data-name="Middle Pink Tower"><polyline class="cls-3" points="233.32 133.82 235.82 158.98 308.19 158.98 313.19 108.66 305.08 108.66 296.22 108.66 284.85 108.66 261.56 108.66 241.8 108.66 230.82 108.66 231.72 117.7"/><path class="cls-3" d="M258.51,197.64a69.26,69.26,0,0,0-21.69-38.7h72.37l-3.5,3.61a58.52,58.52,0,0,0-16.52,40.73V391.13c0,20.63,13.2,24.06,13.2,45.58V635.49H259.69V514.22Z"/><g class="cls-35"><path class="cls-2" d="M292.87,636.28H250.19l-21-478.12,70,1.57-4.16,3.9c-11.39,10.67-15.35,25.58-15.35,41.19V391.91c0,20.64,13.2,24.06,13.2,45.59Z"/></g><path class="cls-36" d="M257.51,198.42a69.27,69.27,0,0,0-21.69-38.69h72.37l-3.5,3.61a58.5,58.5,0,0,0-16.52,40.73V391.91c0,20.64,13.2,24.06,13.2,45.59V636.28H258.69V515"/><line class="cls-37" x1="258.69" y1="253.99" x2="258.69" y2="221.76"/><line class="cls-37" x1="258.69" y1="297.58" x2="258.69" y2="273.18"/><line class="cls-37" x1="258.69" y1="319.05" x2="258.69" y2="311.15"/><line class="cls-37" x1="258.69" y1="391.26" x2="258.69" y2="333.38"/><g id="Middle"><polygon class="cls-2" points="351.62 315.74 294.46 315.74 286.64 306.55 359.44 306.55 351.62 315.74"/><g class="cls-38"><rect class="cls-39" x="322.1" y="263.27" width="10.71" height="75.15" transform="translate(118.51 -91.68) rotate(19.4)"/><rect class="cls-39" x="336.93" y="263.43" width="5.36" height="75.15" transform="translate(119.25 -95.7) rotate(19.4)"/></g><polygon class="cls-2" points="351.62 279.42 294.46 279.42 286.64 288.61 359.44 288.61 351.62 279.42"/><g class="cls-40"><rect class="cls-39" x="329.41" y="241.62" width="10.71" height="75.15" transform="translate(111.73 -95.34) rotate(19.4)"/><rect class="cls-39" x="344.23" y="241.78" width="5.36" height="75.15" transform="translate(112.47 -99.36) rotate(19.4)"/></g><rect class="cls-37" x="282.89" y="288.39" width="75.01" height="18.38"/></g><rect class="cls-37" x="250.46" y="225.55" width="8.23" height="18.16"/><rect class="cls-37" x="250.46" y="273.18" width="8.23" height="18.16"/><rect class="cls-37" x="250.46" y="358.62" width="8.23" height="18.16"/><polyline class="cls-37" points="241.55 108.66 230.57 108.66 231.47 117.7"/><polyline class="cls-37" points="233.07 133.82 235.57 158.98 307.94 158.98 312.94 108.66 304.83 108.66 295.97 108.66 284.6 108.66 261.31 108.66"/><line class="cls-37" x1="219.82" y1="117.7" x2="324.2" y2="117.7"/><line class="cls-37" x1="222.32" y1="128.47" x2="321.7" y2="128.47"/><line class="cls-37" x1="224.57" y1="139.25" x2="318.95" y2="139.25"/><line class="cls-37" x1="227.32" y1="148.7" x2="316.7" y2="148.7"/><path class="cls-37" d="M266.31,72.32V67.47H277.2V93a27.1,27.1,0,0,0,5,15.68H261.31a25.82,25.82,0,0,0,5-15.27"/><line class="cls-37" x1="271.76" y1="67.47" x2="272.01" y2="40.93"/><g id="Middle-2" data-name="Middle"><polygon class="cls-2" points="351.47 376.48 294.32 376.48 286.5 367.29 359.29 367.29 351.47 376.48"/><g class="cls-41"><rect class="cls-39" x="321.96" y="324.01" width="10.71" height="75.15" transform="translate(138.67 -88.18) rotate(19.4)"/><rect class="cls-39" x="336.78" y="324.17" width="5.36" height="75.15" transform="translate(139.41 -92.21) rotate(19.4)"/></g><polygon class="cls-2" points="351.47 340.15 294.32 340.15 286.5 349.34 359.29 349.34 351.47 340.15"/><g class="cls-42"><rect class="cls-39" x="329.26" y="302.36" width="10.71" height="75.15" transform="translate(131.89 -91.84) rotate(19.4)"/><rect class="cls-39" x="344.09" y="302.52" width="5.36" height="75.15" transform="translate(132.64 -95.86) rotate(19.4)"/></g><rect class="cls-37" x="282.74" y="349.13" width="75.01" height="18.38"/><line class="cls-36" x1="317.87" y1="340.46" x2="303.31" y2="340.46"/><line class="cls-36" x1="315.88" y1="376.78" x2="347.43" y2="376.78"/></g><line class="cls-36" x1="346.99" y1="279.42" x2="332.42" y2="279.42"/><line class="cls-36" x1="300.52" y1="315.74" x2="332.07" y2="315.74"/><polyline class="cls-43" points="286.13 442.38 286.13 639.87 266.12 639.87 266.12 442.38"/><line class="cls-43" x1="271.51" y1="442.39" x2="271.51" y2="639.86"/><line class="cls-43" x1="276.47" y1="442.39" x2="276.47" y2="639.86"/><line class="cls-43" x1="281.48" y1="442.39" x2="281.48" y2="639.86"/><circle class="cls-43" cx="276.47" cy="428.8" r="6.51"/><path class="cls-43" d="M209,241.32H325.3a4.05,4.05,0,0,1,4.05,4.05v0a4.05,4.05,0,0,1-4.05,4.05H209a0,0,0,0,1,0,0v-8.11A0,0,0,0,1,209,241.32Z" transform="translate(23.78 514.54) rotate(-90)"/><path class="cls-43" d="M230.57,345.22H303.7a4.05,4.05,0,0,1,4.05,4.05v0a4.05,4.05,0,0,1-4.05,4.05H230.57a0,0,0,0,1,0,0v-8.11A0,0,0,0,1,230.57,345.22Z" transform="translate(618.43 80.11) rotate(90)"/><circle class="cls-43" cx="269.11" cy="308.66" r="6.51"/><circle class="cls-43" cx="250.46" cy="165.81" r="2.53"/><circle class="cls-43" cx="259.1" cy="165.9" r="2.53"/><circle class="cls-43" cx="284.6" cy="165.9" r="2.53"/><circle class="cls-43" cx="276.1" cy="165.9" r="2.53"/><circle class="cls-43" cx="267.6" cy="165.9" r="2.53"/><g id="Middle-3" data-name="Middle"><polygon class="cls-2" points="352.47 252.99 295.32 252.99 287.5 243.8 360.29 243.8 352.47 252.99"/><g class="cls-44"><rect class="cls-39" x="322.96" y="200.52" width="10.71" height="75.15" transform="translate(97.71 -95.52) rotate(19.4)"/><rect class="cls-39" x="337.78" y="200.68" width="5.36" height="75.15" transform="translate(98.46 -99.55) rotate(19.4)"/></g><polygon class="cls-2" points="352.47 216.66 295.32 216.66 287.5 225.86 360.29 225.86 352.47 216.66"/><g class="cls-45"><rect class="cls-39" x="330.26" y="178.87" width="10.71" height="75.15" transform="translate(90.94 -99.18) rotate(19.4)"/><rect class="cls-39" x="345.09" y="179.03" width="5.36" height="75.15" transform="translate(91.68 -103.21) rotate(19.4)"/></g><rect class="cls-37" x="283.74" y="225.64" width="75.01" height="18.38"/><line class="cls-36" x1="318.87" y1="216.97" x2="304.31" y2="216.97"/><line class="cls-36" x1="316.88" y1="253.3" x2="348.43" y2="253.3"/></g></g><line class="cls-3" x1="15.5" y1="594.68" x2="42.94" y2="594.68"/><line class="cls-22" x1="384.34" y1="282.93" x2="409.31" y2="282.93"/><line class="cls-22" x1="379.41" y1="288.92" x2="414.25" y2="288.92"/><line class="cls-22" x1="384.34" y1="294.91" x2="409.31" y2="294.91"/><line class="cls-22" x1="384.34" y1="387.86" x2="409.31" y2="387.86"/><line class="cls-22" x1="379.41" y1="393.85" x2="414.25" y2="393.85"/><line class="cls-22" x1="384.34" y1="399.84" x2="409.31" y2="399.84"/><ellipse class="cls-46" cx="165.43" cy="133.82" rx="1.87" ry="1.82" transform="translate(-41.36 183.95) rotate(-52.6)"/><ellipse class="cls-46" cx="414.25" cy="9.14" rx="1.82" ry="1.87" transform="translate(-0.05 2.86) rotate(-0.4)"/><ellipse class="cls-46" cx="490" cy="112.73" rx="1.87" ry="1.82" transform="translate(314.15 583.78) rotate(-82.48)"/><ellipse class="cls-47" cx="227.55" cy="323.01" rx="1.16" ry="1.13" transform="translate(-140.95 180.45) rotate(-33.69)"/><ellipse class="cls-47" cx="173.1" cy="386.01" rx="0.66" ry="0.65" transform="translate(-243.82 314.28) rotate(-56.09)"/><ellipse class="cls-47" cx="140.05" cy="406.03" rx="0.9" ry="0.88" transform="translate(-190.02 131.2) rotate(-31.19)"/><ellipse class="cls-47" cx="327.65" cy="530.74" rx="1.56" ry="1.52" transform="translate(-227.49 246.38) rotate(-31.19)"/><ellipse class="cls-47" cx="368.51" cy="442.34" rx="1.27" ry="1.3" transform="matrix(0.25, -0.97, 0.97, 0.25, -151.93, 688.54)"/><ellipse class="cls-47" cx="318.42" cy="191.79" rx="1.27" ry="1.3" transform="translate(-23.75 337.04) rotate(-54.06)"/><ellipse class="cls-46" cx="82.68" cy="348.96" rx="1.74" ry="1.69" transform="translate(-275.67 362.82) rotate(-78.89)"/><ellipse class="cls-46" cx="494.12" cy="528.66" rx="2.08" ry="2.14" transform="translate(-78.54 86.28) rotate(-9.25)"/><circle class="cls-46" cx="51.51" cy="470.47" r="5.73"/><circle class="cls-46" cx="438.76" cy="379.61" r="5.91"/><circle class="cls-47" cx="312.84" cy="452.91" r="1.61"/><circle class="cls-46" cx="441.29" cy="363.79" r="2.95"/><circle class="cls-46" cx="54.83" cy="451.88" r="4.89"/><circle class="cls-46" cx="40.97" cy="461.12" r="2.86"/><circle class="cls-47" cx="176.16" cy="473.19" r="3.63"/><circle class="cls-47" cx="243.07" cy="306.65" r="4.5"/><circle class="cls-47" cx="365.51" cy="266.65" r="2.14"/><circle class="cls-47" cx="359.75" cy="269.39" r="3.68"/><circle class="cls-47" cx="336.88" cy="553.16" r="3.24"/><path class="cls-48" d="M325.28,396.48H332c10.2,17,39,17,39,17h7.05C343.58,428,325.28,396.48,325.28,396.48Z"/><path class="cls-49" d="M335.36,400.83s26.69-10.12,33.94-5.5c3.89,2.47,3.27,11.55,3.27,18.13C347.74,416,335.36,400.83,335.36,400.83Z"/><polyline class="cls-48" points="364.66 416.49 368.7 419.29 365.4 423.08 370.69 419.23 367.02 415.5"/><ellipse class="cls-50" cx="364.77" cy="423.6" rx="0.4" ry="1.19" transform="translate(-193.52 452.02) rotate(-52.18)"/><ellipse class="cls-50" cx="366.13" cy="422.51" rx="0.52" ry="1.55" transform="matrix(0.61, -0.79, 0.79, 0.61, -192.13, 452.68)"/><ellipse class="cls-50" cx="367.37" cy="421.04" rx="0.62" ry="1.86" transform="translate(-190.49 453.08) rotate(-52.18)"/><path class="cls-51" d="M373,413.46h-2s-24-.42-36.06-13l.39.41S347.67,417.28,373,413.46Z"/><rect class="cls-52" x="325.72" y="399.6" width="4.01" height="1.24"/><rect class="cls-52" x="327.72" y="402.79" width="4.01" height="1.25"/><path class="cls-14" d="M362.16,398.33s4,.22,4.34,1.94C364.72,399.44,362.16,398.33,362.16,398.33Z"/><line class="cls-15" x1="318.42" y1="405.86" x2="234.46" y2="405.86"/><line class="cls-15" x1="343.42" y1="419.36" x2="259.46" y2="419.36"/><line class="cls-15" x1="330.92" y1="411.86" x2="246.96" y2="411.86"/></g></g></svg>