<svg xmlns="http://www.w3.org/2000/svg" viewBox="0 0 630.04 171.71"><defs><style>.cls-1{fill:#f3f3f4;}</style></defs><title>Asset 4</title><g id="Layer_2" data-name="Layer 2"><g id="Layer_1-2" data-name="Layer 1"><path class="cls-1" d="M0,32.49c6.3-4.66,25.1-6.67,32.23-2.88a42.1,42.1,0,0,1,34.25-17A42.45,42.45,0,0,1,97.67,25.92a37.48,37.48,0,0,1,48.83,2c4.1-9,13.68-15.36,24.84-15.36,11.88,0,22,7.18,25.55,17.14a37,37,0,0,1,53.66-.25A27.45,27.45,0,0,1,273.1,18.12,28.12,28.12,0,0,1,289,22.94C296.72,9.3,312.09,0,329.79,0c18.85,0,35,10.55,42.24,25.66a26,26,0,0,1,16.6-5.89c11,0,20.27,6.59,23.65,15.75a40.58,40.58,0,0,1,34.05-17.79,42,42,0,0,1,19.38,4.68,36.88,36.88,0,0,1,52.89-1.9,37.33,37.33,0,0,1,37.16-1.85A44.8,44.8,0,0,1,586.15,7c20.93,0,38.39,13.87,42.43,32.3a37.83,37.83,0,0,1,.88,8.15L630,169.28,0,171.71"/></g></g></svg>