<svg xmlns="http://www.w3.org/2000/svg" viewBox="0 0 630.04 198.68"><defs><style>.cls-1{fill:#c3c3c3;}.cls-2{fill:#f3f3f4;}.cls-3{fill:#fdfefe;}.cls-4{fill:#fff;}</style></defs><title>Asset 2</title><g id="Layer_2" data-name="Layer 2"><g id="Layer_1-2" data-name="Layer 1"><path class="cls-1" d="M549.78,23.47a40.42,40.42,0,0,0-60.93-4.81,32.88,32.88,0,0,0-34.7,1.85,32.87,32.87,0,0,0-49.38,1.9,37.31,37.31,0,0,0-49.89,13.11,23.36,23.36,0,0,0-37.59-9.86,43.15,43.15,0,0,0-77.57-2.72,25.17,25.17,0,0,0-35.87,6.56,33,33,0,0,0-50.1.25,25.18,25.18,0,0,0-47-1.78,33.26,33.26,0,0,0-45.59-2A38.56,38.56,0,0,0,0,29.61V198.68l630-2.43V15.11a58.78,58.78,0,0,0-39.74.52A56.1,56.1,0,0,0,575,24.49C571.21,17.54,556,13.75,549.78,23.47Z"/><path class="cls-2" d="M0,59.45c6.3-4.65,25.1-6.66,32.23-2.87a42.1,42.1,0,0,1,34.25-17A42.45,42.45,0,0,1,97.67,52.89a37.48,37.48,0,0,1,48.83,2c4.1-9,13.68-15.36,24.84-15.36,11.88,0,22,7.18,25.55,17.14a37,37,0,0,1,53.66-.25A27.45,27.45,0,0,1,273.1,45.09,28.12,28.12,0,0,1,289,49.91C296.72,36.27,312.09,27,329.79,27c18.85,0,35,10.55,42.24,25.66a26,26,0,0,1,16.6-5.89c11,0,20.27,6.59,23.65,15.75A40.58,40.58,0,0,1,446.33,44.7a42,42,0,0,1,19.38,4.68,36.88,36.88,0,0,1,52.89-1.9,37.33,37.33,0,0,1,37.16-1.85A44.8,44.8,0,0,1,586.15,34c20.93,0,38.39,13.87,42.43,32.3a37.83,37.83,0,0,1,.88,8.15L630,196.25,0,198.68"/><path class="cls-3" d="M630,106.92a36.11,36.11,0,0,0-.93-8.15c-4.26-18.43-22.68-32.29-44.76-32.29a48.72,48.72,0,0,0-32.06,11.63A40.91,40.91,0,0,0,534.36,74,40.32,40.32,0,0,0,513.09,80a40.4,40.4,0,0,0-55.79,1.9,46.17,46.17,0,0,0-20.45-4.69c-15.19,0-28.5,7.12-35.92,17.79-3.57-9.16-13.39-15.74-25-15.74a28.31,28.31,0,0,0-17.51,5.88C350.88,70,333.79,59.45,313.9,59.45c-18.67,0-34.88,9.3-43.07,23a30.81,30.81,0,0,0-16.73-4.83c-10,0-18.71,4.53-23.79,11.39a40.56,40.56,0,0,0-56.61.24c-3.79-10-14.42-17.14-26.95-17.14-11.78,0-21.88,6.34-26.2,15.37a40,40,0,0,0-27-10.11A40.47,40.47,0,0,0,69,85.37,46,46,0,0,0,36.13,72.06c-15,0-28.3,6.75-36.13,17"/><polygon class="cls-4" points="0 89.06 630.04 97.38 630.04 198.68 0 198.68 0 89.06"/></g></g></svg>