<svg id="Layer_1" data-name="Layer 1" xmlns="http://www.w3.org/2000/svg" viewBox="0 0 476.4 96.03"><defs><style>.cls-1{fill:#231f20;}</style></defs><title>bloomberg_logo</title><path class="cls-1" d="M12.54,12.42H22.89c9.46,0,13.64,3,13.64,9.06,0,5.28-4.18,8.86-12.54,8.86H12.54ZM0,72.14H25.38c13.34,0,26.68-4.78,26.68-20.11A16.76,16.76,0,0,0,36.83,35v-.2c7.27-2.19,12.24-7.46,12.24-15.43,0-12.84-10.95-17.72-21.6-17.72H0ZM12.54,41.09h12c10.15,0,14.93,2.58,14.93,10,0,9.26-9,10.35-15.43,10.35H12.54Z"/><path class="cls-1" d="M60.25,0H72.19V72.14H60.25Z"/><path class="cls-1" d="M92.12,48.25c0-7.47,5.27-14.33,14-14.33s14,6.87,14,14.33-5.27,14.33-14,14.33S92.12,55.72,92.12,48.25Zm-11.94,0c0,15,11.55,25.09,26,25.09s26-10.05,26-25.09-11.55-25.08-26-25.08S80.18,33.22,80.18,48.25Z"/><path class="cls-1" d="M149.48,48.25c0-7.47,5.28-14.33,14-14.33s14,6.87,14,14.33-5.27,14.33-14,14.33S149.48,55.72,149.48,48.25Zm-11.94,0c0,15,11.55,25.09,26,25.09s26-10.05,26-25.09-11.55-25.08-26-25.08S137.53,33.22,137.53,48.25Z"/><path class="cls-1" d="M196.78,24.36h11.35v7.47h.2c2.09-4.48,6.67-8.66,14.63-8.66,7.37,0,12.44,2.89,14.93,8.86,3.48-6.08,8.56-8.86,15.73-8.86,12.74,0,17.22,9.06,17.22,20.5V72.14H258.89V45.07c0-6-1.79-11.15-8.86-11.15-7.47,0-10.25,6.17-10.25,12.34V72.14H227.84V43.67c0-5.87-2.39-9.75-8.16-9.75-7.86,0-10.95,5.77-10.95,12.15V72.14H196.78Z"/><path class="cls-1" d="M320.13,48.25c0,7.47-5.28,14.33-14,14.33s-14-6.87-14-14.33,5.28-14.33,14-14.33S320.13,40.78,320.13,48.25ZM280.52,72.14h11.35V65h.2c3.48,5.77,9.75,8.36,16.42,8.36,14.73,0,23.59-10.95,23.59-25.09S322.62,23.17,309,23.17c-9,0-13.74,4.18-16.22,7.27h-.3V0H280.52Z"/><path class="cls-1" d="M349.42,43.48c.9-6.87,5.28-11.35,12.34-11.35,7.46,0,12,4.38,12.14,11.35Zm36.43,9V49.15c0-16.62-9.06-26-22.4-26-14.43,0-26,10.05-26,25.08s11.55,25.09,26,25.09a24.89,24.89,0,0,0,20.21-9.56l-8.56-6.47c-3,3.68-6.87,6.47-12.84,6.47-6.67,0-12-4.28-12.84-11.35Z"/><path class="cls-1" d="M393.64,24.36h11.94v7.57h.2a15.21,15.21,0,0,1,14.13-8.76,15.43,15.43,0,0,1,4.28.7V35.41a23.87,23.87,0,0,0-5.77-.9c-11.25,0-12.84,9.46-12.84,12V72.14H393.64Z"/><path class="cls-1" d="M450.91,33.92c8.66,0,14.13,5.77,14.13,14,0,8-5.37,14-14.23,14a13.79,13.79,0,0,1-14-13.84C436.78,39.69,442.55,33.92,450.91,33.92ZM465,24.36v7.17h-.2c-3.48-5.77-9.75-8.36-16.42-8.36-14.73,0-23.59,11-23.59,25.08,0,13.54,9.46,24.49,23.79,24.49,6,0,12.14-2.29,15.63-7h.2v3.48c0,9.46-3.58,16-15.13,16-6.67,0-11.65-2.49-16.43-6.87l-7.17,9.76c6.77,6,14.83,7.86,23.69,7.86,18.61,0,27-10.95,27-28.17V24.36Z"/></svg>