<?xml version="1.0" encoding="utf-8"?>
<!-- Generator: Adobe Illustrator 21.1.0, SVG Export Plug-In . SVG Version: 6.00 Build 0)  -->
<svg version="1.1" id="Layer_1" xmlns="http://www.w3.org/2000/svg" xmlns:xlink="http://www.w3.org/1999/xlink" x="0px" y="0px"
	 viewBox="0 0 384.3 133.7" style="enable-background:new 0 0 384.3 133.7;" xml:space="preserve">
<style type="text/css">
	.st0{fill:#D03027;}
	.st1{fill:#004977;}
</style>
<g>
	<path id="Icon_1_" class="st0" d="M252.7,96.7C252.7,96.7,252.7,96.7,252.7,96.7c-15.9,11.3-34.7,23.1-54.9,35.4l-0.8,0.5
		c-0.3,0.2-0.3,0.6-0.1,0.8c0.2,0.3,0.6,0.3,0.8,0.1l0.7-0.4c17.1-8.9,36.8-19.6,56.6-30.5c0.1-0.1,0.2-0.1,0.3-0.2
		C254.3,100.8,253.4,98.8,252.7,96.7z M356.8,12.4c-25-27.6-185.8-2.8-254.2,12.2l-1.6,0.3c-0.3,0.1-0.5,0.4-0.5,0.7
		c0.1,0.3,0.4,0.5,0.7,0.5l1.6-0.3c56.7-10.1,174.5-24.1,199.9,1.1c7.7,7.7,5.9,17.6-3.1,29.2c4.8,3.1,8.3,8,9.8,14.1
		C344.4,46.9,368,24.7,356.8,12.4z"/>
	<g id="Wordmark_1_">
		<path class="st1" d="M262.9,89.4c0.3,9.7,6.5,17.6,14.5,17.6c15.5,0,22.1-19,21.7-31.8c-0.3-9.7-6.6-17.7-14.6-17.7
			C271,57.7,262.4,76.6,262.9,89.4z M254.7,88.9c-0.6-16.6,12.4-33.5,31.2-33.5c12.6,0,20.8,8.4,21.3,21.3
			c0.6,17.5-11.5,33.5-31.2,33.5C263.4,110.2,255.1,101.8,254.7,88.9z"/>
		<path class="st1" d="M76.2,84.5c-0.7,0.3-1.5,0.5-2.6,0.7c-1.1,0.2-3,0.6-5.9,1c-2,0.3-3.3,0.7-4.1,1.3c-0.7,0.6-1.2,1.2-1.3,2
			c-0.2,0.9,0.1,1.5,0.9,2.1c0.8,0.5,2,0.8,3.8,0.8c1.3,0,2.6-0.2,3.9-0.6c1.3-0.4,2.4-1,3.2-1.7c0.6-0.5,1-1.2,1.4-2
			C75.6,87.6,75.9,86.4,76.2,84.5z M92.6,74.4c-0.1,1.5-0.3,2.9-0.7,5.2l-2.8,15.6c-0.2,1.4,0.3,2.5,1.6,3.2l-0.1,0.6l-15.9,0
			l-0.1-4c-2.3,1.4-5.1,2.6-7.6,3.3c-2.5,0.6-4.5,0.9-7.6,0.9c-5.1,0-8.1-0.5-10.1-2.3c-2.1-1.8-3.1-3-3-5.6
			c0.1-1.4,0.8-3.3,1.9-4.6c1.1-1.3,2.6-2.2,4.2-2.9c1.6-0.8,3.6-1.3,6.4-1.8c2.8-0.5,6.7-0.9,11.9-1.3c2.7-0.2,4.4-0.9,5.2-1.2
			c1.1-0.4,1.5-0.9,1.7-1.8c0.3-1.6-0.2-2.5-2.3-2.9c-5.7-1.1-16.4,0.7-22,2.1l3-8.1c7.3-1.1,14.1-1.7,21.3-1.7
			C89,66.9,92.7,70.2,92.6,74.4z"/>
		<path class="st1" d="M138.6,98.9l5.5-31.1h15.2l-5.5,31.1H138.6z M144.9,60.6c0.5-2.6,4.5-4.6,9-4.6c4.5,0,7.8,2.1,7.4,4.6
			c-0.5,2.6-4.5,4.6-9,4.6C147.7,65.3,144.5,63.2,144.9,60.6z"/>
		<path class="st1" d="M213.2,84.6c-0.7,0.2-1.6,0.5-2.6,0.7c-1.1,0.3-3,0.6-5.9,1c-2,0.3-3.3,0.7-4.1,1.3c-0.7,0.5-1.2,1.2-1.3,2
			c-0.2,0.9,0.2,1.6,0.9,2.1c0.8,0.5,2,0.8,3.8,0.8c1.3,0,2.6-0.2,3.9-0.6c1.3-0.4,2.4-1,3.2-1.7c0.6-0.5,1-1.2,1.4-2
			C212.6,87.7,212.9,86.5,213.2,84.6z M229.6,74.4c-0.1,1.5-0.3,2.9-0.8,5.2l-2.8,15.6c-0.2,1.4,0.3,2.5,1.5,3.2l-0.1,0.5l-15.9,0
			l-0.1-4c-2.3,1.4-5.1,2.6-7.6,3.3c-2.5,0.7-4.6,0.9-7.6,0.9c-5.1,0-8-0.5-10.1-2.3c-2.1-1.8-3.1-3-3-5.6c0.1-1.5,0.8-3.3,1.9-4.6
			c1.1-1.3,2.6-2.2,4.2-3c1.6-0.8,3.6-1.3,6.3-1.8c2.8-0.4,6.7-0.9,12-1.3c2.7-0.2,4.4-0.8,5.2-1.1c1.1-0.4,1.5-0.9,1.7-1.8
			c0.3-1.6-0.2-2.5-2.3-2.9c-5.7-1.1-16.4,0.7-22,2.1l3-8.1c7.3-1.1,14.1-1.8,21.3-1.8C226,67,229.7,70.2,229.6,74.4z"/>
		<path class="st1" d="M44.2,87.7c-4.9,1-7.7,1.4-12.6,1.4c-7.3,0-13-3.6-12.7-10.2c0.2-4.4,5.4-13.7,18.7-13.7
			c4.2,0,7.4,0.7,11.8,3.2l1.9-10.8c-6-2.3-9.9-2.6-15-2.5c-17.4,0.2-34,8.1-36.1,24.1C-1.9,95.5,18,99.6,26.8,99.6
			c5.1,0,10.4-0.2,15.4-0.7L44.2,87.7z"/>
		<path class="st1" d="M167.6,67.7l1.1-6.3l15.9-3.5l-1.7,9.8h7.8l-1.5,6.3l-7.5,0l-4.6,25c0,0-15.3-0.1-15.4,0l4.6-24.9h-5.8
			l1.2-6.3H167.6z"/>
		<polygon class="st1" points="245,98.9 229.5,98.9 237.3,55.6 252.4,56 		"/>
		<path class="st1" d="M118.5,75.1c-2,0-3.8,0.6-5.4,1.8c-1.6,1.2-2.6,3-3,5.3c-0.5,2.7-0.2,4.7,0.9,5.9c1.1,1.2,2.6,1.8,4.7,1.8
			c1.4,0,2.8-0.2,3.9-0.8c1.3-0.7,2.2-1.4,3-2.6c0.8-1.2,1.4-2.5,1.7-4.1c0.4-2.5,0.1-4.3-1.1-5.5C122,75.7,120.4,75.1,118.5,75.1z
			 M90.8,109.6L98.2,68h13.3l-1,5.3c1.2-1.6,3-2.9,5.6-4c2.6-1.1,5.5-1.8,8.6-1.8c3.5,0,5.6,0.2,8.2,1.5c2.6,1.4,4.4,3.3,5.4,5.9
			c1,2.5,1.2,5.4,0.7,8.5c-0.9,5.1-3.4,9.2-7.5,12.2c-4.1,3-7.7,3.8-13,3.8c-1.9,0-3.4-0.2-4.7-0.5c-1.3-0.3-2.3-0.7-3-1.2
			c-0.7-0.5-1.5-1.2-2.5-2.3l-2.5,14.3H90.8z"/>
		<path class="st1" d="M366.6,78.9c-0.1-2.5-1.3-4.2-3.9-4.2c-6.2,0-12.9,12.2-14,17.1C358.9,91.9,366.8,85.8,366.6,78.9z
			 M367.9,98.1l1.2,0.8c-3,6.2-9.2,11.2-16.5,11.2c-5.9,0-10.8-4-11.1-11.4c-0.5-13.3,12-25.7,22.2-25.7c4.4,0,8.4,1.9,8.6,6.6
			c0.4,10.6-14.5,13.8-24.3,14c-0.3,1.1-0.4,2.2-0.4,3.9c0.2,4.4,2.8,8.1,8.3,8.1C360.8,105.6,365.5,101.8,367.9,98.1z"/>
		<path class="st1" d="M307,78.6c1.1-0.1,2.8-0.3,3.5-0.3c1.1,0,2.2,0.2,2.2,1.3c0,0.7-1.2,5.4-1.4,6.5l-2.4,10.4
			c-1,4.3-2,8.8-2.9,12.3h6.1l3.4-16.6c10.4-10.9,14.5-14.4,16.9-14.4c1.1,0,1.9,0.6,1.9,1.9c0.1,1.9-1.1,6.3-1.5,7.5l-3.5,12.1
			c-0.8,2.7-1.4,5.2-1.3,6.9c0.1,2.7,1.7,3.8,4.1,3.8c4.4,0,7.7-4.6,10.5-9.2l-0.8-1.5c-1.1,1.8-3.8,5.8-5.9,5.8
			c-0.7,0-1.3-0.4-1.3-1.5c-0.1-1.4,0.5-3.5,0.9-4.9l3.9-14.1c1-3.9,1.5-6.4,1.5-7.7c-0.1-2.6-1.6-3.9-4-3.9c-4,0-9.3,2.9-20.6,15.9
			h-0.2l1.4-6.3c0.8-3.5,1.5-7.1,2.3-9.6c-3.9,1.4-9.5,3-12.9,3.6L307,78.6z"/>
	</g>
	<path id="Trademark_1_" class="st1" d="M373.3,67.3c0-3.1,2.5-5.4,5.5-5.4c2.9,0,5.5,2.3,5.5,5.4c0,3.1-2.5,5.4-5.5,5.4
		C375.8,72.8,373.3,70.5,373.3,67.3z M378.8,71.9c2.4,0,4.4-1.9,4.4-4.5c0-2.6-1.9-4.5-4.4-4.5c-2.5,0-4.4,1.9-4.4,4.5
		C374.4,70,376.3,71.9,378.8,71.9z M377.7,70.5h-1v-6.2h2.4c1.5,0,2.2,0.5,2.2,1.8c0,1.1-0.7,1.6-1.6,1.7l1.8,2.7h-1.1l-1.6-2.7
		h-1.1V70.5z M378.8,67c0.8,0,1.5-0.1,1.5-1c0-0.8-0.7-0.9-1.4-0.9h-1.3V67H378.8z"/>
</g>
</svg>
