<svg id="Layer_1" data-name="Layer 1" xmlns="http://www.w3.org/2000/svg" viewBox="0 0 1561 386"><defs><style>.cls-1{fill:#1f4479;}.cls-2{fill:#989898;}.cls-3{fill:#999;}.cls-4{fill:#4f4eb8;}.cls-5{fill:#fefefe;}.cls-6{fill:#fcfcfc;}</style></defs><title>clarity_logo</title><path class="cls-1" d="M988.39,148.44,1038.73,215c-15.25,0-29.5,0-43.75,0-2.43,0-2.93-1.9-3.91-3.31Q971.95,184.3,953,156.78c-1.86-2.72-3.83-4.07-7.23-4-5.48.07-11-.24-16.44-.64-3.08-.22-4.56.48-5.45,3.86-4.79,18.31-10,36.5-14.88,54.8-.87,3.27-2.15,4.41-5.67,4.33-12.14-.27-24.3-.1-37-.1,3.07-11.34,6-22.34,9-33.31q15.43-56.22,30.84-112.45c.87-3.2,2.05-4.49,5.61-4.57,27.92-.63,55.84-3.32,83.74.29a104.91,104.91,0,0,1,29.72,8c25,11.22,23.14,32.75,13.86,47.42-7.54,11.92-19.07,18.75-32,23.43A92,92,0,0,1,988.39,148.44Z"/><path class="cls-1" d="M175.94,309.93c16.82-35.75,33.57-71.53,50.56-107.19,1.79-3.75,1.59-6.42-.34-10q-31.87-59-63.38-118.1c-.76-1.42-2.8-2.78-.79-4.78,9.76-9.73,19.51-19.48,29.53-29.49l35.34,54.91c20.78,32.29,41.5,64.62,62.42,96.82,2.16,3.32,1.92,5-.86,7.77Q232.64,255.36,177.12,311.1C176.13,311.31,175.64,311,175.94,309.93Z"/><path class="cls-1" d="M856.74,215c-12.87,0-25.69-.06-38.51.05-2.43,0-3-1-3.44-3.14-1.77-8.12-3.93-16.16-5.6-24.3-.53-2.6-1.61-3.15-4-3.15q-37,.09-74,0a6.52,6.52,0,0,0-5.45,2.72c-7,8.23-14.25,16.29-21.24,24.55a8.24,8.24,0,0,1-7.13,3.39c-12.25-.23-24.51-.09-37.74-.09,9-10.12,17.4-19.51,25.81-28.85Q739.27,126.36,793.07,66.6c2.74-3,14.15-5.39,17.43-3.56,1,.54,1.15,1.54,1.43,2.49q22.5,74.16,45,148.31A5.13,5.13,0,0,1,856.74,215Z"/><path class="cls-1" d="M472.51,62.13c14.77.39,29.16,1.58,43.33,4.87,3.6.84,4.41,1.89,2.6,5.41-2.94,5.76-5.43,11.76-7.81,17.78-1.2,3-2.13,3.67-5.6,2.36-29.29-11-57.82-10.14-84.19,8-15.62,10.72-27.09,25-31.06,44.23-5.28,25.48,8.12,44.87,33.89,48.15,22.52,2.86,44.52.72,65.08-9.89,3.34-1.72,3.54-.35,3.43,2.4-.19,4.82-.67,9.69-.23,14.47.38,4.19-1.55,5.82-4.89,7.37-11.94,5.54-24.59,8.17-37.57,9.29-21,1.81-42,2.05-62.08-5.64-20.28-7.76-36.42-20.1-39.93-43.1A74.22,74.22,0,0,1,356.38,120c15.22-27.48,39.38-43.46,69-51.94C440.87,63.65,456.77,62.39,472.51,62.13Z"/><path class="cls-2" d="M139.81,94l-21.67,45.86c-8.67,18.34-17.3,36.71-26.06,55-1.29,2.69-1.06,4.79.36,7.43q32.95,61.06,65.75,122.2c1.53,2.83,1.44,4.49-.93,6.77-7.28,7-14.29,14.35-21.68,21.83-11.81-18.32-23.25-36.07-34.68-53.82q-31.62-49.12-63.29-98.22c-1.81-2.79-2.19-4.39.48-7q49.28-48.95,98.31-98.15c.81-.81,1.68-1.56,2.52-2.34Z"/><path class="cls-1" d="M1200.74,88.17h-65.07c-7.34,0-6.29.34-4.65-6,.17-.64.37-1.27.58-1.91,1.62-5,1.11-12.17,5-14.64s10.32-.76,15.64-.76c54,0,108,0,162-.12,4.66,0,5.34,1.22,3.81,5.2-1.19,3.09-1.94,6.35-2.86,9.54-2.51,8.7-2.5,8.7-11.71,8.7-18.5,0-37,.17-55.49-.12-4.75-.07-6.77,1.16-8.05,6-10.37,38.87-21.14,77.62-31.59,116.47-1,3.59-2.33,4.66-6,4.59-11.82-.24-23.65-.09-36.19-.09Z"/><path class="cls-1" d="M1517.19,64.83,1483.9,93.06q-31.25,26.47-62.54,52.9a13,13,0,0,0-4.37,7c-5.26,19.4-10.68,38.75-15.9,58.16-.75,2.77-1.59,4.1-4.87,4-11.94-.25-23.89-.1-36.17-.1,5.81-21.1,11.39-41.78,17.26-62.37a10.2,10.2,0,0,0-1.44-9.24Q1352,106.27,1328.32,69c-.7-1.1-1.35-2.23-2.1-3.47,1.19-1.14,2.56-.65,3.76-.66,11.16,0,22.32.09,33.48-.1a6.31,6.31,0,0,1,6.33,3.49c10.42,17.2,21.08,34.27,31.52,51.46,1.76,2.89,2.76,3.52,5.69.93,20.22-17.84,40.66-35.43,60.95-53.19a9.86,9.86,0,0,1,7.13-2.68c12.33.14,24.65.06,37,.06Z"/><path class="cls-1" d="M508.74,214.56l12.18-44.25c9.31-33.81,18.68-67.6,27.81-101.46.89-3.32,2.22-4.14,5.39-4.08,10.33.18,20.67.23,31,0,4.1-.1,5.41.31,4.08,5-10.83,38.56-21.36,77.2-32,115.82-1.62,5.89-1.62,5.89,4.29,5.89,30.17,0,60.33.12,90.5-.12,4.93,0,5.55,1.24,4.05,5.51-1.7,4.85-2.86,9.89-4.17,14.87-.55,2.09-1.17,3.34-3.9,3.33q-68.75-.18-137.5-.11A9.44,9.44,0,0,1,508.74,214.56Z"/><path class="cls-1" d="M1065.9,215h-14c-6.34,0-6.36,0-4.75-5.83q12.71-46.1,25.44-92.19c4.46-16.17,9-32.33,13.25-48.54.73-2.77,1.81-3.72,4.7-3.68,11,.17,22,.2,33,0,3.62-.07,3.56,1,2.73,4q-19.69,71-39.07,142.18c-.86,3.17-2,4.32-5.3,4.14C1076.57,214.79,1071.23,215,1065.9,215Z"/><path class="cls-2" d="M779.7,290.45c2.89-10.81,5.86-20.67,8.06-30.71,1.13-5.14,3.05-7.08,8.56-6.77,9.67.54,9.63.13,7.06,9.31-4.47,16-8.84,32-13.29,48.05-.49,1.77-.07,4.3-2.85,4.61s-5,0-7.05-2.47c-9.49-11.37-19.23-22.53-28.9-33.76a29.2,29.2,0,0,0-2.33-2.09c-2.66,9.75-5.22,19-7.68,28.23S738.89,314,729.4,314a21,21,0,0,0-2.5,0c-3.53.43-4.13-.76-3.16-4.2,5-17.59,9.65-35.26,14.48-52.9,1.26-4.6,6.85-5.67,10.42-1.77,6.29,6.87,12.33,14,18.48,21Z"/><path class="cls-2" d="M967.61,287.47,987.48,314c-6.36,0-11.74.05-17.12,0-2,0-2.62-1.83-3.56-3.16-4.3-6.14-8.91-12.09-12.77-18.5-2.79-4.63-6.83-3.2-10.56-3.3-3.49-.1-2.72,3.33-3.34,5.24-1.74,5.37-3.12,10.86-4.51,16.34-.61,2.4-1.6,3.75-4.38,3.49-4.28-.41-10.1,1.78-12.47-.89-2.18-2.45,1.3-7.68,2.35-11.66,3.9-14.79,8-29.52,12.09-44.26.49-1.77.45-4.23,3.36-4.16,13.6.32,27.31-2,40.75,1.79,5.78,1.65,11.37,3.9,12.55,10.63,1.22,7-2.27,12.11-7.82,16.11C977.89,284.59,973,285.8,967.61,287.47Z"/><path class="cls-2" d="M578.89,287.36,599,314c-6.15,0-11.39-.06-16.63,0-2,0-2.83-1.32-3.79-2.71-4.44-6.43-9.22-12.64-13.33-19.28-2.73-4.4-6.64-2.89-10.21-3.06s-2.86,3.16-3.48,5.14c-1.67,5.39-3.14,10.85-4.52,16.32-.6,2.38-1.48,3.82-4.31,3.62-4.3-.3-10.4,1.39-12.44-.82-2.25-2.42,1.28-7.83,2.39-11.91,4-14.9,8.18-29.77,12.19-44.68.51-1.9.9-3.6,3.31-3.57,12.78.15,25.61-1.51,38.3,1.1a31,31,0,0,1,6.13,2c9.93,4.35,11.93,14.15,4.54,22.2C592.41,283.54,586.09,285.59,578.89,287.36Z"/><path class="cls-3" d="M853.26,314c-8.5,0-17,0-25.5,0-2.56,0-4,0-3-3.45,5.14-18.07,10.08-36.2,14.95-54.34.66-2.44,1.86-3.15,4.2-3.14q26,.08,52,0c2.88,0,3,.93,2.59,3.61-.79,4.81-2.8,6.54-7.88,6.31-10.15-.46-20.33.09-30.49-.25-4.14-.14-5.77,1.19-6.74,5.17-2.09,8.58-2.33,8.58,6.36,8.76,5.33.11,10.67-.14,16,.12,1.58.08,4.35-1.68,4.78,1.59.46,3.48-2.47,7.42-5.34,7.44-7.33.07-14.68.26-22-.07-3.74-.17-5.42,1.12-6.09,4.67a66,66,0,0,1-2.54,9.63c-1.25,3.57-.32,4.76,3.48,4.7,10.5-.17,21-.12,31.5,0,1.62,0,4.92-1.24,4.24,2.17-.52,2.62.33,7-4.51,7C870.59,314,861.92,314,853.26,314Z"/><path class="cls-2" d="M387.18,292.45h-1c-11.05-.13-11.05-.13-14,10.68s-3,10.63-14.13,11c-5,.16-5.3-1.45-4.08-5.59,5.07-17.2,9.92-34.47,14.81-51.73.51-1.8.68-3.72,3.17-3.76,13.24-.22,26.55-1.87,39.6,1.86,7.32,2.1,13.23,5.66,14.33,14,.94,7.11-2.9,13.37-10.71,17.55C406.44,291.15,396.93,292.37,387.18,292.45Z"/><path class="cls-2" d="M424.05,314c10.25-11.46,19.75-22.11,29.3-32.72,8-8.91,16.19-17.68,24.08-26.7a6.52,6.52,0,0,1,6.07-2.43c2.87.23,2.66,2.73,3.19,4.44,5.49,17.79,10.77,35.64,16.33,53.4,1.11,3.55.13,4.43-3.19,4a25.18,25.18,0,0,0-3,0c-9.23,0-9.34,0-11.78-9-.67-2.49-1.88-3.13-4.2-3.11q-13.24.11-26.48,0c-2.05,0-3.68.6-4.63,2.32-4.93,8.85-12.61,11.39-22.14,9.85A29.43,29.43,0,0,0,424.05,314Z"/><path class="cls-2" d="M1074.58,254.36c-.18,2.88-2,5-2.87,7.46-.93,2.74-2.32,3.49-5.21,2.25a30.52,30.52,0,0,0-17.65-1.64c-3.21.57-6.83,1.3-7.77,5.26-1,4.22,2.47,5.95,5.16,7.66,5.33,3.38,10.93,6.35,16.37,9.56a17.16,17.16,0,0,1,7.75,8.83c2.24,6-.75,12.4-7.57,16-10.92,5.82-22.69,5.85-34.55,4.76-3.45-.32-6.84-1.3-10.27-1.92-3.23-.58-3.68-2.21-2-4.83a13.22,13.22,0,0,0,1.56-3.12c1-3.21,2.68-3.82,5.91-2.51a37.84,37.84,0,0,0,23.49,1.7c2.92-.7,6.12-1.7,6.83-5.08.77-3.64-2.33-5.3-4.85-6.79-5.58-3.29-11.41-6.17-17-9.48-11.33-6.73-11-19.32.59-25.73,7.38-4.07,15.5-5,23.7-4.58C1062.34,252.5,1068.51,252.79,1074.58,254.36Z"/><path class="cls-2" d="M1425.72,315c-7.45.24-14.36-.47-20.85-3.47-11.81-5.47-16.38-14.61-13.42-27.32,3.53-15.12,14.05-23.78,28-28.63,12.18-4.25,24.76-4.27,37.42-1.92,3.41.63,4.37,1.75,2.47,4.79a10,10,0,0,0-1.22,2.72c-.85,3.27-2.47,3.71-5.71,2.64-15.8-5.25-31.25-.26-40.22,12.69a22.3,22.3,0,0,0-4.29,12.55c-.14,8.54,4.81,14.7,13.36,15.88,8.33,1.15,16.6.61,24.42-2.78,3-1.3,4-1.64,4.12,2.58.2,5.34-2.74,6.94-6.7,8C1437.28,314.3,1431.39,315.37,1425.72,315Z"/><path class="cls-3" d="M666.86,253.12c10.65,0,21.31-.1,32,.11,1.5,0,4.34-1.81,4.68,1.55.4,3.88-2.43,8-5.3,8.07-6.66.08-13.34.39-20-.09-4.66-.34-6.23,1.52-7.29,5.7-3.46,13.68-7.39,27.24-10.95,40.9-.87,3.35-2.1,5.2-6,4.73s-9.18,1.15-11-.81c-2.09-2.25,1.1-7,2-10.6q4.61-17.58,9.61-35.06c1-3.4.9-5.07-3.5-4.82-6.8.38-13.65,0-20.46.16-3.19.1-3.29-.92-2.8-3.73.84-4.81,3-6.42,8-6.22C646.21,253.42,656.54,253.12,666.86,253.12Z"/><path class="cls-3" d="M1330.71,314c-8.49,0-17-.07-25.48,0-2.74,0-3.4-.62-2.6-3.45q7.51-26.62,14.65-53.35c.82-3.06,2.19-4.2,5.49-4.2,12.27,0,12.32-.12,9.08,11.86-3.12,11.55-6.14,23.13-9.68,34.55-1.49,4.81-.12,5.5,4.31,5.37,10-.29,20-.19,30,0,1.66,0,5.25-1.68,4.8,1.79-.38,2.92.39,7.73-5.57,7.48C1347.37,313.73,1339,314,1330.71,314Z"/><path class="cls-2" d="M1250,253.12c-3.22,11.84-6.3,23.19-9.4,34.53-1.22,4.49-2.28,9-3.78,13.43-1.07,3.13,0,3.71,2.85,3.68,10.66-.1,21.32-.12,32,0,1.61,0,4.35-1.57,4.86,1.53.59,3.52-2.54,7.63-5.51,7.64-7.33,0-14.66,0-22,0-9.49,0-19-.07-28.48,0-2.84,0-3.77-.44-2.87-3.63q7.49-26.37,14.52-52.88c.86-3.21,2.17-4.82,5.79-4.49C1241.78,253.4,1245.61,253.12,1250,253.12Z"/><path class="cls-3" d="M1114.79,301.48c4.9.18,9.51.77,11.67,5.12s.58,8.53-2,12.2c-3.87,5.45-9.49,8.72-15.33,11.64-2.78,1.39-4.16-.84-5.3-2.4-1.72-2.36,1.25-2.47,2.28-3.3,2-1.57,4-2.94,5.2-5.26,1.23-2.48,1.34-4.77-1.15-6.63-2.14-1.6-5.93-2.38-4.8-6,1.18-3.8,4.91-4.6,8.46-5.14C1114.28,301.6,1114.76,301.49,1114.79,301.48Z"/><path class="cls-4" d="M175.94,309.93l1.18,1.17a5.48,5.48,0,0,1-2.76,2.72A4.6,4.6,0,0,1,175.94,309.93Z"/><path class="cls-5" d="M949.47,130c-5.16,0-10.32-.08-15.47,0-2.4.05-2.78-.75-2.16-3,3.42-12.16,6.74-24.34,10-36.53.37-1.36.61-2.42,2.39-2.59,16.51-1.58,33-1.8,49,3.33,12.69,4.08,15.77,17.75,6.59,27a28.41,28.41,0,0,1-9.18,5.88c-8.85,3.81-18.26,5-27.72,5.71-4.46.35-9,.06-13.46.06Z"/><path class="cls-5" d="M745.32,164.48,788.68,112c.63-.76,1.3-1.47,2.62-3,1.86,8,3.58,15.3,5.24,22.6,2.24,9.88,4.42,19.79,6.67,29.67.39,1.72,1.07,3.23-1.81,3.22C783.11,164.45,764.82,164.48,745.32,164.48Z"/><path class="cls-5" d="M955.65,262.34c5.14.12,9.09.41,12.92,1.62,2.74.86,4.86,2.42,5.18,5.42a6.77,6.77,0,0,1-4,6.93c-7.37,3.7-15.4,3.62-23.38,3.44-1.78,0-2-1.25-1.55-2.84,1.14-4,1.83-8.13,3.32-12C949.76,260.77,953.8,262.91,955.65,262.34Z"/><path class="cls-5" d="M568.09,262.43c4.38.07,8.37.17,12.14,1.56,5.8,2.15,6.92,8.05,1.81,11.49-7.38,5-16,4.56-24.47,4.19-1.92-.08-1.65-1.71-1.31-3,.58-2.24,1.22-4.46,1.81-6.7C560.13,262,560.26,261.92,568.09,262.43Z"/><path class="cls-5" d="M392.56,262.14a22.44,22.44,0,0,1,9.36,1c3.72,1.26,6.56,3.45,7,7.61s-2.06,7.07-5.46,8.78c-7.21,3.64-15.06,3.72-22.91,3.31-1.62-.09-2.25-.95-1.74-2.71q2.2-7.65,4.13-15.38a3,3,0,0,1,3.18-2.54C388.24,262.1,390.4,262.14,392.56,262.14Z"/><path class="cls-6" d="M477.25,271.28c1.71,7.2,3.16,13.27,4.58,19.35.48,2.05-.2,3.14-2.49,3.12-6.27-.06-12.54,0-20.4,0Z"/></svg>