<?xml version="1.0" encoding="UTF-8" standalone="no"?>
<!-- Created with Inkscape (http://www.inkscape.org/) -->

<svg
   xmlns:dc="http://purl.org/dc/elements/1.1/"
   xmlns:cc="http://creativecommons.org/ns#"
   xmlns:rdf="http://www.w3.org/1999/02/22-rdf-syntax-ns#"
   xmlns:svg="http://www.w3.org/2000/svg"
   xmlns="http://www.w3.org/2000/svg"
   version="1.1"
   width="892.91339"
   height="428.03149"
   id="svg12546"
   xml:space="preserve"><metadata
     id="metadata12552"><rdf:RDF><cc:Work
         rdf:about=""><dc:format>image/svg+xml</dc:format><dc:type
           rdf:resource="http://purl.org/dc/dcmitype/StillImage" /><dc:title></dc:title></cc:Work></rdf:RDF></metadata><defs
     id="defs12550"><clipPath
       id="clipPath12670"><path
         d="m 150.668,2008.78 600.954,0 0,285.219 -600.954,0 0,-285.219 z"
         id="path12672" /></clipPath></defs><g
     transform="matrix(1.25,0,0,-1.25,14.004385,756.87046)"
     id="g12554"><g
       transform="matrix(1.1792276,0,0,1.1809607,-186.04085,-2106.4228)"
       id="g12666"><g
         clip-path="url(#clipPath12670)"
         id="g12668"><g
           id="g14828"><g
             transform="translate(293.5305,2177.3938)"
             id="g12674"
             style="fill:#003e7e;fill-opacity:1"><path
               d="M 0,0 C 1.111,-0.55 1.232,-0.54 2.194,-1.237 L 22.197,20.915 C 15.702,27.87 9.348,32.463 0.592,36.435 c -3.254,1.452 -4.249,1.963 -7.781,2.971 L -2.404,0.964 c 0,0 1.568,-0.552 2.404,-0.964"
               id="path12676"
               style="fill:#003e7e;fill-opacity:1;fill-rule:nonzero;stroke:none" /></g><g
             transform="translate(226.8483,2213.2683)"
             id="g12678"
             style="fill:#003e7e;fill-opacity:1"><path
               d="m 0,0 35.829,-34.865 c 0,0 1.352,0.694 1.926,0.916 1.118,0.427 2.3,0.696 2.3,0.696 l 3.472,39.75 C 39.908,6.958 37.665,7.111 33.801,7.251 24.919,7.558 12.524,5.779 4.372,2.169 1.437,0.986 0,0 0,0"
               id="path12680"
               style="fill:#003e7e;fill-opacity:1;fill-rule:nonzero;stroke:none" /></g><g
             transform="translate(205.5853,2055.1274)"
             id="g12682"
             style="fill:#003e7e;fill-opacity:1"><path
               d="m 0,0 c -0.14,14.846 -3.108,36.471 -5.65,45.487 -1.563,5.549 -13.748,42.561 -14.097,43.954 -0.236,0.938 -0.649,10.699 -0.986,19.362 -5.805,-16.158 -8.694,-34.881 -8.694,-54.981 0,-0.003 0,-0.006 0,-0.015 0,-32.499 8.385,-61.777 24.428,-82.389 4.694,12.082 4.729,21.432 4.99,28.375 C -0.009,-0.139 0,-0.075 0,0"
               id="path12684"
               style="fill:#003e7e;fill-opacity:1;fill-rule:nonzero;stroke:none" /></g><g
             transform="translate(249.0352,2052.0913)"
             id="g12686"
             style="fill:#003e7e;fill-opacity:1"><path
               d="M 0,0 C 13.904,11.935 22.293,16.027 37.095,23.653 15.213,19.131 -9.769,4.323 -23.262,-12.956 c -9.125,-11.646 -15.166,-21.903 -15.447,-22.367 2.027,-1.377 4.154,-2.543 6.43,-3.568 C -22.706,-20.752 -8.763,-7.502 0,0"
               id="path12688"
               style="fill:#003e7e;fill-opacity:1;fill-rule:nonzero;stroke:none" /></g><g
             transform="translate(216.5863,2207.6899)"
             id="g12690"
             style="fill:#003e7e;fill-opacity:1"><path
               d="m 0,0 c -1.365,-0.887 -1.85,-1.599 -2.286,-2.048 6.325,-16.299 14.976,-37.906 17.125,-43.963 0.279,-0.781 0.56,-1.63 0.824,-2.489 l 14.325,-7.311 0.231,0.154 c 0,0 -0.149,2.03 -0.163,2.639 -0.025,0.532 0.399,2.582 0.399,2.582 L 2.287,1.279 C 1.407,0.881 1.086,0.702 0,0"
               id="path12692"
               style="fill:#003e7e;fill-opacity:1;fill-rule:nonzero;stroke:none" /></g><g
             transform="translate(252.9359,2046.3142)"
             id="g12694"
             style="fill:#003e7e;fill-opacity:1"><path
               d="m 0,0 c -14.898,-14.3 -24.946,-31.83 -27.916,-36.153 1.525,-0.464 3.112,-0.928 4.788,-1.381 32.504,57.871 84.189,70.894 113.301,72.088 0.375,1.628 0,-0.378 0.343,2.421 C 70.526,37.367 32.384,30.352 0,0"
               id="path12696"
               style="fill:#003e7e;fill-opacity:1;fill-rule:nonzero;stroke:none" /></g><g
             transform="translate(317.5886,2160.3672)"
             id="g12698"
             style="fill:#003e7e;fill-opacity:1"><path
               d="M 0,0 C 0.184,-0.183 0.275,-0.267 0.504,-0.642 L 18.259,6.96 C 16.07,12.316 13.434,17.86 10.55,22.527 L -0.861,0.724 C -0.537,0.522 -0.19,0.193 0,0"
               id="path12700"
               style="fill:#003e7e;fill-opacity:1;fill-rule:nonzero;stroke:none" /></g><g
             transform="translate(326.0654,2132.1885)"
             id="g12702"
             style="fill:#003e7e;fill-opacity:1"><path
               d="m 0,0 c -0.522,-1.755 -1.852,-3.981 -1.852,-3.981 l 1.13,-13.504 14.484,-23.943 4.329,-0.727 c 0.63,6.293 0.995,12.272 0.995,18.916 0,14.506 -0.453,27.097 -3.466,39.726 L 0.848,4.12 C 0.848,4.12 0.45,1.564 0,0"
               id="path12704"
               style="fill:#003e7e;fill-opacity:1;fill-rule:nonzero;stroke:none" /></g><g
             transform="translate(362.3815,2171.5994)"
             id="g12706"
             style="fill:#003e7e;fill-opacity:1"><path
               d="m 0,0 -36.316,-27.948 c -0.596,4.529 -2.106,8.555 -4.443,11.58 L -0.2,0.342 c 0,0 0.27,0.116 0.336,-0.013 C 0.204,0.199 0,0 0,0"
               id="path12708"
               style="fill:#003e7e;fill-opacity:1;fill-rule:nonzero;stroke:none" /></g><g
             transform="translate(225.7645,2206.6414)"
             id="g12710"
             style="fill:#003e7e;fill-opacity:1"><path
               d="M 0,0 C 0,0 -0.109,0.147 0.053,0.256 0.204,0.362 0.311,0.207 0.311,0.207 L 31.178,-31.41 c -2.936,-1.652 -6.046,-5.68 -7.327,-9.319"
               id="path12712"
               style="fill:#003e7e;fill-opacity:1;fill-rule:nonzero;stroke:none" /></g><g
             transform="translate(243.7275,2147.4702)"
             id="g12714"
             style="fill:#003e7e;fill-opacity:1"><path
               d="m 0,0 c 0,0 -0.808,-1.76 -0.88,-3.744 -0.08,-2.144 0.632,-4.177 0.632,-4.177 l -9.328,6.422 C -9.465,0.69 -9.654,1.233 -9.79,3.107 -9.803,3.3 -10.064,5.603 -10.112,5.88"
               id="path12716"
               style="fill:#003e7e;fill-opacity:1;fill-rule:nonzero;stroke:none" /></g><g
             transform="translate(229.0676,2077.0486)"
             id="g12718"
             style="fill:#003e7e;fill-opacity:1"><path
               d="m 0,0 c -1.197,-11.077 -3.903,-20.696 -7.962,-27.573 -2.606,-4.433 -9.93,-13.389 -12.495,-16.777 2.778,5.535 4.926,18.896 4.748,29.295 -0.114,6.75 -2.167,21.64 -0.387,31.507 1.934,10.586 4.929,16.55 12.024,23.062 3.613,3.335 11.008,7.584 21.572,4.713 l 8.531,-16.079 c -4.567,0.875 -10.609,0.092 -14.64,-3 C 3.812,19.316 1.269,11.479 0,0"
               id="path12720"
               style="fill:#003e7e;fill-opacity:1;fill-rule:nonzero;stroke:none" /></g><g
             transform="translate(229.897,2055.2043)"
             id="g12722"
             style="fill:#003e7e;fill-opacity:1"><path
               d="m 0,0 c 2.088,4.671 4.819,18.009 5.588,22.469 0.98,5.732 1.902,14.087 8.716,19.709 3.351,2.773 8.845,3.131 11.037,2.487 l 9.664,-19.689 c 0.865,-2.099 3.703,-2.82 5.604,-2.698 C 31.55,19.321 8.728,8.474 0,0"
               id="path12724"
               style="fill:#003e7e;fill-opacity:1;fill-rule:nonzero;stroke:none" /></g><g
             transform="translate(312.1101,2118.0625)"
             id="g12726"
             style="fill:#003e7e;fill-opacity:1"><path
               d="m 0,0 c -1.542,-2.43 -0.996,-4.752 -0.13,-6.384 0.975,-1.83 6.091,-11.289 6.091,-11.289 1.623,-4.286 2.87,-6.443 4.404,-9.21 2.773,0 5.776,0.07 8.942,0 C 15.931,-19.301 8.218,-4.677 8.218,-4.677 L 7.131,6.874 C 4.872,5.524 1.569,2.425 0,0"
               id="path12728"
               style="fill:#003e7e;fill-opacity:1;fill-rule:nonzero;stroke:none" /></g><g
             transform="translate(277.7609,2239.0259)"
             id="g12730"
             style="fill:#003e7e;fill-opacity:1"><path
               d="m 0,0 -5.011,-58.029 c 3.342,0.599 10.785,-0.427 12.609,-1.255 L 0.315,0 C 0.315,0 0.293,0.2 0.15,0.2 0.013,0.2 0,0 0,0"
               id="path12732"
               style="fill:#003e7e;fill-opacity:1;fill-rule:nonzero;stroke:none" /></g><g
             transform="translate(197.3685,2226.7832)"
             id="g12734"
             style="fill:#003e7e;fill-opacity:1"><path
               d="m 0,0 c -0.233,0.68 -0.712,2.525 -1.504,2.872 -0.864,0.391 -2.721,1.413 -3.825,1.855 -0.955,0.377 -2.66,2.186 -3.461,2.186 -3.814,0 -8.194,1.273 -9.696,2.316 -1.614,-3.119 -0.499,-4.882 0.942,-6.332 1.157,-1.153 4.247,-2.098 7.251,-2.329 l 0.805,-17.199 c 0.813,-1.28 3.348,-2.081 5.54,-2.197 l 0,-0.573 -2.998,-2.2 c 0.111,-1.96 2.766,-58.061 3.346,-59.093 0.575,-1.044 14.184,-42.62 14.54,-45.159 0.968,4.787 5.258,15.208 10.104,19.952 4.961,4.839 11.012,6.96 14.7,6.845 -0.808,0.926 -4.957,10.625 -5.073,11.549 -0.114,0.926 -1.727,13.038 -2.19,13.849 C 28.02,-72.846 0.23,-0.702 0,0"
               id="path12736"
               style="fill:#003e7e;fill-opacity:1;fill-rule:nonzero;stroke:none" /></g><g
             transform="translate(336.4435,2211.6741)"
             id="g12738"
             style="fill:#003e7e;fill-opacity:1"><path
               d="m 0,0 -35.681,-38.301 c 2.381,-1.452 8.438,-6.07 10.914,-8.425 L 0.263,-0.18 c 0,0 0.09,0.178 0.011,0.25 C 0.18,0.141 0,0 0,0"
               id="path12740"
               style="fill:#003e7e;fill-opacity:1;fill-rule:nonzero;stroke:none" /></g><g
             transform="translate(301.093,2150.635)"
             id="g12742"
             style="fill:#003e7e;fill-opacity:1"><path
               d="m 0,0 c -3.811,2.447 -11.259,6.086 -13.489,6.78 l 3.282,8.487 C -7.438,13.873 2.768,7.65 4.329,6.086 L 0,0 z m -17.989,8.165 c -2.788,1.91 -11.944,1.559 -15.757,0.698 l -2.777,7.971 c 2.074,1.548 6.058,2.585 9.691,2.585 3.637,0 7.623,-0.865 10.39,-2.246 L -17.989,8.165 z M -45.354,2.281 c -1.55,5.223 2.604,10.395 4.505,12.291 l 2.945,-6.755 c -2.242,-1.206 -5.71,-3.85 -7.45,-5.536 z m 9.008,-13.68 c 0,0 3.799,2.179 7.385,2.948 5.275,1.134 11.133,-2.042 15.286,-5.299 l -0.795,-1.252 -5.95,-1.406 c -1.159,1.034 -3.347,1.49 -5.72,1.379 -2.105,-0.103 -3.793,-0.874 -3.793,-0.874 l 1.163,-1.902 -2.733,-0.69 c -1.212,1.55 -3.118,3.466 -4.843,3.979 l 0,3.117 z m 53.14,9.003 c -0.434,2.247 -6.059,8.954 -15.636,16.215 -7.48,5.687 -18.441,11.283 -27.465,11.234 -15.24,-0.084 -21.523,-10.55 -22.665,-16.016 -0.701,-3.295 -0.529,-6.872 0.165,-8.83 -2.43,-2.086 -3.34,-3.761 -3.813,-6.122 -0.322,-1.714 0,-4.15 1.566,-5.656 -0.183,2.253 1.349,4.87 2.591,6.585 1.392,1.896 3.7,2.645 5.792,3.913 l 0.336,-4.171 c -1.98,-1.13 -4.409,-3.554 -4.569,-4.821 l 0.16,-6.88 5.239,3.132 1.004,-2.09 -1.904,-12.125 2.937,0.529 5.379,-2.212 -5.196,-4.366 0,-1.732 c 0,0 0.794,1.069 2.614,0.982 1.822,-0.077 6.553,-2.194 6.553,-2.194 l -0.174,-1.046 -2.079,0 c -2.082,0 -7.097,0 -7.097,0 -0.344,-1.212 0.742,-2.142 1.422,-2.659 1.201,0.347 2.47,0.964 3.157,0.964 0.69,0 2.279,-0.407 3.674,-0.581 l -1.672,-2.224 c 0,0 -0.851,-0.659 -2.422,-0.346 -0.862,0.178 -1.729,-1.038 -1.729,-2.027 0,-1.051 0.68,-3.646 0.68,-3.646 0.841,-3.896 4.829,-3.111 5.336,-3.064 2.533,0.221 10.778,3.19 10.778,3.19 l -7.926,-11.113 3.453,-11.871 c 5.234,2.147 20.845,7.693 37.805,10.476 -1.85,3.088 -2.164,4.296 -4.436,8.883 L 0,-32.176 1.203,-29.23 c 1.914,-0.695 4.85,0.693 6.753,2.248 1.913,1.559 4.163,4.327 5.025,6.065 -1.203,0.687 -2.246,0.52 -3.291,-0.176 -1.038,-0.699 -1.845,-2.033 -3.278,-1.383 -1.564,0.68 -0.807,2.391 -0.633,3.955 0.174,1.548 -1.8,1.576 -3.177,0.373 -1.399,-1.212 -4.33,-0.693 -6.235,1.203 -1.906,1.916 -11.072,9.529 -14.356,11.43 -4.74,2.719 -11.087,3.409 -15.757,2.573 -2.729,-0.483 -4.681,-1.7 -5.722,-1.183 l -3.415,5.303 0.548,0.346 c 1.214,-0.525 2.361,-1.501 3.908,-0.976 1.563,0.524 6.569,1.662 11.081,1.733 6.926,0.117 15.342,-2.414 19.036,-3.989 0.177,-4.497 9.235,-10.216 13.322,-10.731 3.45,-0.432 5.554,0.515 7.624,1.732 l -8.829,7.765 4.665,5.919 c 0,0 7.45,-7.102 8.492,-8.492 0.33,0.812 0,2.165 -0.17,3.119"
               id="path12744"
               style="fill:#003e7e;fill-opacity:1;fill-rule:nonzero;stroke:none" /></g><g
             transform="translate(179.6891,2240.5576)"
             id="g12746"
             style="fill:#003e7e;fill-opacity:1"><path
               d="m 0,0 c 7.848,-0.019 11.566,-3.284 13.4,-5.017 0.237,2.656 -0.186,4.998 -2.651,7.009 C 8.704,3.653 5.091,5.123 -0.448,5.123 -4.141,5.123 -7.85,4.036 -10.159,2.08 -12.266,0.284 -12.625,-1.749 -12.161,-4.759 -11.466,-2.562 -6.466,0.028 0,0"
               id="path12748"
               style="fill:#003e7e;fill-opacity:1;fill-rule:nonzero;stroke:none" /></g><g
             transform="translate(165.6318,2281.7412)"
             id="g12750"
             style="fill:#003e7e;fill-opacity:1"><path
               d="m 0,0 c -0.168,-2.995 0.62,-6.123 2.01,-7.967 0.783,-1.053 2.656,-3.072 4.036,-2.994 1.969,0.111 3.803,3.878 8.42,3.696 3.001,-0.113 4.961,-4.356 7.503,-4.503 1.966,-0.117 3.002,1.843 4.981,2.056 1.702,0.178 2.28,-0.674 3.331,-1.706 0.696,1.604 1.696,2.705 4.266,4.605 3.113,2.317 13.731,4.51 18.238,8.546 2.255,2.027 2.758,5.756 2.042,8.275 C 53.122,7.612 48.399,5.077 43.775,4.855 41.473,4.735 35.936,5.76 33.969,6.793 c 0.981,1.693 1.307,3.61 0.494,5.465 -1.505,-1.159 -7.987,-1.792 -10.528,-1.792 -2.544,0 -7.493,1.037 -11.333,0.822 C 4.181,10.831 0.276,4.855 0,0"
               id="path12752"
               style="fill:#003e7e;fill-opacity:1;fill-rule:nonzero;stroke:none" /></g><g
             transform="translate(168.6848,2220.5696)"
             id="g12754"
             style="fill:#003e7e;fill-opacity:1"><path
               d="m 0,0 c -1.27,-0.232 -3.923,-2.313 -5.217,-4.474 0.37,-1.4 1.871,-4.652 3.341,-5.543 0.342,1.504 1.987,4.008 2.801,4.581 1.142,0.829 2.302,1.388 3.217,1.849 0.934,0.458 1.271,0.926 1.271,1.974 0,1.03 -0.127,1.52 -0.603,2.56 0.929,0.109 2.631,-0.03 3.217,0.788 0.573,0.796 0.854,1.846 0.854,2.877 0,1.044 -0.468,1.272 -1.496,1.383 -1.049,0.116 -4.072,0.198 -5.563,0.078 0,0 2.32,1.191 3.02,1.554 C 5.528,7.958 5.765,8.656 5.889,9.23 5.995,9.807 5.971,11.115 5.648,12.687 2.185,12.577 -3.923,9.462 -5.541,8.074 L -4.268,4.952 -6.576,5.048 C -6.932,3.462 -6.699,1.033 -6.004,-0.35 -3.923,0 -1.502,0.111 0,0"
               id="path12756"
               style="fill:#003e7e;fill-opacity:1;fill-rule:nonzero;stroke:none" /></g><g
             transform="translate(188.8628,2193.7842)"
             id="g12758"
             style="fill:#003e7e;fill-opacity:1"><path
               d="m 0,0 c -0.107,1.262 -1.008,1.957 -1.959,2.763 0.495,3.01 0.471,5.892 0.359,8.314 -0.121,2.43 -0.923,4.622 -2.322,6.582 -1.484,2.122 -4.268,4.953 -6.144,6.236 0,-1.148 -0.517,-2.056 -1.671,-2.402 -1.154,-0.34 -5.398,-3.368 -5.398,-3.368 l 0.877,-15.119 c -0.026,-0.013 -0.055,-0.022 -0.074,-0.035 -0.04,-0.013 -0.083,-0.032 -0.136,-0.059 -1.603,-0.814 -3.292,-2.415 -3.006,-4.84 0.271,-2.293 2.181,-4.06 5.737,-4.854 0.487,-0.109 1.008,-0.205 1.538,-0.284 l 0.109,0.767 c -0.336,0.032 -0.917,0.186 -1.287,0.275 -3.571,0.902 -4.182,3.511 -1.883,4.497 1.906,0.828 3.952,1.203 6.26,1.297 3.012,0.117 6.812,-1.742 8.193,-2.541 C -0.345,-1.735 0.123,-1.281 0,0"
               id="path12760"
               style="fill:#003e7e;fill-opacity:1;fill-rule:nonzero;stroke:none" /></g><g
             transform="translate(207.5531,2246.1953)"
             id="g12762"
             style="fill:#003e7e;fill-opacity:1"><path
               d="m 0,0 c -0.081,1.841 -2.874,7.036 -2.985,8.772 -0.114,1.728 0.344,2.885 0.687,4.499 -1.156,-0.229 -5.19,-1.846 -6.931,-0.464 -1.844,1.488 -0.568,5.199 -2.992,6.114 -2.429,0.935 -6.224,-1.954 -8.657,-1.608 -2.418,0.35 -4.495,3.688 -7.029,3.688 -2.548,0 -3.813,-3.111 -6.933,-3.808 -2.4,-0.534 -6.39,1.285 -7.963,1.162 -1.728,-0.123 -2.776,-1.479 -3.547,-3.131 -0.755,-1.663 -1.373,-2.343 -3.401,-2.853 -1.622,-0.404 -3.947,1.013 -5.103,0.767 0.552,-0.548 1.105,-2.097 1.268,-3.708 -0.112,-4.633 -3.299,-6.313 -3.299,-13.351 0,-7.635 8.107,-11.26 8.107,-11.26 l 0.956,0.674 c -2.401,1.102 -5.726,4.388 -5.823,9.341 -0.008,0.392 0.027,0.752 0.059,1.114 0.43,2.604 1.703,4.919 3.728,6.855 0.024,0.023 0.052,0.05 0.076,0.076 4.494,4.231 12.472,6.659 22.404,6.473 C -9.15,9.007 -0.908,0.579 -0.674,-6.356 0.233,-4.267 0.124,-2.309 0,0"
               id="path12764"
               style="fill:#003e7e;fill-opacity:1;fill-rule:nonzero;stroke:none" /></g><g
             transform="translate(406.8624,2145.8213)"
             id="g12766"><path
               d="m 0,0 c 0,-5.83 2.435,-7.652 11.18,-7.652 8.745,0 12.756,2.673 18.465,14.462 l 2.057,0 -2.057,-18.483 -54.307,0 0,2.073 c 8.147,2.064 8.989,3.892 8.989,11.55 l 0,45.458 c 0,6.312 -1.579,8.136 -8.989,9.969 l 0,2.066 33.653,0 0,-2.066 C 1.94,55.544 0,54.096 0,47.891"
               id="path12768"
               style="fill:#919295;fill-opacity:1;fill-rule:nonzero;stroke:none" /></g><g
             transform="translate(454.6068,2210.2454)"
             id="g12770"
             style="fill:#919295;fill-opacity:1"><path
               d="m 0,0 c 4.374,0 7.898,-3.532 7.898,-7.905 0,-4.376 -3.524,-8.026 -7.898,-8.026 -4.367,0 -8.023,3.65 -8.023,8.026 C -8.023,-3.532 -4.367,0 0,0 z m 6.809,-66.246 c 0,-4.616 2.306,-7.17 7.405,-7.779 l 0,-2.072 -28.793,0 0,2.072 c 6.193,1.218 7.653,2.922 7.653,8.747 l 0,24.428 c 0,5.603 -1.584,7.175 -8.265,8.518 l 0,2.069 19.93,1.692 2.07,0"
               id="path12772"
               style="fill:#919295;fill-opacity:1;fill-rule:nonzero;stroke:none" /></g><g
             transform="translate(491.2984,2210.2454)"
             id="g12774"
             style="fill:#919295;fill-opacity:1"><path
               d="m 0,0 -2.07,0 -18.584,-1.344 0,-2.068 c 4.251,-0.729 6.926,-2.918 6.926,-6.802 l 0,-65.883 c 6.915,-1.332 13.728,-1.805 22.352,-1.805 22.363,0 30.855,11.656 30.855,25.762 0,13.363 -9.469,23.695 -21.855,23.695 -6.573,0 -12.17,-2.672 -17.624,-8.384 L 0,0 z m 0,-40.116 c 4.613,4.254 7.042,5.472 10.694,5.472 8.129,0 13.596,-7.773 13.596,-18.955 0,-14.96 -6.793,-21.03 -16.995,-21.03 -5.476,0 -7.295,2.426 -7.295,7.66"
               id="path12776"
               style="fill:#919295;fill-opacity:1;fill-rule:nonzero;stroke:none" /></g><g
             transform="translate(585.6938,2161.145)"
             id="g12778"
             style="fill:#919295;fill-opacity:1"><path
               d="m 0,0 c -1.698,12.632 -11.051,20.655 -24.059,20.655 -14.454,0 -25.507,-10.814 -25.507,-25.036 0,-13.981 10.683,-24.421 25.025,-24.421 11.055,0 20.405,6.066 24.541,15.91 l -2.064,0 c -4.375,-6.679 -9.724,-9.967 -16.401,-9.967 -8.509,0 -17.01,7.781 -16.284,22.859 L 0,0 z m -34.749,2.79 c 0.365,8.75 4.121,14.584 9.724,14.584 5.584,0 9.711,-6.073 10.201,-14.584"
               id="path12780"
               style="fill:#919295;fill-opacity:1;fill-rule:nonzero;stroke:none" /></g><g
             transform="translate(629.6696,2164.0581)"
             id="g12782"
             style="fill:#919295;fill-opacity:1"><path
               d="m 0,0 c -4.008,3.883 -7.17,5.956 -10.327,5.956 -4.127,0 -6.681,-1.7 -10.203,-6.563 l 0,-18.727 c 0,-5.472 1.091,-7.154 7.761,-8.503 l 0,-2.072 -29.148,0 0,2.072 c 6.083,1.469 7.652,3.283 7.652,8.503 l 0,24.202 c 0,5.829 -2.539,8.504 -8.364,8.987 l 0,2.069 20.028,1.818 2.071,0 0,-14.584 0.246,0 c 4.49,9.968 9.473,14.584 15.182,14.584 3.032,0 5.951,-1.345 8.138,-3.887"
               id="path12784"
               style="fill:#919295;fill-opacity:1;fill-rule:nonzero;stroke:none" /></g><g
             transform="translate(707.048,2179.9824)"
             id="g12786"
             style="fill:#919295;fill-opacity:1"><path
               d="m 0,0 0,-2.069 c 5.839,-1.217 7.163,-4.859 3.029,-14.588 l -6.316,-14.705 -9.715,20.056 c -2.803,5.839 -2.803,8.508 2.415,9.237 l 0,2.069 -26.496,0 -0.83,0 -13.255,0 0,17.738 -2.307,0 C -59.928,9.475 -67.452,2.174 -73.163,-1.338 l 0,-2.313 8.259,0 0,-29.414 c 0,-10.447 6.927,-14.574 15.549,-14.574 6.811,0 11.31,2.428 14.701,8.138 l -1.452,1.331 c -2.192,-2.56 -4.264,-3.643 -6.68,-3.643 -6.441,0 -8.382,4.369 -8.382,11.787 l 0,26.375 12.283,0 c 6.684,0 8.633,-2.438 11.539,-8.629 l 16.759,-35.359 c -5.581,-15.071 -10.438,-21.154 -18.935,-21.154 -1.837,0 -3.293,0.116 -6.21,1.092 l -2.788,-13.854 c 1.709,-0.249 2.669,-0.249 3.883,-0.249 9.482,0 14.705,4.016 19.567,15.194 l 23.074,52.753 c 3.773,8.503 5.227,10.206 11.059,11.788 l 0,2.069"
               id="path12788"
               style="fill:#919295;fill-opacity:1;fill-rule:nonzero;stroke:none" /></g><g
             transform="translate(471.9472,2051.6997)"
             id="g12790"
             style="fill:#919295;fill-opacity:1"><path
               d="m 0,0 c 0.838,-6.191 3.89,-9.724 10.813,-11.051 l 0,-2.057 -35.116,0 0,2.057 c 7.77,1.941 9.11,6.431 7.77,15.66 l -5.823,40.609 -0.247,0 -23.082,-58.326 -2.55,0 -22.847,58.326 -0.235,0 -6.198,-41.814 c -1.219,-8.266 0.363,-13.85 8.376,-14.455 l 0,-2.057 -25.745,0 0,2.057 c 7.647,0.346 10.928,4.737 12.624,15.66 l 7.06,46.442 c -2.803,2.914 -6.688,4.745 -10.332,4.872 l 0,2.053 25.628,0 18.59,-46.912 18.828,46.912 24.061,0 0,-2.053 C -5.716,54.576 -7.416,50.931 -6.446,44.364"
               id="path12792"
               style="fill:#919295;fill-opacity:1;fill-rule:nonzero;stroke:none" /></g><g
             transform="translate(488.3262,2074.4211)"
             id="g12794"
             style="fill:#919295;fill-opacity:1"><path
               d="m 0,0 c 0,5.113 -1.696,6.942 -7.163,7.911 l 0,2.071 18.832,1.824 2.066,0 0,-33.792 c 0,-5.476 3.52,-8.015 8.514,-8.015 4.606,0 7.407,1.929 11.413,8.267 l 0,22.838 c 0,3.772 -2.437,5.953 -7.167,6.807 l 0,2.071 18.818,1.824 2.073,0 0,-36.468 c 0,-6.067 1.223,-7.537 7.302,-9.11 l 0,-2.057 -21.026,-1.832 0,11.167 -0.246,0 C 28.321,-34.256 22.601,-37.661 15.193,-37.661 5.72,-37.661 0,-32.445 0,-23.692"
               id="path12796"
               style="fill:#919295;fill-opacity:1;fill-rule:nonzero;stroke:none" /></g><g
             transform="translate(553.5804,2080.7634)"
             id="g12798"
             style="fill:#919295;fill-opacity:1"><path
               d="m 0,0 -8.27,0 0,2.299 c 5.703,3.527 13.244,10.819 19.677,19.08 l 2.323,0 0,-17.74 15.057,0 0,-3.639 -15.057,0 0,-26.384 c 0,-7.421 1.934,-11.79 8.373,-11.79 2.42,0 4.495,1.102 6.684,3.648 l 1.456,-1.344 C 26.844,-41.584 22.345,-44.004 15.536,-44.004 6.919,-44.004 0,-39.885 0,-29.422"
               id="path12800"
               style="fill:#919295;fill-opacity:1;fill-rule:nonzero;stroke:none" /></g><g
             transform="translate(591.2334,2074.4211)"
             id="g12802"
             style="fill:#919295;fill-opacity:1"><path
               d="m 0,0 c 0,5.113 -1.712,6.942 -7.172,7.911 l 0,2.071 18.836,1.824 2.071,0 0,-33.792 c 0,-5.476 3.517,-8.015 8.481,-8.015 4.628,0 7.425,1.929 11.433,8.267 l 0,22.838 c 0,3.772 -2.427,5.953 -7.168,6.807 l 0,2.071 18.832,1.824 2.068,0 0,-36.468 c 0,-6.067 1.221,-7.537 7.284,-9.11 l 0,-2.057 -21.016,-1.832 0,11.167 -0.238,0 C 28.303,-34.256 22.594,-37.661 15.173,-37.661 5.709,-37.661 0,-32.445 0,-23.692"
               id="path12804"
               style="fill:#919295;fill-opacity:1;fill-rule:nonzero;stroke:none" /></g><g
             transform="translate(691.0958,2069.0864)"
             id="g12806"
             style="fill:#919295;fill-opacity:1"><path
               d="m 0,0 c 0,12.647 -10.333,17.14 -20.174,17.14 -10.692,0 -18.097,-5.72 -20.53,-15.56 l 1.834,0 c 2.902,5.103 7.518,7.652 13.724,7.652 8.263,0 11.422,-3.897 11.422,-12.037 -11.184,-4.123 -29.396,-5.104 -29.396,-17.488 0,-6.69 6.189,-12.034 13.73,-12.034 5.579,0 9.825,1.327 14.441,5.463 l 1.1,0.972 c 2.303,-4.602 5.467,-6.435 11.046,-6.435 6.69,0 10.703,3.166 11.178,8.862 l -1.938,0 C 5.951,-26.259 4.734,-27.716 2.79,-27.716 0.726,-27.716 0,-25.892 0,-21.641 L 0,0 z m -13.849,-22.605 c -3.159,-3.168 -5.83,-4.745 -8.624,-4.745 -3.769,0 -6.323,3.291 -6.323,8.256 0,6.204 3.52,8.998 14.947,13.869"
               id="path12808"
               style="fill:#919295;fill-opacity:1;fill-rule:nonzero;stroke:none" /></g><g
             transform="translate(708.9532,2102.1426)"
             id="g12810"
             style="fill:#919295;fill-opacity:1"><path
               d="m 0,0 c 0,6.433 -2.07,8.746 -8.626,9.124 l 0,2.053 20.284,1.342 2.077,0 0,-64.902 c 0,-6.068 1.331,-7.537 8.124,-9.11 l 0,-2.057 -30.485,0 0,2.057 c 6.683,1.087 8.626,3.271 8.626,9.11"
               id="path12812"
               style="fill:#919295;fill-opacity:1;fill-rule:nonzero;stroke:none" /></g><g
             transform="translate(742.1885,2047.1062)"
             id="g12814"
             style="fill:#919295;fill-opacity:1"><path
               d="m 0,0 1.54,0 c 1.036,0 1.892,0.128 1.892,1.322 0,1.05 -1.001,1.219 -1.868,1.219 L 0,2.541 0,0 z m -1.654,3.806 3.385,0 c 2.183,0 3.353,-0.741 3.353,-2.611 0,-1.609 -1.001,-2.26 -2.239,-2.392 l 2.395,-3.898 -1.79,0 -2.238,3.828 -1.212,0 0,-3.828 -1.654,0 0,8.901 z m 3.11,-10.725 c 3.322,0 6.061,2.647 6.061,6.417 0,3.76 -2.739,6.422 -6.061,6.422 -3.374,0 -6.072,-2.662 -6.072,-6.422 0,-3.77 2.698,-6.417 6.072,-6.417 z m 0,14.628 c 4.213,0 7.978,-3.316 7.978,-8.211 0,-4.897 -3.765,-8.203 -7.978,-8.203 -4.221,0 -7.99,3.306 -7.99,8.203 0,4.895 3.769,8.211 7.99,8.211"
               id="path12816"
               style="fill:#919295;fill-opacity:1;fill-rule:nonzero;stroke:none" /></g></g></g></g></g></svg>