<?xml version="1.0" encoding="utf-8"?>
<!-- Generator: Adobe Illustrator 21.1.0, SVG Export Plug-In . SVG Version: 6.00 Build 0)  -->
<svg version="1.1" id="Layer_1" xmlns="http://www.w3.org/2000/svg" xmlns:xlink="http://www.w3.org/1999/xlink" x="0px" y="0px"
	 viewBox="0 0 410.7 421.8" style="enable-background:new 0 0 410.7 421.8;" xml:space="preserve">
<path d="M319.7,30.4c-1.4-0.3-2.7-0.6-4.1-0.9c-6.5-1.3-13.1-2.8-19.6-3.8c-5.4-0.9-10.9-1.5-16.4-1.8c-6.4-0.4-12.9-0.6-19.4-0.3
	c-9.7,0.4-19.1,2.5-28.4,5.1c-6.2,1.7-12.4,3.5-18.5,5.5c-7.1,2.3-13.3,6.4-19.5,10.4c-8.2,5.3-15.7,11.6-22.3,18.8
	c-7.8,8.4-15,17.2-20.1,27.6c-2.3,4.8-4.4,9.7-6.6,14.5c-0.1,0.2,0,0.5,0,0.8c1.8-2.1,3.5-4.3,5.4-6.2c3.5-3.4,6.9-6.9,10.7-9.9
	c6.4-5,13.6-8.5,21.4-11c6.5-2,13.1-3.3,19.9-3.5c5.8-0.1,11.6-0.6,17.4-0.3c8.3,0.5,16.4,2.4,23.9,6c1.9,0.9,3.7,1.8,5.6,2.8
	c6.4-7.6,14-13.8,22.6-18.8c6.1-3.6,12.3-6.9,19.2-8.5c3.6-0.8,7.3-1.3,11-1.7c4.3-0.4,8.6-0.7,12.8-0.7c7.2-0.1,14.2,1.6,21.1,3.5
	c9.9,2.8,19.1,7.2,27.5,13.1c6.4,4.4,12,9.7,17.2,15.5c8.8,9.8,15.6,21,20.9,32.9c3.4,7.6,6,15.5,9,23.3c0.1,0.3,0.1,0.6,0.1,0.9
	c-0.6,0-1.1,0-1.6,0c-39.6,0-79.2,0-118.8,0c-1.8,0-2.5-0.3-2.9-2.4c-2-9.7-5.6-18.9-10.4-27.5c-4.5-8-10.1-14.9-16.9-21
	c-3.3-2.9-7-5.4-10.6-8.1c-5.3,6.3-9.1,13-11,20.5c-1,3.9-1.9,8-2.1,12c-0.3,7.1,1.5,13.8,4.2,20.4c2.8,6.9,7.6,12.2,12.8,17.4
	c8.4,8.4,18,15.2,28.4,20.8c8,4.3,15.9,8.8,23.9,13.2c7.6,4.1,15.2,8.3,22.8,12.3c6.3,3.3,12.6,6.5,18.9,9.8
	c13.2,6.9,26.4,13.7,38.6,22.4c3.5,2.5,6.7,5.3,10,7.9c4.6,3.6,8.1,8.2,11.2,13c1.3,2,2.3,4.1,3.6,6.4c-40.7,0-81,0-121.8,0
	c1.9,1.3,3.4,2.4,4.9,3.4c5.4,3.6,10.5,7.6,14.9,12.4c5.5,5.9,9.9,12.4,12.6,20c1.3,3.7,1.8,7.7,2.3,11.6c0.5,3.9,0.8,8,0.7,11.9
	c-0.3,8.9-1.9,17.5-6,25.5c-3.8,7.3-8.9,13.5-14.9,19.1c-4.4,4.1-9.3,7.5-14.5,10.5c-7.5,4.2-15.5,7.3-23.9,9.1
	c-4.2,0.9-8.5,1.5-12.8,1.6c-5.2,0.2-10.5,0.3-15.6-0.4c-7.2-0.9-14.3-2.3-21.4-4c-9-2.2-17.7-5.5-25.9-10
	c-6.4-3.5-12.6-7.3-18-12.2c-4.1-3.6-8.3-7.3-12-11.3c-4-4.4-7.5-9.3-11.2-14c-0.4-0.5-1.2-0.9-1.8-0.9c-1.8,0.1-3.5,0.3-5.2,0.7
	c-0.5,0.1-1.2,0.8-1.2,1.2c-0.2,3-0.2,6-0.4,8.9c-0.4,6.4-0.8,12.8-1.5,19.2c-0.7,6.4-1.6,12.7-2.5,19c-0.4,2.4-0.9,4.9-1.6,7.2
	c-0.3,1-0.1,1.5,0.8,1.9c8.5,4.4,17.2,8.5,26.4,11.4c7.3,2.3,14.6,4.7,22,6.5c7.8,1.9,15.7,3.2,23.7,4.4c6.4,1,12.8,1.7,19.3,2.2
	c7.7,0.5,15.4,0.7,23.1,0.7c3.7,0,7.3-0.7,11-1c0.4,0,0.8,0,1.2,0.2c-36.3,8.6-72.5,8.2-108.5-2c-35.9-10.2-67.2-28.6-93-55.5
	c-42.3-44-62.5-97-59.6-157.9c2.7-55.9,25-103.6,65.4-142.4C89,35.5,116.3,19.5,147.3,9.8C184.8-1.9,222.7-3,260.9,6
	C281.8,10.9,301.4,18.9,319.7,30.4z M142.8,110.3c-0.2,0.2-0.3,0.3-0.5,0.5c-3.8,6.1-7.1,12.4-9.8,19c-2.9,7.4-5.4,14.9-6.9,22.7
	c-1.2,6.5-2.3,13-3.2,19.6c-0.7,5.2-1.3,10.4-1.4,15.6c-0.1,14.1-0.5,28.1,1,42.1c0.4,4.1,0.5,8.3,1.2,12.4c1,6.5,2.3,12.9,3.5,19.4
	c2,9.9,5.2,19.5,9.6,28.6c4.7,9.8,10.6,18.9,19.1,25.9c4,3.3,8.3,6.4,12.9,9c10.1,5.7,21.2,8,32.7,8.6c5.9,0.3,11.9,0,17.8-1
	c9-1.5,17.5-4.3,25.5-8.7c9.3-5.1,17.2-11.9,24-20c6.3-7.5,11.4-15.7,15-24.8c1.9-5,3.1-10.3,4.5-15.4c0.7-2.6,0.1-3.4-2.4-5
	c-2.5-1.5-4.9-3.1-7.4-4.6c-6.6-4-13.1-8-19.7-11.9c-9.3-5.3-18.8-10.2-27.9-15.8c-13.9-8.5-27.7-17.3-41.4-26.2
	c-9.5-6.3-18.6-13.1-25.9-22.1c-5.1-6.3-9.9-12.9-13.4-20.2c-2.4-5-4.6-10.2-6.4-15.5c-1.2-3.7-1.9-7.7-2.2-11.6
	c-0.3-3.9-0.1-7.8,0.3-11.7C141.5,116.3,142.2,113.3,142.8,110.3z"/>
</svg>
