<?xml version="1.0" encoding="utf-8"?>

<svg xmlns="http://www.w3.org/2000/svg" width="63px" height="66px" viewBox="0 0 63 66" >
<path fill="#12395B" d="M49.16016,44.49316c0,0,1.52246,1.02441,3.00977,1.02441c1.49414,0,2.80664-1.07178,2.80664-1.07178v-5.2334
	c0,0-1.33105,0.94482-2.80664,0.94482c-1.47266,0-3.00977-1.0249-3.00977-1.0249l-15.3125-9.05908l1.41797,6.20459
	L49.16016,44.49316z M7.83887,28.33838c0,0-1.47852-1.0293-3.02051-1.0293c-1.53516,0-2.79785,1.07373-2.79785,1.07373v5.23145
	c0,0,1.25781-0.94141,2.79785-0.94141c1.54395,0,3.02051,1.03125,3.02051,1.03125l12.64062,7.47266l1.0791-4.72314L7.83887,28.33838
	z M49.16016,37.64844c0,0,1.52246,1.02441,3.00977,1.02441c1.49414,0,2.80664-1.07129,2.80664-1.07129v-5.23389
	c0,0-1.33105,0.94482-2.80664,0.94482c-1.47266,0-3.00977-1.0249-3.00977-1.0249L32.03906,22.15918l1.41895,6.20459
	L49.16016,37.64844z M7.83887,21.49316c0,0-1.47852-1.02881-3.02051-1.02881c-1.53516,0-2.79785,1.07227-2.79785,1.07227v5.2334
	c0,0,1.25781-0.94287,2.79785-0.94287c1.54395,0,3.02051,1.03174,3.02051,1.03174l14.01855,8.2876l1.07812-4.72314L7.83887,21.49316
	z M49.16016,30.8042c0,0,1.52246,1.0249,3.00977,1.0249c1.49414,0,2.80664-1.07227,2.80664-1.07227v-5.23486
	c0,0-1.33105,0.9458-2.80664,0.9458c-1.47266,0-3.00977-1.02539-3.00977-1.02539L30.23242,14.24414l1.41699,6.20605
	L49.16016,30.8042z M7.83887,14.64844c0,0-1.47852-1.02832-3.02051-1.02832c-1.53516,0-2.79785,1.07178-2.79785,1.07178v5.23291
	c0,0,1.25781-0.94336,2.79785-0.94336c1.54395,0,3.02051,1.03223,3.02051,1.03223l15.39551,9.10303l1.08008-4.72412
	L7.83887,14.64844z M29.8418,12.53906L49.16016,23.9585c0,0,1.52246,1.02539,3.00977,1.02539
	c1.49414,0,2.80664-1.07227,2.80664-1.07227v-5.23486c0,0-1.33105,0.94727-2.80664,0.94727
	c-1.47266,0-3.00977-1.02637-3.00977-1.02637L34.21582,9.75732l-1.03418-3.96533c0-0.16309,0.14844-0.24365,0.20508-0.25537
	l2.5332-0.80322c0.33594,0,0.53125,0.2959,0.53125,0.54932l0.13672,0.2793c0.08984,0.04883,0.5-0.07471,0.5-0.15332v-1.5625
	c0.00977-1.03271-0.80664-1.95361-1.9209-1.95361h-2.53027c0,0-0.36914-0.87695-1.44336-0.87695h-4.80078
	c-1.27051,0-1.57715,1.20996-1.57715,1.20996l-3.33301,13.64893L7.83887,7.80371c0,0-1.47852-1.0293-3.02051-1.0293
	c-1.53516,0-2.79785,1.07373-2.79785,1.07373v5.23193c0,0,1.25781-0.94238,2.79785-0.94238
	c1.54395,0,3.02051,1.03125,3.02051,1.03125l16.77441,9.91699l3.81934-16.7207L29.8418,12.53906z M26.80273,58.40039
	c0,2.8457-2.31836,4.91162-5.51172,4.91797c-3.36133-0.00635-4.48438-0.5752-4.48438-0.5752l-0.28516-3.1543
	c0,0,1.86914,1.25488,4.61523,1.25488c0.76562,0,2.4873-0.54199,2.4873-2.10107c0-1.47803-1.35449-1.93311-1.68848-2.11865
	c-0.66602-0.35742-1.4668-0.71387-2.12402-1.04199c-1.24512-0.61084-3.06738-1.78174-3.06738-4.26855
	c0-3.58203,3.20312-4.89111,5.74512-4.89111c2.04492,0,3.83691,0.90088,3.83691,0.90088v2.93848
	c-0.57031-0.33936-1.50781-1.38965-3.83691-1.38965c-1.59082,0-2.66602,0.84619-2.66602,2.02637
	c0,1.10254,0.90332,1.81543,1.77051,2.22168c0.86719,0.41602,1.44922,0.68018,2.45117,1.16895
	C25.31445,54.91797,26.80273,56.21484,26.80273,58.40039z M11.75,57.05078c0,1.3125-0.43164,3.76953-3.41113,3.7207
	c-2.71094-0.05859-3.21582-2.55664-3.21582-4.16211V46.7334H2.02051v10.03125c0,5.64551,3.44141,6.58203,6.31836,6.58203
	c4.25488,0,6.22656-2.81738,6.22656-6.64062V46.7334H11.75V57.05078z M54.97656,62.98438h-3.38672l-0.97363-2.85449h-5.77734
	l-0.98047,2.85449h-5.77441l-0.96289-2.85449h-5.7793l-0.98242,2.85449h-3.04883l5.58887-14.98828l-0.54297-1.26465h3.38184
	l5.41211,15.32227l5.24219-14.05762l-0.53516-1.26465h3.37305L54.97656,62.98438z M36.34961,57.85986l-2.00293-6.40234
	l-2.25195,6.40234H36.34961z M49.84766,57.85986l-2.00781-6.40234l-2.23535,6.40234H49.84766z M55.7832,47.47949
	c-0.55664,0.30029-0.99121,0.73096-1.30371,1.29053s-0.46875,1.14307-0.46875,1.75049c0,0.60107,0.1543,1.1792,0.46191,1.73438
	s0.7373,0.98584,1.29004,1.29248c0.55176,0.30713,1.12891,0.46045,1.73242,0.46045s1.18066-0.15332,1.73242-0.46045
	c0.55273-0.30664,0.98242-0.7373,1.28809-1.29248s0.45898-1.1333,0.45898-1.73438c0-0.60742-0.15527-1.19092-0.46582-1.75049
	s-0.74414-0.99023-1.30176-1.29053c-0.55664-0.30078-1.12793-0.45068-1.71191-0.45068S56.33984,47.17871,55.7832,47.47949z
	 M58.9209,47.9834c0.46484,0.25146,0.82715,0.61084,1.08691,1.07764c0.26074,0.46729,0.38965,0.95361,0.38965,1.45947
	c0,0.50244-0.12695,0.98438-0.38281,1.44531s-0.61328,0.82031-1.0752,1.07764c-0.46191,0.25781-0.94238,0.38623-1.44434,0.38623
	s-0.98242-0.12842-1.44434-0.38623c-0.46191-0.25732-0.82129-0.6167-1.07715-1.07764
	c-0.25781-0.46094-0.38574-0.94287-0.38574-1.44531c0-0.50586,0.13086-0.99219,0.39258-1.45947
	c0.26074-0.4668,0.62402-0.82617,1.08691-1.07764s0.93848-0.37646,1.42773-0.37646
	C57.98145,47.60693,58.45605,47.73193,58.9209,47.9834z M56.57227,52.44873v-1.59521h0.35547
	c0.21191,0,0.37402,0.04346,0.48438,0.12939c0.16016,0.11719,0.37012,0.40869,0.63184,0.87402l0.33203,0.5918h0.73828
	l-0.45605-0.73486c-0.21875-0.34814-0.40332-0.59668-0.55371-0.74463c-0.08008-0.07715-0.18652-0.14355-0.31836-0.19922
	c0.32227-0.02441,0.58203-0.13867,0.77734-0.3418c0.19531-0.2041,0.29297-0.44238,0.29297-0.7168
	c0-0.19482-0.05859-0.37793-0.17578-0.55078c-0.11621-0.17285-0.27344-0.29346-0.4707-0.36328
	c-0.19629-0.06934-0.51465-0.104-0.95508-0.104h-1.28711v3.75537H56.57227z M56.57227,49.20264h0.6875
	c0.2959,0,0.49707,0.02148,0.60645,0.06445s0.19531,0.10889,0.25684,0.19629c0.06152,0.08789,0.09277,0.1875,0.09277,0.29883
	c0,0.17236-0.06445,0.31152-0.19238,0.41602s-0.36621,0.15723-0.71777,0.15723h-0.7334V49.20264z"/>

</svg>
