<svg xmlns="http://www.w3.org/2000/svg" viewBox="0 0 146.11 32.47"><defs><style>.cls-1,.cls-6{fill:#fff;}.cls-1,.cls-3,.cls-4,.cls-5{stroke:#273a79;}.cls-1,.cls-2,.cls-3,.cls-4,.cls-5,.cls-6,.cls-7{stroke-miterlimit:10;}.cls-2,.cls-3,.cls-7{fill:none;}.cls-2{stroke:#f1f2f2;}.cls-4{fill:#ec5e93;}.cls-5{fill:#9076b5;}.cls-6,.cls-7{stroke:#fff;stroke-width:2px;}</style></defs><title>Asset 16</title><g id="Layer_2" data-name="Layer 2"><g id="Layer_1-2" data-name="Layer 1"><path class="cls-1" d="M55.29,2.86H48.54c-10.21,17-39,17-39,17h-7C37,34.34,55.29,2.86,55.29,2.86Z"/><path class="cls-2" d="M45.2,7.21S18.51-2.91,11.26,1.71C7.38,4.18,8,13.26,8,19.84,32.83,22.35,45.2,7.21,45.2,7.21Z"/><polyline class="cls-1" points="15.91 22.87 11.87 25.67 15.16 29.46 9.88 25.61 13.54 21.88"/><ellipse class="cls-3" cx="15.8" cy="29.98" rx="1.19" ry="0.4" transform="translate(-15.06 15.98) rotate(-37.82)"/><ellipse class="cls-3" cx="14.43" cy="28.89" rx="1.55" ry="0.52" transform="translate(-14.68 14.92) rotate(-37.82)"/><ellipse class="cls-3" cx="13.2" cy="27.42" rx="1.86" ry="0.62" transform="translate(-14.04 13.85) rotate(-37.82)"/><path class="cls-4" d="M7.57,19.84h2s24-.42,36.06-13l-.39.41S32.9,23.66,7.57,19.84Z"/><rect class="cls-5" x="50.84" y="5.98" width="4.01" height="1.24" transform="translate(105.69 13.2) rotate(180)"/><rect class="cls-5" x="48.84" y="9.17" width="4.01" height="1.25" transform="translate(101.68 19.59) rotate(180)"/><path class="cls-6" d="M18.41,4.71s-4,.22-4.34,1.94C15.84,5.82,18.41,4.71,18.41,4.71Z"/><line class="cls-7" x1="62.14" y1="12.24" x2="146.11" y2="12.24"/><line class="cls-7" x1="37.14" y1="25.74" x2="121.11" y2="25.74"/><line class="cls-7" x1="49.64" y1="18.24" x2="133.61" y2="18.24"/></g></g></svg>