<svg xmlns="http://www.w3.org/2000/svg" viewBox="0 0 1222.66 108.4"><defs><style>.cls-1{fill:#c3c3c3;}</style></defs><title>Asset 11</title><g id="Layer_2" data-name="Layer 2"><g id="Layer_1-2" data-name="Layer 1"><path class="cls-1" d="M1190.69,12.61a38.45,38.45,0,0,0-29.13,13.31,33.28,33.28,0,0,0-45.6,2,25.17,25.17,0,0,0-47,1.78,33,33,0,0,0-50.11-.25,25.17,25.17,0,0,0-35.87-6.56,43.14,43.14,0,0,0-77.56,2.72,23.36,23.36,0,0,0-37.59,9.86A37.31,37.31,0,0,0,817.9,22.41a32.88,32.88,0,0,0-49.39-1.9,32.86,32.86,0,0,0-34.69-1.85,40.43,40.43,0,0,0-60.94,4.81c-6.24-9.72-21.42-5.93-25.22,1a56.16,56.16,0,0,0-15.3-8.86,61,61,0,0,0-42.06,0A56.1,56.1,0,0,0,575,24.49c-3.8-6.95-19-10.74-25.23-1a40.42,40.42,0,0,0-60.93-4.81,32.88,32.88,0,0,0-34.7,1.85,32.87,32.87,0,0,0-49.38,1.9,37.31,37.31,0,0,0-49.89,13.11,23.36,23.36,0,0,0-37.59-9.86,43.15,43.15,0,0,0-77.57-2.72,25.17,25.17,0,0,0-35.87,6.56,33,33,0,0,0-50.1.25,25.18,25.18,0,0,0-47-1.78,33.26,33.26,0,0,0-45.59-2A38.56,38.56,0,0,0,0,29.61V108.4l611.33-1.7,611.33,1.7V29.61A38.51,38.51,0,0,0,1190.69,12.61Z"/></g></g></svg>