<svg xmlns="http://www.w3.org/2000/svg" viewBox="0 0 507.38 576.31"><defs><style>.cls-1{fill:#19a5cc;}.cls-2{fill:#fff;}.cls-3{stroke:#000;stroke-miterlimit:10;stroke-width:3px;}</style></defs><title>Asset 12</title><g id="Layer_2" data-name="Layer 2"><g id="Layer_1-2" data-name="Layer 1"><path class="cls-1" d="M92.92,568.77a25.17,25.17,0,0,1,47,1.77,33,33,0,0,1,50.11-.24,25.15,25.15,0,0,1,35.87-6.56,43.14,43.14,0,0,1,77.56,2.71,23.37,23.37,0,0,1,37.59,9.86A37.31,37.31,0,0,1,391,563.2a32.87,32.87,0,0,1,49.39-1.89l.12-.08A214.66,214.66,0,0,0,411.56,283a27.28,27.28,0,0,1-1.32-38.23,85.92,85.92,0,0,0-44.77-141.46,19.93,19.93,0,0,0-2.62-.37,33.1,33.1,0,0,1-30-33.79c0-1.54,0-3.09-.07-4.65a67.77,67.77,0,1,0-80,70l.12,0A16.93,16.93,0,0,1,266.05,157a85.45,85.45,0,0,0-5.42,30.07,87,87,0,0,0,1.39,15.5,19.11,19.11,0,0,1-17.16,22.5l-.2,0c-109,9.77-194.57,101-195.27,212.44a214.11,214.11,0,0,0,43.3,131A2.39,2.39,0,0,1,92.92,568.77Z"/><circle class="cls-2" cx="42.94" cy="411" r="42.94"/><circle class="cls-2" cx="459.15" cy="292.4" r="48.23"/><circle class="cls-2" cx="49.39" cy="354.38" r="33.29"/><ellipse class="cls-3" cx="165.43" cy="69.72" rx="1.87" ry="1.82" transform="translate(9.56 158.78) rotate(-52.6)"/><ellipse class="cls-3" cx="490" cy="48.63" rx="1.87" ry="1.82" transform="translate(377.7 528.07) rotate(-82.48)"/><ellipse class="cls-3" cx="82.68" cy="284.85" rx="1.74" ry="1.69" transform="translate(-212.77 311.08) rotate(-78.89)"/><ellipse class="cls-3" cx="494.12" cy="464.56" rx="2.08" ry="2.14" transform="translate(-68.23 85.44) rotate(-9.25)"/><circle class="cls-3" cx="51.51" cy="406.37" r="5.73"/><circle class="cls-3" cx="438.76" cy="315.51" r="5.91"/><circle class="cls-3" cx="441.29" cy="299.69" r="2.95"/><circle class="cls-3" cx="54.83" cy="387.78" r="4.89"/><circle class="cls-3" cx="40.97" cy="397.01" r="2.86"/></g></g></svg>