<?xml version="1.0" encoding="utf-8"?>
<!-- Generator: Adobe Illustrator 23.0.0, SVG Export Plug-In . SVG Version: 6.00 Build 0)  -->
<svg version="1.1" id="Layer_1" xmlns="http://www.w3.org/2000/svg" xmlns:xlink="http://www.w3.org/1999/xlink" x="0px" y="0px"
	 viewBox="0 0 1222.7 108.4" style="enable-background:new 0 0 1222.7 108.4;" xml:space="preserve">
<style type="text/css">
	.st0{fill:#191F5C;}
</style>
<title>Asset 11</title>
<g>
	<g id="Layer_1-2">
		<path class="st0" d="M1190.7,12.6c-11.2,0-21.8,4.8-29.1,13.3c-13.3-11.5-33.3-10.6-45.6,2c-5.4-12.8-20.2-18.7-33-13.3
			c-6.6,2.8-11.7,8.3-14,15.1c-11.8-13.9-32.6-15.6-46.5-3.8c-1.3,1.1-2.5,2.3-3.6,3.6c-7.6-11.6-23.2-14.9-34.8-7.3
			c-0.3,0.2-0.7,0.5-1,0.7C971.8,1.8,945.7-6.2,924.7,5c-8.5,4.5-15.3,11.8-19.2,20.6c-9.6-8.6-24.4-7.7-33,2c-2,2.3-3.6,5-4.6,7.9
			c-10.5-17-32.5-22.8-49.9-13.1c-11.4-14.1-32.2-16.3-46.3-4.8c-1.1,0.9-2.2,1.9-3.1,2.9c-10.3-7.2-23.7-7.9-34.7-1.9
			C717.9,3,692.3,3.2,676.6,19.1c-1.4,1.4-2.6,2.9-3.8,4.4c-6.2-9.7-21.4-5.9-25.2,1c-4.6-3.7-9.8-6.7-15.3-8.9
			c-13.6-5-28.5-5-42.1,0c-5.5,2.1-10.7,5.1-15.3,8.9c-3.8-6.9-19-10.7-25.2-1c-13.2-18-38.5-21.8-56.5-8.6c-1.6,1.1-3,2.4-4.4,3.8
			c-11-6-24.4-5.3-34.7,1.9c-12.5-13.2-33.3-13.7-46.5-1.2c-1,1-2,2-2.9,3.1c-17.5-9.7-39.4-3.9-49.9,13.1
			c-4.2-12.2-17.5-18.7-29.7-14.5c-2.9,1-5.6,2.6-7.9,4.6c-9.7-21.8-35.2-31.6-56.9-22c-8.8,3.9-16.1,10.7-20.6,19.2
			c-11.2-8.2-27-5.7-35.2,5.5c-0.2,0.3-0.5,0.7-0.7,1c-11.9-13.8-32.8-15.3-46.5-3.3c-1.3,1.1-2.5,2.3-3.6,3.6
			C149.3,16.6,135,9.6,121.8,14c-6.8,2.3-12.2,7.4-15.1,14c-12.3-12.6-32.3-13.5-45.6-2C47.2,9.9,22.9,8.1,6.8,22
			c-2.6,2.2-4.9,4.8-6.8,7.6v78.8l611.3-1.7l611.3,1.7V29.6C1215.5,19,1203.5,12.6,1190.7,12.6z"/>
	</g>
</g>
</svg>
