<svg xmlns="http://www.w3.org/2000/svg" xmlns:xlink="http://www.w3.org/1999/xlink" viewBox="0 0 468.94 640.41"><defs><style>.cls-1{fill:none;}.cls-2{fill:#8cd7f3;}.cls-3{clip-path:url(#clip-path);}.cls-4{fill:#35c6f4;}.cls-5{clip-path:url(#clip-path-2);}.cls-6{fill:#19a5cc;}.cls-7{stroke:#000;stroke-width:3px;}.cls-7,.cls-8{stroke-miterlimit:10;}.cls-8{fill:#fff;stroke:#fff;}</style><clipPath id="clip-path" transform="translate(-13.86)"><path class="cls-1" d="M15.28,741.69,498.75,715.3V386C249.37,312.25,219.58,570.76,0,525"/></clipPath><clipPath id="clip-path-2" transform="translate(-13.86)"><path class="cls-1" d="M52.78,821.69,536.25,795.3V466C241.32,342.69,222.28,741.69,37.5,605"/></clipPath></defs><title>Asset 19</title><g id="Layer_2" data-name="Layer 2"><g id="Layer_1-2" data-name="Layer 1"><path class="cls-2" d="M70.17,632.87a25.18,25.18,0,0,1,47.05,1.77,33,33,0,0,1,50.1-.24,25.15,25.15,0,0,1,35.87-6.56,43.15,43.15,0,0,1,77.57,2.71,23.36,23.36,0,0,1,37.58,9.86,37.29,37.29,0,0,1,49.89-13.1,32.88,32.88,0,0,1,49.39-1.9l.12-.08a214.67,214.67,0,0,0-28.92-278.28,27.27,27.27,0,0,1-1.33-38.23,85.92,85.92,0,0,0-44.76-141.46,24.68,24.68,0,0,0-2.63-.37,33.1,33.1,0,0,1-30-33.79q0-2.31-.06-4.65a67.78,67.78,0,1,0-80,70l.12,0a16.93,16.93,0,0,1,13.18,22.56,85.67,85.67,0,0,0-5.42,30.07,87,87,0,0,0,1.39,15.5,19.1,19.1,0,0,1-17.16,22.5l-.2,0c-109,9.77-194.57,101-195.27,212.45A214.15,214.15,0,0,0,70,632.65Z" transform="translate(-13.86)"/><g class="cls-3"><path class="cls-4" d="M70.17,632.87a25.18,25.18,0,0,1,47.05,1.77,33,33,0,0,1,50.1-.24,25.15,25.15,0,0,1,35.87-6.56,43.15,43.15,0,0,1,77.57,2.71,23.36,23.36,0,0,1,37.58,9.86,37.29,37.29,0,0,1,49.89-13.1,32.88,32.88,0,0,1,49.39-1.9l.12-.08a214.67,214.67,0,0,0-28.92-278.28,27.27,27.27,0,0,1-1.33-38.23,85.92,85.92,0,0,0-44.76-141.46,24.68,24.68,0,0,0-2.63-.37,33.1,33.1,0,0,1-30-33.79q0-2.31-.06-4.65a67.78,67.78,0,1,0-80,70l.12,0a16.93,16.93,0,0,1,13.18,22.56,85.67,85.67,0,0,0-5.42,30.07,87,87,0,0,0,1.39,15.5,19.1,19.1,0,0,1-17.16,22.5l-.2,0c-109,9.77-194.57,101-195.27,212.45A214.15,214.15,0,0,0,70,632.65Z" transform="translate(-13.86)"/></g><g class="cls-5"><path class="cls-6" d="M70.17,632.87a25.18,25.18,0,0,1,47.05,1.77,33,33,0,0,1,50.1-.24,25.15,25.15,0,0,1,35.87-6.56,43.15,43.15,0,0,1,77.57,2.71,23.36,23.36,0,0,1,37.58,9.86,37.29,37.29,0,0,1,49.89-13.1,32.88,32.88,0,0,1,49.39-1.9l.12-.08a214.67,214.67,0,0,0-28.92-278.28,27.27,27.27,0,0,1-1.33-38.23,85.92,85.92,0,0,0-44.76-141.46,24.68,24.68,0,0,0-2.63-.37,33.1,33.1,0,0,1-30-33.79q0-2.31-.06-4.65a67.78,67.78,0,1,0-80,70l.12,0a16.93,16.93,0,0,1,13.18,22.56,85.67,85.67,0,0,0-5.42,30.07,87,87,0,0,0,1.39,15.5,19.1,19.1,0,0,1-17.16,22.5l-.2,0c-109,9.77-194.57,101-195.27,212.45A214.15,214.15,0,0,0,70,632.65Z" transform="translate(-13.86)"/></g><ellipse class="cls-7" cx="142.68" cy="133.82" rx="1.87" ry="1.82" transform="translate(-64.15 165.88) rotate(-52.6)"/><ellipse class="cls-7" cx="391.51" cy="9.14" rx="1.82" ry="1.87" transform="translate(-13.91 2.71) rotate(-0.4)"/><ellipse class="cls-7" cx="467.26" cy="112.73" rx="1.87" ry="1.82" transform="translate(280.52 561.23) rotate(-82.48)"/><ellipse class="cls-8" cx="204.8" cy="323.01" rx="1.16" ry="1.13" transform="translate(-158.63 167.83) rotate(-33.69)"/><ellipse class="cls-8" cx="150.36" cy="386.01" rx="0.66" ry="0.65" transform="translate(-267.73 295.41) rotate(-56.09)"/><ellipse class="cls-8" cx="117.3" cy="406.03" rx="0.9" ry="0.88" transform="translate(-207.16 119.42) rotate(-31.19)"/><ellipse class="cls-8" cx="304.9" cy="530.74" rx="1.56" ry="1.52" transform="translate(-244.63 234.6) rotate(-31.19)"/><ellipse class="cls-8" cx="345.76" cy="442.34" rx="1.27" ry="1.3" transform="matrix(0.25, -0.97, 0.97, 0.25, -182.84, 666.51)"/><ellipse class="cls-8" cx="295.67" cy="191.79" rx="1.27" ry="1.3" transform="translate(-47 318.62) rotate(-54.06)"/><ellipse class="cls-7" cx="59.93" cy="348.96" rx="1.74" ry="1.69" transform="translate(-307.89 340.5) rotate(-78.89)"/><ellipse class="cls-7" cx="471.37" cy="528.66" rx="2.08" ry="2.14" transform="translate(-92.69 82.62) rotate(-9.25)"/><circle class="cls-7" cx="14.9" cy="470.47" r="5.73"/><circle class="cls-7" cx="402.16" cy="379.61" r="5.91"/><circle class="cls-8" cx="276.24" cy="452.91" r="1.61"/><circle class="cls-7" cx="404.69" cy="363.79" r="2.95"/><circle class="cls-7" cx="18.23" cy="451.88" r="4.89"/><circle class="cls-7" cx="4.37" cy="461.12" r="2.86"/><circle class="cls-8" cx="139.55" cy="473.19" r="3.63"/><circle class="cls-8" cx="206.47" cy="306.65" r="4.5"/><circle class="cls-8" cx="328.91" cy="266.65" r="2.14"/><circle class="cls-8" cx="323.15" cy="269.39" r="3.68"/><circle class="cls-8" cx="300.27" cy="553.16" r="3.24"/></g></g></svg>