<?xml version="1.0" encoding="utf-8"?>
<!-- Generator: Adobe Illustrator 23.0.0, SVG Export Plug-In . SVG Version: 6.00 Build 0)  -->
<svg version="1.1" id="Layer_1" xmlns="http://www.w3.org/2000/svg" xmlns:xlink="http://www.w3.org/1999/xlink" x="0px" y="0px"
	 viewBox="0 0 1222.7 47" style="enable-background:new 0 0 1222.7 47;" xml:space="preserve">
<style type="text/css">
	.st0{fill:#2E346C;}
</style>
<title>Asset 9</title>
<g>
	<g id="Layer_1-2">
		<path class="st0" d="M1185,12.6c-13.7,0-26,5.2-34.3,13.3c-7.5-5.3-16.4-8.1-25.6-8.1c-10.3-0.1-20.3,3.5-28.1,10.1
			c-4.5-9-15-15.4-27.3-15.4c-13.1,0-24.2,7.2-28.1,17.1c-7.1-7.1-17.8-11.6-29.6-11.6s-22.2,4.4-29.4,11.4
			c-5.3-6.9-14.4-11.4-24.8-11.4c-6.2,0-12.2,1.6-17.5,4.8c-8.5-13.7-25.4-23-44.9-23c-20.7,0-38.5,10.6-46.4,25.7
			c-5.3-3.9-11.7-6-18.3-5.9c-12,0-22.3,6.6-26,15.8c-7.7-10.7-21.6-17.8-37.5-17.8c-7.4,0-14.6,1.6-21.3,4.7
			c-7.1-7.4-18-12.2-30.1-12.2c-10.3-0.1-20.3,3.5-28.1,10.3c-6.7-3.9-14.4-6-22.2-5.9c-6.5,0-12.8,1.4-18.7,4.1
			C637.5,11,625.7,6.9,613.5,7c-0.7,0-1.5,0-2.2,0.1S609.9,7,609.2,7c-12.2-0.1-24,4-33.4,11.6c-5.9-2.7-12.2-4.1-18.7-4.1
			c-7.8,0-15.5,2-22.2,5.9c-7.8-6.7-17.8-10.4-28.1-10.3c-12.1,0-23,4.7-30.1,12.2c-6.7-3.1-13.9-4.7-21.3-4.7
			c-15.8,0-29.7,7.1-37.4,17.8c-3.7-9.2-14-15.8-26-15.8c-6.6-0.1-13,2-18.2,5.9C365.8,10.6,348,0,327.2,0
			c-19.5,0-36.4,9.3-44.9,22.9c-5.3-3.2-11.3-4.9-17.5-4.8c-10.4,0-19.5,4.5-24.8,11.4c-7.1-7-17.6-11.4-29.4-11.4
			s-22.5,4.5-29.6,11.6c-3.9-10-15-17.1-28.1-17.1c-12.3,0-22.8,6.3-27.3,15.4c-7.9-6.6-17.8-10.2-28.1-10.1
			c-9.1-0.1-18.1,2.7-25.5,8.1c-8.3-8.1-20.6-13.3-34.3-13.3C22,12.6,8.2,36.7,0,47h1222.7C1214.5,36.7,1200.7,12.6,1185,12.6z"/>
	</g>
</g>
</svg>
