<svg xmlns="http://www.w3.org/2000/svg" viewBox="0 0 1222.66 46.95"><defs><style>.cls-1{fill:#fdfefe;}</style></defs><title>Asset 9</title><g id="Layer_2" data-name="Layer 2"><g id="Layer_1-2" data-name="Layer 1"><path class="cls-1" d="M1185,12.61c-13.7,0-26,5.16-34.3,13.31a43.35,43.35,0,0,0-25.57-8.06A42.72,42.72,0,0,0,1097,28c-4.51-9-15-15.36-27.31-15.36-13.07,0-24.15,7.18-28.1,17.14-7.14-7.11-17.76-11.63-29.63-11.63s-22.24,4.41-29.38,11.38c-5.3-6.85-14.42-11.38-24.8-11.38a33.19,33.19,0,0,0-17.45,4.82C931.8,9.3,914.9,0,895.44,0,874.71,0,856.89,10.55,849,25.66a30.36,30.36,0,0,0-18.26-5.89c-12.05,0-22.29,6.59-26,15.75C797,24.84,783.11,17.73,767.28,17.73A49.93,49.93,0,0,0,746,22.41C738.86,15,728,10.25,715.89,10.25A42.15,42.15,0,0,0,687.8,20.51a43.46,43.46,0,0,0-22.18-5.93,44,44,0,0,0-18.69,4.08A52.07,52.07,0,0,0,613.52,7c-.74,0-1.46,0-2.19.05S609.88,7,609.15,7a52.12,52.12,0,0,0-33.42,11.64,44,44,0,0,0-18.68-4.08,43.43,43.43,0,0,0-22.18,5.93,42.17,42.17,0,0,0-28.1-10.26c-12.14,0-23,4.74-30.07,12.16a49.89,49.89,0,0,0-21.31-4.68c-15.84,0-29.71,7.11-37.44,17.79-3.73-9.16-14-15.75-26-15.75a30.35,30.35,0,0,0-18.25,5.89C365.78,10.55,348,0,327.23,0c-19.47,0-36.37,9.3-44.9,22.94a33.16,33.16,0,0,0-17.45-4.82c-10.37,0-19.5,4.53-24.79,11.38-7.14-7-17.65-11.38-29.39-11.38s-22.49,4.52-29.63,11.63c-3.95-10-15-17.14-28.09-17.14-12.28,0-22.81,6.33-27.31,15.36A42.76,42.76,0,0,0,97.53,17.86,43.31,43.31,0,0,0,72,25.92c-8.33-8.15-20.61-13.31-34.31-13.31C22,12.61,8.16,36.69,0,47H1222.66C1214.5,36.69,1200.68,12.61,1185,12.61Z"/></g></g></svg>