<svg xmlns="http://www.w3.org/2000/svg" viewBox="0 0 146.11 32.47"><defs><style>.cls-1,.cls-6{fill:#fff;}.cls-1,.cls-3,.cls-4,.cls-5{stroke:#000;}.cls-1,.cls-2,.cls-3,.cls-4,.cls-5,.cls-6,.cls-7{stroke-miterlimit:10;}.cls-2,.cls-3,.cls-7{fill:none;}.cls-2{stroke:#c3c3c3;}.cls-4{fill:#f26322;}.cls-5{fill:#9076b5;}.cls-6,.cls-7{stroke:#fff;stroke-width:2px;}</style></defs><title>Asset 17</title><g id="Layer_2" data-name="Layer 2"><g id="Layer_1-2" data-name="Layer 1"><path class="cls-1" d="M90.82,2.86h6.75c10.2,17,39,17,39,17h7C109.12,34.34,90.82,2.86,90.82,2.86Z"/><path class="cls-2" d="M100.9,7.21s26.69-10.12,33.94-5.5c3.89,2.47,3.28,11.55,3.28,18.13C113.28,22.35,100.9,7.21,100.9,7.21Z"/><polyline class="cls-1" points="130.2 22.87 134.24 25.67 130.95 29.46 136.23 25.61 132.56 21.88"/><ellipse class="cls-3" cx="130.31" cy="29.98" rx="0.4" ry="1.19" transform="translate(26.73 114.54) rotate(-52.18)"/><ellipse class="cls-3" cx="131.68" cy="28.89" rx="0.52" ry="1.55" transform="matrix(0.61, -0.79, 0.79, 0.61, 28.12, 115.19)"/><ellipse class="cls-3" cx="132.91" cy="27.42" rx="0.62" ry="1.86" transform="translate(29.76 115.6) rotate(-52.18)"/><path class="cls-4" d="M138.54,19.84h-2s-24-.42-36.06-13l.38.41S113.21,23.66,138.54,19.84Z"/><rect class="cls-5" x="91.26" y="5.98" width="4.01" height="1.24"/><rect class="cls-5" x="93.26" y="9.17" width="4.01" height="1.25"/><path class="cls-6" d="M127.7,4.71s4,.22,4.34,1.94C130.26,5.82,127.7,4.71,127.7,4.71Z"/><line class="cls-7" x1="83.96" y1="12.24" y2="12.24"/><line class="cls-7" x1="108.96" y1="25.74" x2="25" y2="25.74"/><line class="cls-7" x1="96.46" y1="18.24" x2="12.5" y2="18.24"/></g></g></svg>