<svg xmlns="http://www.w3.org/2000/svg" xmlns:xlink="http://www.w3.org/1999/xlink" viewBox="0 0 138.77 562.33"><defs><style>.cls-1,.cls-5{fill:none;}.cls-10,.cls-11,.cls-2{fill:#fff;}.cls-3{clip-path:url(#clip-path);}.cls-4{fill:#9a6aad;}.cls-10,.cls-11,.cls-5{stroke:#8a58a4;stroke-miterlimit:10;}.cls-10,.cls-5{stroke-width:3px;}.cls-6{clip-path:url(#clip-path-2);}.cls-7{clip-path:url(#clip-path-3);}.cls-8{clip-path:url(#clip-path-4);}.cls-9{fill:#8a58a4;}.cls-11{stroke-width:2px;}</style><clipPath id="clip-path"><path class="cls-1" d="M54.2,560.83H21.83V124.6S7.5,117.18,7.5,105c14.33-.06,26.25-.06,50.25,0,0,11.5-16.47,19.61-16.47,19.61L39.8,360.3C39.32,437.59,54.37,441.29,54.2,560.83Z"/></clipPath><clipPath id="clip-path-2"><path class="cls-1" d="M90.57,560.83h32.37V72.1s14.33-7.42,14.33-19.61c-14.33-.06-26.25-.06-50.25,0C87,64,103.48,72.1,103.48,72.1s0,12.5,1.49,248.2C105.45,397.59,90.57,411.75,90.57,560.83Z"/></clipPath><clipPath id="clip-path-3"><rect class="cls-1" x="40.89" y="194.84" width="63.01" height="18"/></clipPath><clipPath id="clip-path-4"><rect class="cls-1" x="39.89" y="291" width="63.01" height="18"/></clipPath></defs><title>Asset 15</title><g id="Layer_2" data-name="Layer 2"><g id="Layer_1-2" data-name="Layer 1"><g id="Tower_1" data-name="Tower 1"><g id="Left_Tower" data-name="Left Tower"><path class="cls-2" d="M54.2,560.83H21.83V124.6S7.5,117.18,7.5,105c14.33-.06,26.25-.06,50.25,0,0,11.5-16.47,19.61-16.47,19.61L39.8,360.3C39.32,437.59,54.37,441.29,54.2,560.83Z"/><g class="cls-3"><path class="cls-4" d="M46.7,560.83H14.33V124.6S0,117.18,0,105c14.33-.06,26.25-.06,50.25,0-.06,11.49-16.47,16.61-16.47,16.61s0,3-1.48,238.7C31.82,437.59,46.87,441.29,46.7,560.83Z"/></g><path class="cls-5" d="M21.83,161.67V124.6S7.5,117.18,7.5,105c14.33-.06,26.25-.06,50.25,0,0,11.5-16.47,19.61-16.47,19.61s0,1.91-.39,70.24"/><line class="cls-5" x1="21.83" y1="272.09" x2="21.83" y2="212.84"/><path class="cls-5" d="M40.12,309c-.11,15.13-.21,33.93-.32,51.3-.48,77.29,14.57,81,14.4,200.53H21.83V385.19"/><path class="cls-5" d="M40.89,212.84c-.13,20.16-.41,47.39-.65,78.16"/></g><g id="Right_Tower" data-name="Right Tower"><path class="cls-2" d="M90.57,560.83h32.37V72.1s14.33-7.42,14.33-19.61c-14.33-.06-26.25-.06-50.25,0C87,64,103.48,72.1,103.48,72.1s0,12.5,1.49,248.2C105.45,397.59,90.57,411.75,90.57,560.83Z"/><g class="cls-6"><path class="cls-4" d="M83.07,560.83h32.37V69.6s14.33-4.92,14.33-17.11c-14.33-.06-26.25-.06-50.25,0C79.52,64,96,72.1,96,72.1s0,12.5,1.49,248.2C98,397.59,83.07,411.75,83.07,560.83Z"/></g><path class="cls-5" d="M104.94,330.24c-.78,68.87-14.37,88.13-14.37,230.59h32.37V72.1s14.33-7.42,14.33-19.61c-14.33-.06-26.25-.06-50.25,0C87,64,103.48,72.1,103.48,72.1s0,.79,0,5.72"/><path class="cls-5" d="M104.47,241.2c.13,20.12.27,42.62.42,67.8"/><path class="cls-5" d="M104.06,173.82c.07,11.64.15,24.59.24,39"/><path class="cls-5" d="M103.61,96.83c0,8.22.11,19.14.19,33.64"/></g><rect class="cls-4" x="33.24" y="198.98" width="22.62" height="9.8"/><g id="Top_Walk" data-name="Top Walk"><rect class="cls-2" x="40.89" y="194.84" width="63.01" height="18"/><g class="cls-7"><rect class="cls-4" x="33.39" y="194.84" width="63.01" height="18"/></g><polyline class="cls-5" points="68.3 212.84 62.08 212.84 55.85 212.84 48.92 212.84 38.39 212.84"/><polyline class="cls-5" points="91.18 194.84 103.89 194.84 103.89 212.84 92.25 212.84"/><line class="cls-5" x1="57.75" y1="194.84" x2="77.74" y2="194.84"/><line class="cls-5" x1="38.39" y1="194.84" x2="46.86" y2="194.84"/></g><g id="Bottom_Rect" data-name="Bottom Rect"><rect class="cls-2" x="40.89" y="291" width="63.01" height="18"/><g class="cls-8"><rect class="cls-4" x="33.39" y="291" width="63.01" height="18"/></g><line class="cls-5" x1="68.21" y1="309" x2="37.37" y2="309"/><line class="cls-5" x1="84.83" y1="309" x2="78.24" y2="309"/><polyline class="cls-5" points="81.95 291 103.64 291 103.64 309 93.45 309"/><line class="cls-5" x1="37.49" y1="291" x2="53.35" y2="291"/></g><g id="Wind_Turbine" data-name="Wind Turbine"><path class="cls-9" d="M20.6,85.19V105a1.25,1.25,0,0,0,2.5,0V85.19a1.25,1.25,0,0,0-2.5,0Z"/><circle class="cls-9" cx="21.85" cy="82.05" r="2.62"/><path class="cls-9" d="M23.22,82.05a1.37,1.37,0,0,1-2.73,0,1.37,1.37,0,0,1,2.73,0c.09,1.6,2.59,1.61,2.5,0a3.87,3.87,0,1,0-4,3.85,3.93,3.93,0,0,0,4-3.85C25.81,80.44,23.31,80.44,23.22,82.05Z"/><path class="cls-9" d="M21.21,79.11c-4.05-3-3.78-14.83-3.78-14.83S23.31,74.51,21.21,79.11Z"/><path class="cls-9" d="M22.09,78.23c-3.5-3-3.49-9.71-3.41-14l-2.33.63c2.1,3.68,5.3,9.59,3.65,13.87-.58,1.5,1.84,2.15,2.41.66,1.92-5-1.46-11.52-3.9-15.8a1.26,1.26,0,0,0-2.33.64c-.09,4.89.09,12.3,4.14,15.72C21.54,81,23.32,79.27,22.09,78.23Z"/><path class="cls-9" d="M24.92,83.11c4.66-2,14.74,4.15,14.74,4.15S27.86,87.23,24.92,83.11Z"/><path class="cls-9" d="M25.26,84.32c4.31-1.55,10.14,1.83,13.77,4L39.66,86c-4.24,0-11-.21-13.85-3.78C24.8,81,23,82.75,24,84c3.31,4.14,10.73,4.49,15.62,4.52a1.26,1.26,0,0,0,.63-2.33c-4.21-2.54-10.7-6.07-15.7-4.28C23.09,82.44,23.74,84.86,25.26,84.32Z"/><path class="cls-9" d="M19.85,84.4c-5,.48-11,10.69-11,10.69S19.25,89.42,19.85,84.4Z"/><path class="cls-9" d="M19.52,83.19c-5.2.74-9.27,7.1-11.71,11.27a1.26,1.26,0,0,0,1.71,1.71c4.24-2.34,10.67-6.25,11.54-11.44.26-1.57-2.15-2.25-2.41-.66-.5,3-3.45,5.23-5.72,6.92a43.27,43.27,0,0,1-4.67,3L10,95.72c2.12-3.64,5.68-9.48,10.21-10.11C21.77,85.38,21.1,83,19.52,83.19Z"/></g><g id="Wind_Turbine-2" data-name="Wind Turbine"><path class="cls-9" d="M40,74.56V105a1.25,1.25,0,0,0,2.5,0V74.56a1.25,1.25,0,0,0-2.5,0Z"/><circle class="cls-9" cx="41.25" cy="71.42" r="2.62"/><path class="cls-9" d="M42.61,71.42a1.37,1.37,0,0,1-2.73,0,1.37,1.37,0,0,1,2.73,0c.09,1.6,2.59,1.61,2.5,0a3.87,3.87,0,1,0-4,3.86,3.93,3.93,0,0,0,4-3.86C45.2,69.81,42.7,69.82,42.61,71.42Z"/><path class="cls-9" d="M43.37,68.73c-.21-5.05,9.1-12.3,9.1-12.3S48.26,67.45,43.37,68.73Z"/><path class="cls-9" d="M44.62,68.73c0-4.51,5.46-8.85,8.73-11.42l-2.08-1.22C49.81,59.86,47.22,66.21,43,67.53c-1.52.48-.87,2.89.67,2.41,5.21-1.64,8.17-8.49,10-13.18.5-1.31-1.24-1.89-2.09-1.22-3.88,3-9.42,7.86-9.47,13.19A1.25,1.25,0,0,0,44.62,68.73Z"/><path class="cls-9" d="M42.62,74.14c4.48,2.35,6.11,14,6.11,14S41.28,79,42.62,74.14Z"/><path class="cls-9" d="M42,75.22c3.87,2.3,4.94,9.16,5.53,13.29l2.09-1.22c-2.54-3.14-6.7-8.54-5.78-12.82.33-1.57-2.08-2.24-2.41-.66-1.15,5.37,3.23,11.3,6.42,15.25.89,1.1,2.24-.15,2.09-1.21-.69-4.88-2.09-12.06-6.68-14.79A1.25,1.25,0,0,0,42,75.22Z"/><path class="cls-9" d="M38.41,71C34.86,67.43,23.2,69.3,23.2,69.3S34.14,73.74,38.41,71Z"/><path class="cls-9" d="M39.3,70.15c-4.09-3.68-11.41-2.84-16.43-2.06-1.36.22-1,2,0,2.41,4.61,1.86,11.47,4.2,16.17,1.61,1.41-.78.15-2.94-1.26-2.16-4,2.18-10.36-.3-14.24-1.86V70.5c4-.62,10.73-1.52,14,1.41C38.72,73,40.5,71.22,39.3,70.15Z"/></g><g id="Wind_Turbine-3" data-name="Wind Turbine"><path class="cls-9" d="M102.07,32.69V52.45a1.25,1.25,0,0,0,2.5,0V32.69a1.25,1.25,0,0,0-2.5,0Z"/><circle class="cls-9" cx="103.32" cy="29.55" r="2.62"/><path class="cls-9" d="M104.68,29.55a1.37,1.37,0,0,1-2.73,0,1.37,1.37,0,0,1,2.73,0c.09,1.6,2.59,1.61,2.5,0a3.87,3.87,0,1,0-4,3.85,3.93,3.93,0,0,0,4-3.85C107.27,27.94,104.77,27.94,104.68,29.55Z"/><path class="cls-9" d="M101.08,27.63c-4.89-1.33-9-12.39-9-12.39S101.34,22.58,101.08,27.63Z"/><path class="cls-9" d="M101.41,26.43c-4.17-1.36-6.69-7.74-8.11-11.53l-2.09,1.22c3.25,2.6,8.62,7,8.62,11.51a1.25,1.25,0,0,0,2.5,0c0-5.33-5.51-10.21-9.35-13.28-.86-.68-2.58-.09-2.09,1.22,1.76,4.71,4.66,11.57,9.85,13.27C102.28,29.34,102.93,26.93,101.41,26.43Z"/><path class="cls-9" d="M106,30c3.59-3.57,15.22-1.58,15.22-1.58S110.25,32.73,106,30Z"/><path class="cls-9" d="M106.89,30.86c3.3-2.89,10-1.92,14-1.25V27.19c-3.9,1.53-10.32,3.93-14.26,1.71a1.25,1.25,0,0,0-1.26,2.16c4.67,2.64,11.55.35,16.19-1.45,1-.4,1.35-2.19,0-2.42-5-.83-12.31-1.73-16.45,1.9C103.91,30.16,105.69,31.92,106.89,30.86Z"/><path class="cls-9" d="M101.77,33.05c-4.51,2.3-6.25,14-6.25,14S103.06,37.94,101.77,33.05Z"/><path class="cls-9" d="M101.14,32c-4.61,2.68-6.08,9.86-6.82,14.72-.17,1.08,1.2,2.3,2.09,1.22C99.64,44,104.07,38.1,103,32.72c-.32-1.58-2.73-.91-2.41.66.88,4.29-3.35,9.64-5.92,12.76l2.09,1.22c.63-4.13,1.77-11,5.67-13.23A1.25,1.25,0,0,0,101.14,32Z"/></g><g id="Wind_Turbine-4" data-name="Wind Turbine"><path class="cls-9" d="M121.46,22.06V52.45a1.25,1.25,0,0,0,2.5,0V22.06a1.25,1.25,0,0,0-2.5,0Z"/><circle class="cls-9" cx="122.71" cy="18.92" r="2.62"/><path class="cls-9" d="M124.08,18.92a1.37,1.37,0,0,1-2.74,0,1.37,1.37,0,0,1,2.74,0c.08,1.6,2.58,1.61,2.5,0a3.87,3.87,0,1,0-4,3.86,3.94,3.94,0,0,0,4-3.86C126.66,17.31,124.16,17.32,124.08,18.92Z"/><path class="cls-9" d="M124.08,15.85c-1.88-4.7,4.49-14.64,4.49-14.64S128.27,13,124.08,15.85Z"/><path class="cls-9" d="M125.28,15.52c-1.44-4.34,2.11-10.11,4.37-13.67l-2.33-.64c-.11,4-.41,10.93-3.87,13.56-1.27,1,0,3.13,1.26,2.16,4.38-3.34,5-10.61,5.11-15.72a1.26,1.26,0,0,0-2.33-.63c-2.64,4.16-6.29,10.55-4.62,15.6C123.38,17.7,125.79,17.05,125.28,15.52Z"/><path class="cls-9" d="M125.17,21.2c5,.72,10.43,11.21,10.43,11.21S125.53,26.24,125.17,21.2Z"/><path class="cls-9" d="M124.84,22.4c4.47.86,7.74,6.91,9.68,10.64l1.71-1.71a40,40,0,0,1-4.44-3.2c-2-1.69-5-4.1-5.37-6.93-.18-1.58-2.68-1.6-2.5,0,.65,5.44,6.73,9.63,11,12.28,1.11.69,2.26-.64,1.71-1.71-2.24-4.3-6-10.79-11.17-11.78C123.93,19.69,123.26,22.1,124.84,22.4Z"/><path class="cls-9" d="M120.17,19.66c-4.55-2.21-14.92,3.42-14.92,3.42S117,23.64,120.17,19.66Z"/><path class="cls-9" d="M120.5,18.45c-4.92-2-11.55,1.22-15.88,3.55a1.26,1.26,0,0,0,.63,2.33c4.9.22,12.29.19,15.81-3.79,1.06-1.2-.7-3-1.77-1.76-3,3.42-9.81,3.24-14,3l.63,2.33c3.74-2,9.72-5,14-3.29C121.33,21.48,122,19.06,120.5,18.45Z"/></g><rect class="cls-4" x="28.24" y="295.23" width="22.62" height="9.8"/><path class="cls-10" d="M43.89,201.23H95.64a2.66,2.66,0,0,1,2.66,2.66v0a2.66,2.66,0,0,1-2.66,2.66H43.89a0,0,0,0,1,0,0v-5.32a0,0,0,0,1,0,0Z"/><path class="cls-10" d="M44.39,297.23H96.14a2.66,2.66,0,0,1,2.66,2.66v0a2.66,2.66,0,0,1-2.66,2.66H44.39a0,0,0,0,1,0,0v-5.32a0,0,0,0,1,0,0Z"/><path class="cls-11" d="M-32.24,188.12H86.2a1.94,1.94,0,0,1,1.94,1.94v0A1.94,1.94,0,0,1,86.2,192H-32.24a0,0,0,0,1,0,0v-3.89A0,0,0,0,1-32.24,188.12Z" transform="translate(-162.11 218.01) rotate(-90)"/><rect class="cls-11" x="20.75" y="261.15" width="14.4" height="3.89" transform="translate(-235.14 291.04) rotate(-90)"/><circle class="cls-11" cx="28.78" cy="418.81" r="3.44"/><circle class="cls-11" cx="28.78" cy="429.74" r="3.44"/><circle class="cls-11" cx="28.78" cy="407.67" r="3.44"/><path class="cls-11" d="M50,134.62H168.45a1.94,1.94,0,0,1,1.94,1.94v0a1.94,1.94,0,0,1-1.94,1.94H50a0,0,0,0,1,0,0v-3.89a0,0,0,0,1,0,0Z" transform="translate(-26.36 246.76) rotate(-90)"/><rect class="cls-11" x="103" y="207.65" width="14.4" height="3.89" transform="translate(-99.39 319.79) rotate(-90)"/><path class="cls-11" d="M71.75,258.61H147a1.94,1.94,0,0,1,1.94,1.94v0A1.94,1.94,0,0,1,147,262.5H71.75a0,0,0,0,1,0,0v-3.89a0,0,0,0,1,0,0Z" transform="translate(370.89 150.21) rotate(90)"/><circle class="cls-11" cx="109.53" cy="391.06" r="3.44"/><circle class="cls-11" cx="109.53" cy="401.99" r="3.44"/><circle class="cls-11" cx="109.53" cy="379.92" r="3.44"/></g></g></g></svg>