<svg xmlns="http://www.w3.org/2000/svg" viewBox="0 0 1222.66 81.43"><defs><style>.cls-1{fill:#f3f3f4;}</style></defs><title>Asset 10</title><g id="Layer_2" data-name="Layer 2"><g id="Layer_1-2" data-name="Layer 1"><path class="cls-1" d="M1189.16,29.61c-7.71-10.26-20.78-17-35.6-17a45,45,0,0,0-32.43,13.31,40.12,40.12,0,0,0-50.75,2c-4.26-9-14.21-15.36-25.82-15.36-12.34,0-22.82,7.18-26.55,17.14a39.56,39.56,0,0,0-55.78-.25,28.92,28.92,0,0,0-23.44-11.38,30.06,30.06,0,0,0-16.49,4.82C914.23,9.3,898.26,0,879.86,0,860.27,0,843.42,10.55,836,25.66a27.68,27.68,0,0,0-17.26-5.89c-11.39,0-21.07,6.59-24.59,15.75-7.3-10.68-20.42-17.79-35.39-17.79a45.07,45.07,0,0,0-20.15,4.68,39.38,39.38,0,0,0-55-1.9A40.14,40.14,0,0,0,645,18.66,47.59,47.59,0,0,0,613.38,7c-.68,0-1.37,0-2,.05S610,7,609.28,7a47.61,47.61,0,0,0-31.59,11.64,40.12,40.12,0,0,0-38.62,1.85,39.39,39.39,0,0,0-55,1.9,45,45,0,0,0-20.15-4.68c-15,0-28.08,7.11-35.39,17.79C425,26.36,415.36,19.77,404,19.77a27.63,27.63,0,0,0-17.25,5.89C379.24,10.55,362.4,0,342.8,0c-18.39,0-34.37,9.3-42.43,22.94a30.09,30.09,0,0,0-16.5-4.82A28.9,28.9,0,0,0,260.44,29.5a39.56,39.56,0,0,0-55.78.25c-3.74-10-14.21-17.14-26.56-17.14-11.6,0-21.56,6.33-25.81,15.36a40.14,40.14,0,0,0-50.76-2A45,45,0,0,0,69.1,12.61c-14.82,0-27.88,6.74-35.6,17C26.1,25.82,6.55,27.83,0,32.49V81.43l611.33-2,611.33,2V32.49C1216.12,27.83,1196.57,25.82,1189.16,29.61Z"/></g></g></svg>