<svg xmlns="http://www.w3.org/2000/svg" xmlns:xlink="http://www.w3.org/1999/xlink" viewBox="0 0 142.96 599.95"><defs><style>.cls-1,.cls-11,.cls-5{fill:#fff;}.cls-2{fill:#f7e000;}.cls-3{clip-path:url(#clip-path);}.cls-4{fill:none;}.cls-11,.cls-4,.cls-5{stroke:#000;stroke-miterlimit:10;}.cls-4,.cls-5{stroke-width:3px;}.cls-6{clip-path:url(#clip-path-2);}.cls-7{fill:#feed4f;}.cls-8{clip-path:url(#clip-path-3);}.cls-9{clip-path:url(#clip-path-4);}.cls-10{clip-path:url(#clip-path-5);}.cls-11{stroke-width:2px;}.cls-12{clip-path:url(#clip-path-6);}.cls-13{clip-path:url(#clip-path-7);}</style><clipPath id="clip-path"><path class="cls-1" d="M38.69,156.72A69.26,69.26,0,0,0,17,118H89.37l-3.5,3.61a58.47,58.47,0,0,0-16.51,40.73V350.21c0,20.63,13.19,24.06,13.19,45.58V594.57H39.87V473.31Z"/></clipPath><clipPath id="clip-path-2"><polygon class="cls-2" points="131.8 274.83 74.65 274.83 66.83 265.64 139.62 265.64 131.8 274.83"/></clipPath><clipPath id="clip-path-3"><polygon class="cls-2" points="131.8 238.5 74.65 238.5 66.83 247.69 139.62 247.69 131.8 238.5"/></clipPath><clipPath id="clip-path-4"><polygon class="cls-2" points="131.66 335.57 74.5 335.57 66.68 326.38 139.47 326.38 131.66 335.57"/></clipPath><clipPath id="clip-path-5"><polygon class="cls-2" points="131.66 299.24 74.5 299.24 66.68 308.43 139.47 308.43 131.66 299.24"/></clipPath><clipPath id="clip-path-6"><polygon class="cls-2" points="132.66 212.08 75.5 212.08 67.68 202.89 140.47 202.89 132.66 212.08"/></clipPath><clipPath id="clip-path-7"><polygon class="cls-2" points="132.66 175.75 75.5 175.75 67.68 184.94 140.47 184.94 132.66 175.75"/></clipPath></defs><title>Asset 14</title><g id="Layer_2" data-name="Layer 2"><g id="Layer_1-2" data-name="Layer 1"><g id="Middle_Pink_Tower" data-name="Middle Pink Tower"><polyline class="cls-1" points="13.51 92.91 16 118.06 88.37 118.06 93.37 67.75 85.27 67.75 76.4 67.75 65.03 67.75 41.75 67.75 21.98 67.75 11.01 67.75 11.9 76.79"/><path class="cls-1" d="M38.69,156.72A69.26,69.26,0,0,0,17,118H89.37l-3.5,3.61a58.47,58.47,0,0,0-16.51,40.73V350.21c0,20.63,13.19,24.06,13.19,45.58V594.57H39.87V473.31Z"/><g class="cls-3"><path class="cls-2" d="M73.05,595.36H30.37l-21-478.12,70,1.57-4.16,3.91C63.82,133.39,59.86,148.3,59.86,163.9V351c0,20.63,13.19,24.06,13.19,45.58Z"/></g><path class="cls-4" d="M37.69,157.51A69.28,69.28,0,0,0,16,118.81H88.37l-3.5,3.62a58.47,58.47,0,0,0-16.51,40.73V351c0,20.63,13.19,24.06,13.19,45.58V595.36H38.87V474.09"/><line class="cls-5" x1="38.87" y1="213.08" x2="38.87" y2="180.85"/><line class="cls-5" x1="38.87" y1="256.66" x2="38.87" y2="232.26"/><line class="cls-5" x1="38.87" y1="278.13" x2="38.87" y2="270.23"/><line class="cls-5" x1="38.87" y1="350.34" x2="38.87" y2="292.46"/><g id="Middle"><polygon class="cls-2" points="131.8 274.83 74.65 274.83 66.83 265.64 139.62 265.64 131.8 274.83"/><g class="cls-6"><rect class="cls-7" x="102.29" y="222.36" width="10.71" height="75.15" transform="translate(92.44 -21) rotate(19.4)"/><rect class="cls-7" x="117.11" y="222.52" width="5.36" height="75.15" transform="translate(93.18 -25.02) rotate(19.4)"/></g><polygon class="cls-2" points="131.8 238.5 74.65 238.5 66.83 247.69 139.62 247.69 131.8 238.5"/><g class="cls-8"><rect class="cls-7" x="109.59" y="200.7" width="10.71" height="75.15" transform="translate(85.66 -24.65) rotate(19.4)"/><rect class="cls-7" x="124.42" y="200.87" width="5.36" height="75.15" transform="translate(86.41 -28.68) rotate(19.4)"/></g><rect class="cls-5" x="63.07" y="247.47" width="75.01" height="18.38"/></g><rect class="cls-5" x="30.64" y="184.63" width="8.23" height="18.16"/><rect class="cls-5" x="30.64" y="232.26" width="8.23" height="18.16"/><rect class="cls-5" x="30.64" y="317.7" width="8.23" height="18.16"/><polyline class="cls-5" points="21.73 67.75 10.76 67.75 11.65 76.79"/><polyline class="cls-5" points="13.26 92.91 15.76 118.06 88.12 118.06 93.12 67.75 85.02 67.75 76.15 67.75 64.78 67.75 41.5 67.75"/><line class="cls-5" y1="76.79" x2="104.38" y2="76.79"/><line class="cls-5" x1="2.5" y1="87.56" x2="101.88" y2="87.56"/><line class="cls-5" x1="4.75" y1="98.33" x2="99.13" y2="98.33"/><line class="cls-5" x1="7.5" y1="107.79" x2="96.88" y2="107.79"/><path class="cls-5" d="M46.5,31.41V26.56H57.38V52.07a27.1,27.1,0,0,0,5,15.68H41.5a25.82,25.82,0,0,0,5-15.28"/><line class="cls-5" x1="51.94" y1="26.56" x2="52.19" y2="0.01"/><g id="Middle-2" data-name="Middle"><polygon class="cls-2" points="131.66 335.57 74.5 335.57 66.68 326.38 139.47 326.38 131.66 335.57"/><g class="cls-9"><rect class="cls-7" x="102.14" y="283.09" width="10.71" height="75.15" transform="translate(112.6 -17.5) rotate(19.4)"/><rect class="cls-7" x="116.96" y="283.26" width="5.36" height="75.15" transform="translate(113.35 -21.52) rotate(19.4)"/></g><polygon class="cls-2" points="131.66 299.24 74.5 299.24 66.68 308.43 139.47 308.43 131.66 299.24"/><g class="cls-10"><rect class="cls-7" x="109.45" y="261.44" width="10.71" height="75.15" transform="translate(105.83 -21.16) rotate(19.4)"/><rect class="cls-7" x="124.27" y="261.6" width="5.36" height="75.15" transform="translate(106.57 -25.18) rotate(19.4)"/></g><rect class="cls-5" x="62.93" y="308.21" width="75.01" height="18.38"/><line class="cls-4" x1="98.06" y1="299.54" x2="83.49" y2="299.54"/><line class="cls-4" x1="96.06" y1="335.87" x2="127.61" y2="335.87"/></g><line class="cls-4" x1="127.17" y1="238.5" x2="112.61" y2="238.5"/><line class="cls-4" x1="80.7" y1="274.83" x2="112.25" y2="274.83"/><polyline class="cls-11" points="66.31 401.47 66.31 598.95 46.31 598.95 46.31 401.47"/><line class="cls-11" x1="51.69" y1="401.47" x2="51.69" y2="598.95"/><line class="cls-11" x1="56.66" y1="401.47" x2="56.66" y2="598.95"/><line class="cls-11" x1="61.66" y1="401.47" x2="61.66" y2="598.95"/><circle class="cls-11" cx="56.66" cy="387.88" r="6.51"/><path class="cls-11" d="M-10.85,200.41H105.48a4.05,4.05,0,0,1,4.05,4.05v0a4.05,4.05,0,0,1-4.05,4.05H-10.85a0,0,0,0,1,0,0v-8.11A0,0,0,0,1-10.85,200.41Z" transform="translate(-155.12 253.8) rotate(-90)"/><path class="cls-11" d="M10.75,304.3H83.88a4.05,4.05,0,0,1,4.05,4.05v0a4.05,4.05,0,0,1-4.05,4.05H10.75a0,0,0,0,1,0,0V304.3A0,0,0,0,1,10.75,304.3Z" transform="translate(357.7 259.01) rotate(90)"/><circle class="cls-11" cx="49.29" cy="267.75" r="6.51"/><circle class="cls-11" cx="30.64" cy="124.9" r="2.53"/><circle class="cls-11" cx="39.28" cy="124.98" r="2.53"/><circle class="cls-11" cx="64.78" cy="124.98" r="2.53"/><circle class="cls-11" cx="56.28" cy="124.98" r="2.53"/><circle class="cls-11" cx="47.78" cy="124.98" r="2.53"/><g id="Middle-3" data-name="Middle"><polygon class="cls-2" points="132.66 212.08 75.5 212.08 67.68 202.89 140.47 202.89 132.66 212.08"/><g class="cls-12"><rect class="cls-7" x="103.14" y="159.61" width="10.71" height="75.15" transform="translate(71.65 -24.84) rotate(19.4)"/><rect class="cls-7" x="117.96" y="159.77" width="5.36" height="75.15" transform="translate(72.39 -28.87) rotate(19.4)"/></g><polygon class="cls-2" points="132.66 175.75 75.5 175.75 67.68 184.94 140.47 184.94 132.66 175.75"/><g class="cls-13"><rect class="cls-7" x="110.45" y="137.95" width="10.71" height="75.15" transform="translate(64.87 -28.5) rotate(19.4)"/><rect class="cls-7" x="125.27" y="138.12" width="5.36" height="75.15" transform="translate(65.61 -32.52) rotate(19.4)"/></g><rect class="cls-5" x="63.93" y="184.72" width="75.01" height="18.38"/><line class="cls-4" x1="99.06" y1="176.05" x2="84.49" y2="176.05"/><line class="cls-4" x1="97.06" y1="212.38" x2="128.61" y2="212.38"/></g></g></g></g></svg>