<?xml version="1.0" encoding="utf-8"?>
<!-- Generator: Adobe Illustrator 23.0.0, SVG Export Plug-In . SVG Version: 6.00 Build 0)  -->
<svg version="1.1" id="Layer_1" xmlns="http://www.w3.org/2000/svg" xmlns:xlink="http://www.w3.org/1999/xlink" x="0px" y="0px"
	 viewBox="0 0 1222.7 81.4" style="enable-background:new 0 0 1222.7 81.4;" xml:space="preserve">
<style type="text/css">
	.st0{fill:#282D67;}
</style>
<title>Asset 10</title>
<g>
	<g id="Layer_1-2">
		<path class="st0" d="M1189.2,29.6c-7.7-10.3-20.8-17-35.6-17c-12.2-0.1-23.9,4.7-32.4,13.3c-15.2-11.5-36.5-10.7-50.8,2
			c-4.3-9-14.2-15.4-25.8-15.4c-12.3,0-22.8,7.2-26.5,17.1c-15.4-15.4-40.3-15.5-55.8-0.2c-5.6-7.3-14.3-11.5-23.4-11.4
			c-5.8,0-11.6,1.6-16.5,4.8C914.2,9.3,898.3,0,879.9,0c-19.6,0-36.4,10.6-43.9,25.7c-4.9-3.9-11-5.9-17.3-5.9
			c-11.4,0-21.1,6.6-24.6,15.8c-7.3-10.7-20.4-17.8-35.4-17.8c-7,0-13.9,1.6-20.2,4.7c-14.8-15.5-39.2-16.3-55-1.9
			c-11.7-7.2-26.3-7.9-38.6-1.9C636.2,11,625,6.9,613.4,7c-0.7,0-1.4,0-2,0.1S610,7,609.3,7c-11.6-0.1-22.8,4-31.6,11.6
			c-12.3-6-26.9-5.3-38.6,1.9c-15.8-14.4-40.2-13.6-55,1.9c-6.3-3.1-13.2-4.7-20.1-4.7c-15,0-28.1,7.1-35.4,17.8
			c-3.5-9.1-13.2-15.7-24.5-15.7c-6.3,0-12.3,2-17.2,5.9C379.2,10.6,362.4,0,342.8,0c-18.4,0-34.4,9.3-42.4,22.9
			c-4.9-3.2-10.6-4.9-16.5-4.8c-9.2-0.1-17.9,4.1-23.4,11.4c-15.5-15.3-40.4-15.2-55.8,0.2c-3.7-10-14.2-17.1-26.6-17.1
			c-11.6,0-21.6,6.3-25.8,15.4c-14.3-12.7-35.5-13.5-50.8-2C93,17.3,81.3,12.5,69.1,12.6c-14.8,0-27.9,6.7-35.6,17
			c-7.4-3.8-27-1.8-33.5,2.9v48.9l611.3-2l611.3,2V32.5C1216.1,27.8,1196.6,25.8,1189.2,29.6z"/>
	</g>
</g>
</svg>
