<svg xmlns="http://www.w3.org/2000/svg" xmlns:xlink="http://www.w3.org/1999/xlink" viewBox="0 0 157.94 553.28"><defs><style>.cls-1,.cls-11,.cls-12,.cls-9{fill:none;}.cls-10,.cls-2,.cls-6{fill:#fff;}.cls-3{fill:#19ac84;}.cls-4,.cls-8{fill:#43bc97;}.cls-10,.cls-11,.cls-12,.cls-4,.cls-9{stroke:#19ac84;}.cls-10,.cls-11,.cls-12,.cls-4,.cls-6,.cls-9{stroke-miterlimit:10;}.cls-4,.cls-6{stroke-width:0.5px;}.cls-5{clip-path:url(#clip-path);}.cls-6{stroke:#273a79;}.cls-7{clip-path:url(#clip-path-2);}.cls-10,.cls-9{stroke-width:3px;}.cls-11{stroke-width:2px;}</style><clipPath id="clip-path"><path class="cls-1" d="M65,37.58H82.52a28.24,28.24,0,0,1,28.24,28.24V82a0,0,0,0,1,0,0H36.63a0,0,0,0,1,0,0V65.94A28.36,28.36,0,0,1,65,37.58Z"/></clipPath><clipPath id="clip-path-2"><path class="cls-2" d="M81.48,551.78H67V145.21a80.86,80.86,0,0,0-.56-9.49A80.9,80.9,0,0,0,36.63,82h74.13a81,81,0,0,0-29.27,62.34Z"/></clipPath></defs><title>Asset 13</title><g id="Layer_2" data-name="Layer 2"><g id="Layer_1-2" data-name="Layer 1"><g id="Observatory"><path class="cls-3" d="M68,13.26V39a1.25,1.25,0,0,0,2.5,0V13.26a1.25,1.25,0,0,0-2.5,0Z"/><circle class="cls-4" cx="69.27" cy="13.26" r="3.19"/><path class="cls-3" d="M76.88,3.52V39a1.25,1.25,0,0,0,2.5,0V3.52a1.25,1.25,0,0,0-2.5,0Z"/><circle class="cls-4" cx="78.13" cy="3.44" r="3.19"/><g class="cls-5"><ellipse class="cls-6" cx="78.97" cy="62.74" rx="78.72" ry="60.39"/><circle class="cls-3" cx="111.51" cy="82.44" r="31.87"/><path class="cls-3" d="M133.76,77.73c-.28,16.14-10.21,30.91-25.6,36.37A38.63,38.63,0,0,1,62,57.86a39,39,0,0,1,41-18c17.94,3.7,30.44,19.73,30.76,37.82a1.25,1.25,0,0,0,2.5,0A41.12,41.12,0,0,0,63,52.05a41.12,41.12,0,0,0,39.32,66.17c19.63-3.45,33.58-20.81,33.92-40.49A1.25,1.25,0,0,0,133.76,77.73Z"/><path class="cls-3" d="M123.64,78c-.28,16.14-10.2,30.91-25.6,36.37A38.63,38.63,0,0,1,51.89,58.14a39,39,0,0,1,41-18C110.82,43.9,123.33,59.92,123.64,78a1.25,1.25,0,0,0,2.5,0A41.12,41.12,0,0,0,52.91,52.33,41.11,41.11,0,0,0,92.22,118.5c19.63-3.45,33.58-20.81,33.92-40.49A1.25,1.25,0,0,0,123.64,78Z"/></g><path class="cls-2" d="M81.48,551.78H67V145.21a80.86,80.86,0,0,0-.56-9.49A80.9,80.9,0,0,0,36.63,82h74.13a81,81,0,0,0-29.27,62.34Z"/><g class="cls-7"><rect class="cls-8" x="27.71" y="62.86" width="107.2" height="38.32" transform="translate(26.83 -19.82) rotate(16.61)"/></g><path class="cls-3" d="M36.86,82c0-6.14-.29-12.3,1.22-18.32,2.55-10.15,9-19.36,18.84-23.5,1.46-.62.82-3-.67-2.42C47,41.7,40.38,49.44,37,58.85,34.2,66.41,34.36,74.12,34.36,82a1.25,1.25,0,0,0,2.5,0Z"/><path class="cls-3" d="M56.09,61.39c-.16,2.83-4.42,2.85-4.42,0s4.26-2.82,4.42,0c.08,1.6,2.58,1.61,2.5,0a4.71,4.71,0,1,0-4.9,4.7,4.79,4.79,0,0,0,4.9-4.7C58.67,59.79,56.17,59.79,56.09,61.39Z"/><path class="cls-9" d="M66.44,136.2A80.9,80.9,0,0,0,36.62,82.5h74.13a81,81,0,0,0-29.27,62.33V551.78H67V411.26"/><line class="cls-10" x1="67" y1="224.56" x2="67" y2="164.36"/><line class="cls-10" x1="67" y1="312.67" x2="67" y2="263.88"/><circle class="cls-11" cx="74.23" cy="212.26" r="3.84"/><circle class="cls-11" cx="74.23" cy="234.14" r="3.84"/><line class="cls-11" x1="74.23" y1="223.68" x2="74.23" y2="245.56"/><circle class="cls-11" cx="74.23" cy="255.3" r="3.84"/><line class="cls-12" x1="70.64" y1="296.81" x2="70.64" y2="481.18"/><line class="cls-12" x1="74.48" y1="313.53" x2="74.48" y2="473.35"/><line class="cls-12" x1="78.07" y1="321.87" x2="78.07" y2="482.93"/><line class="cls-9" x1="62.24" y1="173.63" x2="87.21" y2="173.63"/><line class="cls-9" x1="57.3" y1="179.62" x2="92.15" y2="179.62"/><line class="cls-9" x1="62.24" y1="185.61" x2="87.21" y2="185.61"/><line class="cls-9" x1="62.24" y1="278.56" x2="87.21" y2="278.56"/><line class="cls-9" x1="57.3" y1="284.55" x2="92.15" y2="284.55"/><line class="cls-9" x1="62.24" y1="290.54" x2="87.21" y2="290.54"/></g></g></g></svg>